<svg width="60" height="60" viewBox="0 0 60 60" fill="none" xmlns="http://www.w3.org/2000/svg">
<rect width="60" height="60" rx="10" fill="#EBE6FF"/>
<path d="M38.0003 26.9998C38.5526 26.9998 39.0003 26.552 39.0003 25.9998C39.0003 25.4475 38.5526 24.9998 38.0003 24.9998V25.9998V26.9998ZM36.667 31.6664C37.2193 31.6664 37.667 31.2187 37.667 30.6664C37.667 30.1141 37.2193 29.6664 36.667 29.6664V30.6664V31.6664ZM19.4151 40.7265L18.8273 41.5356L19.4151 40.7265ZM17.9402 39.2517L17.1312 39.8394H17.1312L17.9402 39.2517ZM42.0604 39.2517L42.8695 39.8394L42.0604 39.2517ZM40.5856 40.7265L41.1733 41.5356L40.5856 40.7265ZM40.5856 19.273L41.1733 18.464V18.464L40.5856 19.273ZM42.0604 20.7479L42.8695 20.1601L42.0604 20.7479ZM19.4151 19.273L18.8273 18.464V18.464L19.4151 19.273ZM17.9402 20.7479L17.1312 20.1601H17.1312L17.9402 20.7479ZM19.7613 34.9091C19.5272 35.4093 19.7428 36.0046 20.243 36.2388C20.7432 36.4729 21.3385 36.2573 21.5727 35.7571L20.667 35.3331L19.7613 34.9091ZM29.0947 35.7571C29.3288 36.2573 29.9241 36.4729 30.4243 36.2388C30.9245 36.0046 31.1402 35.4093 30.906 34.9091L30.0003 35.3331L29.0947 35.7571ZM32.667 25.9998V26.9998H38.0003V25.9998V24.9998H32.667V25.9998ZM32.667 30.6664V31.6664H36.667V30.6664V29.6664H32.667V30.6664ZM28.667 17.9998V18.9998H31.3337V17.9998V16.9998H28.667V17.9998ZM31.3337 41.9998V40.9998H28.667V41.9998V42.9998H31.3337V41.9998ZM28.667 41.9998V40.9998C26.1449 40.9998 24.3336 40.9984 22.9311 40.8464C21.5472 40.6965 20.6802 40.4096 20.0029 39.9175L19.4151 40.7265L18.8273 41.5356C19.9024 42.3167 21.1616 42.6664 22.7156 42.8348C24.251 43.0011 26.1894 42.9998 28.667 42.9998V41.9998ZM16.667 29.9998H15.667C15.667 32.4773 15.6656 34.4158 15.832 35.9511C16.0003 37.5052 16.3501 38.7643 17.1312 39.8394L17.9402 39.2517L18.7492 38.6639C18.2571 37.9865 17.9703 37.1196 17.8203 35.7357C17.6684 34.3331 17.667 32.5219 17.667 29.9998H16.667ZM19.4151 40.7265L20.0029 39.9175C19.5218 39.568 19.0987 39.1449 18.7492 38.6639L17.9402 39.2517L17.1312 39.8394C17.6041 40.4903 18.1764 41.0627 18.8273 41.5356L19.4151 40.7265ZM43.3337 29.9998H42.3337C42.3337 32.5219 42.3323 34.3331 42.1803 35.7357C42.0304 37.1196 41.7435 37.9865 41.2514 38.6639L42.0604 39.2517L42.8695 39.8394C43.6506 38.7643 44.0003 37.5052 44.1687 35.9511C44.335 34.4158 44.3337 32.4773 44.3337 29.9998H43.3337ZM31.3337 41.9998V42.9998C33.8112 42.9998 35.7497 43.0011 37.285 42.8348C38.8391 42.6664 40.0982 42.3167 41.1733 41.5356L40.5856 40.7265L39.9978 39.9175C39.3204 40.4096 38.4535 40.6965 37.0696 40.8464C35.667 40.9984 33.8558 40.9998 31.3337 40.9998V41.9998ZM42.0604 39.2517L41.2514 38.6639C40.9019 39.1449 40.4788 39.568 39.9978 39.9175L40.5856 40.7265L41.1733 41.5356C41.8242 41.0627 42.3966 40.4903 42.8695 39.8394L42.0604 39.2517ZM31.3337 17.9998V18.9998C33.8558 18.9998 35.667 19.0011 37.0696 19.1531C38.4535 19.303 39.3204 19.5899 39.9978 20.082L40.5856 19.273L41.1733 18.464C40.0982 17.6829 38.8391 17.3331 37.285 17.1647C35.7497 16.9984 33.8112 16.9998 31.3337 16.9998V17.9998ZM43.3337 29.9998H44.3337C44.3337 27.5222 44.335 25.5837 44.1687 24.0484C44.0003 22.4943 43.6506 21.2352 42.8695 20.1601L42.0604 20.7479L41.2514 21.3356C41.7435 22.013 42.0304 22.8799 42.1803 24.2638C42.3323 25.6664 42.3337 27.4777 42.3337 29.9998H43.3337ZM40.5856 19.273L39.9978 20.082C40.4788 20.4315 40.9019 20.8546 41.2514 21.3356L42.0604 20.7479L42.8695 20.1601C42.3966 19.5092 41.8242 18.9368 41.1733 18.464L40.5856 19.273ZM28.667 17.9998V16.9998C26.1894 16.9998 24.251 16.9984 22.7156 17.1647C21.1616 17.3331 19.9024 17.6829 18.8273 18.464L19.4151 19.273L20.0029 20.082C20.6802 19.5899 21.5472 19.303 22.9311 19.1531C24.3336 19.0011 26.1449 18.9998 28.667 18.9998V17.9998ZM16.667 29.9998H17.667C17.667 27.4777 17.6684 25.6664 17.8203 24.2638C17.9703 22.8799 18.2571 22.013 18.7492 21.3356L17.9402 20.7479L17.1312 20.1601C16.3501 21.2352 16.0003 22.4943 15.832 24.0484C15.6656 25.5837 15.667 27.5222 15.667 29.9998H16.667ZM19.4151 19.273L18.8273 18.464C18.1764 18.9368 17.6041 19.5092 17.1312 20.1601L17.9402 20.7479L18.7492 21.3356C19.0987 20.8546 19.5218 20.4315 20.0029 20.082L19.4151 19.273ZM20.667 35.3331L21.5727 35.7571C22.1707 34.4797 23.6543 33.6914 25.3087 33.667C26.9509 33.6427 28.4479 34.3755 29.0947 35.7571L30.0003 35.3331L30.906 34.9091C29.8357 32.6228 27.4715 31.6348 25.2791 31.6672C23.0989 31.6994 20.7744 32.7451 19.7613 34.9091L20.667 35.3331ZM28.0003 25.9998H27.0003C27.0003 26.9202 26.2541 27.6664 25.3337 27.6664V28.6664V29.6664C27.3587 29.6664 29.0003 28.0248 29.0003 25.9998H28.0003ZM25.3337 28.6664V27.6664C24.4132 27.6664 23.667 26.9202 23.667 25.9998H22.667H21.667C21.667 28.0248 23.3086 29.6664 25.3337 29.6664V28.6664ZM22.667 25.9998H23.667C23.667 25.0793 24.4132 24.3331 25.3337 24.3331V23.3331V22.3331C23.3086 22.3331 21.667 23.9747 21.667 25.9998H22.667ZM25.3337 23.3331V24.3331C26.2541 24.3331 27.0003 25.0793 27.0003 25.9998H28.0003H29.0003C29.0003 23.9747 27.3587 22.3331 25.3337 22.3331V23.3331Z" fill="#886BF9"/>
</svg>
