<svg width="171" height="36" viewBox="0 0 171 36" fill="none" xmlns="http://www.w3.org/2000/svg">
<path d="M40 34C31.3 34 26.2 27 21.3 20.2C16.5 13.7 12 7.5 4.9 7.5H1V0.5H4.9C15.6 0.5 21.6 8.8 26.9 16C31.2 21.9 34.9 26.9 39.9 26.9C46.1 26.9 48.9 22.9 52.9 16.3C56.7 10.2 61.5 2.5 71.9 2.5H79.5V9.5H71.9C65.7 9.5 62.9 13.5 58.9 20.1C55.1 26.3 50.4 34 40 34Z" fill="#3DC8B1"/>
<path d="M82.9999 34.5C67.1999 34.5 61.0999 25.1 56.1999 17.5C52.2999 11.5 49.8999 8.09998 44.8999 8.09998C37.6999 8.09998 34.4999 12.5 29.7999 19.7C25.2999 26.6 20.2999 34.5 8.8999 34.5V27.5C16.0999 27.5 19.2999 23.1 23.9999 15.9C28.4999 8.99997 33.4999 1.09998 44.8999 1.09998C53.8999 1.09998 58.1999 7.79997 62.0999 13.7C66.8999 21.1 71.4999 28.2 84.7999 27.5L85.0999 34.5C84.3999 34.5 83.6999 34.5 82.9999 34.5Z" fill="#876AF9"/>
<path d="M29.7001 19.8C28.4001 21.8 27.1001 23.9 25.5001 25.8C24.0001 24 22.6001 22.1 21.2001 20.2L21.1001 20.1C22.0001 18.8 22.9001 17.4 23.9001 15.9C24.3001 15.2 24.8001 14.6 25.2001 13.9C25.7001 14.6 26.3001 15.4 26.8001 16.1C27.9001 17.4 28.8001 18.6 29.7001 19.8Z" fill="#043C4D"/>
<path d="M62.6002 14.5C61.4002 16 60.2002 17.9 58.9002 20.1C58.7002 20.4 58.6002 20.6 58.4002 20.9C57.6002 19.8 56.9002 18.6 56.2002 17.5C55.5002 16.4 54.8002 15.4 54.2002 14.5C55.5002 12.5 56.9002 10.4 58.6002 8.59998C59.9002 10.3 61.0002 12 62.1002 13.7C62.3002 13.9 62.4002 14.2 62.6002 14.5Z" fill="#043C4D"/>
<path d="M94.69 24.5H92.98L87.835 16.715V24.5H86.125V14.06H87.835L92.98 21.83V14.06H94.69V24.5ZM104.871 16.235V24.5H103.161V23.525C102.891 23.865 102.536 24.135 102.096 24.335C101.666 24.525 101.206 24.62 100.716 24.62C100.066 24.62 99.4805 24.485 98.9605 24.215C98.4505 23.945 98.0455 23.545 97.7455 23.015C97.4555 22.485 97.3105 21.845 97.3105 21.095V16.235H99.0055V20.84C99.0055 21.58 99.1905 22.15 99.5605 22.55C99.9305 22.94 100.436 23.135 101.076 23.135C101.716 23.135 102.221 22.94 102.591 22.55C102.971 22.15 103.161 21.58 103.161 20.84V16.235H104.871ZM107.007 20.36C107.007 19.51 107.177 18.765 107.517 18.125C107.867 17.475 108.347 16.975 108.957 16.625C109.567 16.275 110.267 16.1 111.057 16.1C112.057 16.1 112.882 16.34 113.532 16.82C114.192 17.29 114.637 17.965 114.867 18.845H113.022C112.872 18.435 112.632 18.115 112.302 17.885C111.972 17.655 111.557 17.54 111.057 17.54C110.357 17.54 109.797 17.79 109.377 18.29C108.967 18.78 108.762 19.47 108.762 20.36C108.762 21.25 108.967 21.945 109.377 22.445C109.797 22.945 110.357 23.195 111.057 23.195C112.047 23.195 112.702 22.76 113.022 21.89H114.867C114.627 22.73 114.177 23.4 113.517 23.9C112.857 24.39 112.037 24.635 111.057 24.635C110.267 24.635 109.567 24.46 108.957 24.11C108.347 23.75 107.867 23.25 107.517 22.61C107.177 21.96 107.007 21.21 107.007 20.36ZM118.731 13.4V24.5H117.021V13.4H118.731ZM129.001 20.165C129.001 20.475 128.981 20.755 128.941 21.005H122.626C122.676 21.665 122.921 22.195 123.361 22.595C123.801 22.995 124.341 23.195 124.981 23.195C125.901 23.195 126.551 22.81 126.931 22.04H128.776C128.526 22.8 128.071 23.425 127.411 23.915C126.761 24.395 125.951 24.635 124.981 24.635C124.191 24.635 123.481 24.46 122.851 24.11C122.231 23.75 121.741 23.25 121.381 22.61C121.031 21.96 120.856 21.21 120.856 20.36C120.856 19.51 121.026 18.765 121.366 18.125C121.716 17.475 122.201 16.975 122.821 16.625C123.451 16.275 124.171 16.1 124.981 16.1C125.761 16.1 126.456 16.27 127.066 16.61C127.676 16.95 128.151 17.43 128.491 18.05C128.831 18.66 129.001 19.365 129.001 20.165ZM127.216 19.625C127.206 18.995 126.981 18.49 126.541 18.11C126.101 17.73 125.556 17.54 124.906 17.54C124.316 17.54 123.811 17.73 123.391 18.11C122.971 18.48 122.721 18.985 122.641 19.625H127.216ZM134.719 24.635C133.939 24.635 133.234 24.46 132.604 24.11C131.974 23.75 131.479 23.25 131.119 22.61C130.759 21.96 130.579 21.21 130.579 20.36C130.579 19.52 130.764 18.775 131.134 18.125C131.504 17.475 132.009 16.975 132.649 16.625C133.289 16.275 134.004 16.1 134.794 16.1C135.584 16.1 136.299 16.275 136.939 16.625C137.579 16.975 138.084 17.475 138.454 18.125C138.824 18.775 139.009 19.52 139.009 20.36C139.009 21.2 138.819 21.945 138.439 22.595C138.059 23.245 137.539 23.75 136.879 24.11C136.229 24.46 135.509 24.635 134.719 24.635ZM134.719 23.15C135.159 23.15 135.569 23.045 135.949 22.835C136.339 22.625 136.654 22.31 136.894 21.89C137.134 21.47 137.254 20.96 137.254 20.36C137.254 19.76 137.139 19.255 136.909 18.845C136.679 18.425 136.374 18.11 135.994 17.9C135.614 17.69 135.204 17.585 134.764 17.585C134.324 17.585 133.914 17.69 133.534 17.9C133.164 18.11 132.869 18.425 132.649 18.845C132.429 19.255 132.319 19.76 132.319 20.36C132.319 21.25 132.544 21.94 132.994 22.43C133.454 22.91 134.029 23.15 134.719 23.15ZM143.144 17.63V22.205C143.144 22.515 143.214 22.74 143.354 22.88C143.504 23.01 143.754 23.075 144.104 23.075H145.154V24.5H143.804C143.034 24.5 142.444 24.32 142.034 23.96C141.624 23.6 141.419 23.015 141.419 22.205V17.63H140.444V16.235H141.419V14.18H143.144V16.235H145.154V17.63H143.144ZM148.05 15.14C147.74 15.14 147.48 15.035 147.27 14.825C147.06 14.615 146.955 14.355 146.955 14.045C146.955 13.735 147.06 13.475 147.27 13.265C147.48 13.055 147.74 12.95 148.05 12.95C148.35 12.95 148.605 13.055 148.815 13.265C149.025 13.475 149.13 13.735 149.13 14.045C149.13 14.355 149.025 14.615 148.815 14.825C148.605 15.035 148.35 15.14 148.05 15.14ZM148.89 16.235V24.5H147.18V16.235H148.89ZM151.015 20.33C151.015 19.5 151.185 18.765 151.525 18.125C151.875 17.485 152.345 16.99 152.935 16.64C153.535 16.28 154.2 16.1 154.93 16.1C155.47 16.1 156 16.22 156.52 16.46C157.05 16.69 157.47 17 157.78 17.39V13.4H159.505V24.5H157.78V23.255C157.5 23.655 157.11 23.985 156.61 24.245C156.12 24.505 155.555 24.635 154.915 24.635C154.195 24.635 153.535 24.455 152.935 24.095C152.345 23.725 151.875 23.215 151.525 22.565C151.185 21.905 151.015 21.16 151.015 20.33ZM157.78 20.36C157.78 19.79 157.66 19.295 157.42 18.875C157.19 18.455 156.885 18.135 156.505 17.915C156.125 17.695 155.715 17.585 155.275 17.585C154.835 17.585 154.425 17.695 154.045 17.915C153.665 18.125 153.355 18.44 153.115 18.86C152.885 19.27 152.77 19.76 152.77 20.33C152.77 20.9 152.885 21.4 153.115 21.83C153.355 22.26 153.665 22.59 154.045 22.82C154.435 23.04 154.845 23.15 155.275 23.15C155.715 23.15 156.125 23.04 156.505 22.82C156.885 22.6 157.19 22.28 157.42 21.86C157.66 21.43 157.78 20.93 157.78 20.36ZM169.776 20.165C169.776 20.475 169.756 20.755 169.716 21.005H163.401C163.451 21.665 163.696 22.195 164.136 22.595C164.576 22.995 165.116 23.195 165.756 23.195C166.676 23.195 167.326 22.81 167.706 22.04H169.551C169.301 22.8 168.846 23.425 168.186 23.915C167.536 24.395 166.726 24.635 165.756 24.635C164.966 24.635 164.256 24.46 163.626 24.11C163.006 23.75 162.516 23.25 162.156 22.61C161.806 21.96 161.631 21.21 161.631 20.36C161.631 19.51 161.801 18.765 162.141 18.125C162.491 17.475 162.976 16.975 163.596 16.625C164.226 16.275 164.946 16.1 165.756 16.1C166.536 16.1 167.231 16.27 167.841 16.61C168.451 16.95 168.926 17.43 169.266 18.05C169.606 18.66 169.776 19.365 169.776 20.165ZM167.991 19.625C167.981 18.995 167.756 18.49 167.316 18.11C166.876 17.73 166.331 17.54 165.681 17.54C165.091 17.54 164.586 17.73 164.166 18.11C163.746 18.48 163.496 18.985 163.416 19.625H167.991Z" fill="#374151"/>
<path d="M166.096 8.72V9.092H165.356V11.5H164.9V9.092H164.156V8.72H166.096ZM169.606 8.72V11.5H169.15V9.596L168.302 11.5H167.986L167.134 9.596V11.5H166.678V8.72H167.17L168.146 10.9L169.118 8.72H169.606Z" fill="#374151"/>
</svg>
