<svg width="171" height="35" viewBox="0 0 171 35" fill="none" xmlns="http://www.w3.org/2000/svg">
<path d="M40 33.5C31.3 33.5 26.2 26.5 21.3 19.7C16.5 13.2 12 7 4.9 7H1V0H4.9C15.6 0 21.6 8.3 26.9 15.5C31.2 21.4 34.9 26.4 39.9 26.4C46.1 26.4 48.9 22.4 52.9 15.8C56.7 9.7 61.5 2 71.9 2H79.5V9H71.9C65.7 9 62.9 13 58.9 19.6C55.1 25.8 50.4 33.5 40 33.5Z" fill="#3DC8B1"/>
<path d="M82.9999 33.9996C67.1999 33.9996 61.0999 24.5996 56.1999 16.9996C52.2999 10.9996 49.8999 7.59961 44.8999 7.59961C37.6999 7.59961 34.4999 11.9996 29.7999 19.1996C25.2999 26.0996 20.2999 33.9996 8.8999 33.9996V26.9996C16.0999 26.9996 19.2999 22.5996 23.9999 15.3996C28.4999 8.49961 33.4999 0.599609 44.8999 0.599609C53.8999 0.599609 58.1999 7.29961 62.0999 13.1996C66.8999 20.5996 71.4999 27.6996 84.7999 26.9996L85.0999 33.9996C84.3999 33.9996 83.6999 33.9996 82.9999 33.9996Z" fill="#876AF9"/>
<path d="M29.7001 19.3004C28.4001 21.3004 27.1001 23.4004 25.5001 25.3004C24.0001 23.5004 22.6001 21.6004 21.2001 19.7004L21.1001 19.6004C22.0001 18.3004 22.9001 16.9004 23.9001 15.4004C24.3001 14.7004 24.8001 14.1004 25.2001 13.4004C25.7001 14.1004 26.3001 14.9004 26.8001 15.6004C27.9001 16.9004 28.8001 18.1004 29.7001 19.3004Z" fill="#043C4D"/>
<path d="M62.6002 13.9996C61.4002 15.4996 60.2002 17.3996 58.9002 19.5996C58.7002 19.8996 58.6002 20.0996 58.4002 20.3996C57.6002 19.2996 56.9002 18.0996 56.2002 16.9996C55.5002 15.8996 54.8002 14.8996 54.2002 13.9996C55.5002 11.9996 56.9002 9.89961 58.6002 8.09961C59.9002 9.79961 61.0002 11.4996 62.1002 13.1996C62.3002 13.3996 62.4002 13.6996 62.6002 13.9996Z" fill="#043C4D"/>
<path d="M94.69 24H92.98L87.835 16.215V24H86.125V13.56H87.835L92.98 21.33V13.56H94.69V24ZM104.871 15.735V24H103.161V23.025C102.891 23.365 102.536 23.635 102.096 23.835C101.666 24.025 101.206 24.12 100.716 24.12C100.066 24.12 99.4805 23.985 98.9605 23.715C98.4505 23.445 98.0455 23.045 97.7455 22.515C97.4555 21.985 97.3105 21.345 97.3105 20.595V15.735H99.0055V20.34C99.0055 21.08 99.1905 21.65 99.5605 22.05C99.9305 22.44 100.436 22.635 101.076 22.635C101.716 22.635 102.221 22.44 102.591 22.05C102.971 21.65 103.161 21.08 103.161 20.34V15.735H104.871ZM107.007 19.86C107.007 19.01 107.177 18.265 107.517 17.625C107.867 16.975 108.347 16.475 108.957 16.125C109.567 15.775 110.267 15.6 111.057 15.6C112.057 15.6 112.882 15.84 113.532 16.32C114.192 16.79 114.637 17.465 114.867 18.345H113.022C112.872 17.935 112.632 17.615 112.302 17.385C111.972 17.155 111.557 17.04 111.057 17.04C110.357 17.04 109.797 17.29 109.377 17.79C108.967 18.28 108.762 18.97 108.762 19.86C108.762 20.75 108.967 21.445 109.377 21.945C109.797 22.445 110.357 22.695 111.057 22.695C112.047 22.695 112.702 22.26 113.022 21.39H114.867C114.627 22.23 114.177 22.9 113.517 23.4C112.857 23.89 112.037 24.135 111.057 24.135C110.267 24.135 109.567 23.96 108.957 23.61C108.347 23.25 107.867 22.75 107.517 22.11C107.177 21.46 107.007 20.71 107.007 19.86ZM118.731 12.9V24H117.021V12.9H118.731ZM129.001 19.665C129.001 19.975 128.981 20.255 128.941 20.505H122.626C122.676 21.165 122.921 21.695 123.361 22.095C123.801 22.495 124.341 22.695 124.981 22.695C125.901 22.695 126.551 22.31 126.931 21.54H128.776C128.526 22.3 128.071 22.925 127.411 23.415C126.761 23.895 125.951 24.135 124.981 24.135C124.191 24.135 123.481 23.96 122.851 23.61C122.231 23.25 121.741 22.75 121.381 22.11C121.031 21.46 120.856 20.71 120.856 19.86C120.856 19.01 121.026 18.265 121.366 17.625C121.716 16.975 122.201 16.475 122.821 16.125C123.451 15.775 124.171 15.6 124.981 15.6C125.761 15.6 126.456 15.77 127.066 16.11C127.676 16.45 128.151 16.93 128.491 17.55C128.831 18.16 129.001 18.865 129.001 19.665ZM127.216 19.125C127.206 18.495 126.981 17.99 126.541 17.61C126.101 17.23 125.556 17.04 124.906 17.04C124.316 17.04 123.811 17.23 123.391 17.61C122.971 17.98 122.721 18.485 122.641 19.125H127.216ZM134.719 24.135C133.939 24.135 133.234 23.96 132.604 23.61C131.974 23.25 131.479 22.75 131.119 22.11C130.759 21.46 130.579 20.71 130.579 19.86C130.579 19.02 130.764 18.275 131.134 17.625C131.504 16.975 132.009 16.475 132.649 16.125C133.289 15.775 134.004 15.6 134.794 15.6C135.584 15.6 136.299 15.775 136.939 16.125C137.579 16.475 138.084 16.975 138.454 17.625C138.824 18.275 139.009 19.02 139.009 19.86C139.009 20.7 138.819 21.445 138.439 22.095C138.059 22.745 137.539 23.25 136.879 23.61C136.229 23.96 135.509 24.135 134.719 24.135ZM134.719 22.65C135.159 22.65 135.569 22.545 135.949 22.335C136.339 22.125 136.654 21.81 136.894 21.39C137.134 20.97 137.254 20.46 137.254 19.86C137.254 19.26 137.139 18.755 136.909 18.345C136.679 17.925 136.374 17.61 135.994 17.4C135.614 17.19 135.204 17.085 134.764 17.085C134.324 17.085 133.914 17.19 133.534 17.4C133.164 17.61 132.869 17.925 132.649 18.345C132.429 18.755 132.319 19.26 132.319 19.86C132.319 20.75 132.544 21.44 132.994 21.93C133.454 22.41 134.029 22.65 134.719 22.65ZM143.144 17.13V21.705C143.144 22.015 143.214 22.24 143.354 22.38C143.504 22.51 143.754 22.575 144.104 22.575H145.154V24H143.804C143.034 24 142.444 23.82 142.034 23.46C141.624 23.1 141.419 22.515 141.419 21.705V17.13H140.444V15.735H141.419V13.68H143.144V15.735H145.154V17.13H143.144ZM148.05 14.64C147.74 14.64 147.48 14.535 147.27 14.325C147.06 14.115 146.955 13.855 146.955 13.545C146.955 13.235 147.06 12.975 147.27 12.765C147.48 12.555 147.74 12.45 148.05 12.45C148.35 12.45 148.605 12.555 148.815 12.765C149.025 12.975 149.13 13.235 149.13 13.545C149.13 13.855 149.025 14.115 148.815 14.325C148.605 14.535 148.35 14.64 148.05 14.64ZM148.89 15.735V24H147.18V15.735H148.89ZM151.015 19.83C151.015 19 151.185 18.265 151.525 17.625C151.875 16.985 152.345 16.49 152.935 16.14C153.535 15.78 154.2 15.6 154.93 15.6C155.47 15.6 156 15.72 156.52 15.96C157.05 16.19 157.47 16.5 157.78 16.89V12.9H159.505V24H157.78V22.755C157.5 23.155 157.11 23.485 156.61 23.745C156.12 24.005 155.555 24.135 154.915 24.135C154.195 24.135 153.535 23.955 152.935 23.595C152.345 23.225 151.875 22.715 151.525 22.065C151.185 21.405 151.015 20.66 151.015 19.83ZM157.78 19.86C157.78 19.29 157.66 18.795 157.42 18.375C157.19 17.955 156.885 17.635 156.505 17.415C156.125 17.195 155.715 17.085 155.275 17.085C154.835 17.085 154.425 17.195 154.045 17.415C153.665 17.625 153.355 17.94 153.115 18.36C152.885 18.77 152.77 19.26 152.77 19.83C152.77 20.4 152.885 20.9 153.115 21.33C153.355 21.76 153.665 22.09 154.045 22.32C154.435 22.54 154.845 22.65 155.275 22.65C155.715 22.65 156.125 22.54 156.505 22.32C156.885 22.1 157.19 21.78 157.42 21.36C157.66 20.93 157.78 20.43 157.78 19.86ZM169.776 19.665C169.776 19.975 169.756 20.255 169.716 20.505H163.401C163.451 21.165 163.696 21.695 164.136 22.095C164.576 22.495 165.116 22.695 165.756 22.695C166.676 22.695 167.326 22.31 167.706 21.54H169.551C169.301 22.3 168.846 22.925 168.186 23.415C167.536 23.895 166.726 24.135 165.756 24.135C164.966 24.135 164.256 23.96 163.626 23.61C163.006 23.25 162.516 22.75 162.156 22.11C161.806 21.46 161.631 20.71 161.631 19.86C161.631 19.01 161.801 18.265 162.141 17.625C162.491 16.975 162.976 16.475 163.596 16.125C164.226 15.775 164.946 15.6 165.756 15.6C166.536 15.6 167.231 15.77 167.841 16.11C168.451 16.45 168.926 16.93 169.266 17.55C169.606 18.16 169.776 18.865 169.776 19.665ZM167.991 19.125C167.981 18.495 167.756 17.99 167.316 17.61C166.876 17.23 166.331 17.04 165.681 17.04C165.091 17.04 164.586 17.23 164.166 17.61C163.746 17.98 163.496 18.485 163.416 19.125H167.991Z" fill="white"/>
<path d="M166.096 8.22V8.592H165.356V11H164.9V8.592H164.156V8.22H166.096ZM169.606 8.22V11H169.15V9.096L168.302 11H167.986L167.134 9.096V11H166.678V8.22H167.17L168.146 10.4L169.118 8.22H169.606Z" fill="white"/>
</svg>
