<svg width="85" height="28" viewBox="0 0 85 28" fill="none" xmlns="http://www.w3.org/2000/svg">
<path d="M84.5 23.9391V21.877C84.0331 21.877 83.6541 21.4989 83.6541 21.0331C83.6541 20.5672 84.0331 20.1891 84.5 20.1891V19.0638C84.0331 19.0638 83.6541 18.6857 83.6541 18.2198C83.6541 17.754 84.0331 17.3759 84.5 17.3759V16.2506C84.0331 16.2506 83.6541 15.8725 83.6541 15.4066C83.6541 14.9407 84.0331 14.5626 84.5 14.5626V13.4374C84.0331 13.4374 83.6541 13.0593 83.6541 12.5934C83.6541 12.1275 84.0331 11.7494 84.5 11.7494V10.6241C84.0331 10.6241 83.6541 10.246 83.6541 9.78017C83.6541 9.3143 84.0331 8.9362 84.5 8.9362V7.81091C84.0331 7.81091 83.6541 7.43282 83.6541 6.96695C83.6541 6.50108 84.0331 6.12298 84.5 6.12298V4.06089C82.252 4.06089 80.4303 2.24298 80.4303 0H4.57002C4.57002 2.24298 2.74803 4.06089 0.5 4.06089V6.12298C0.966917 6.12298 1.34586 6.50108 1.34586 6.96695C1.34586 7.43282 0.966917 7.81091 0.5 7.81091V8.9362C0.966917 8.9362 1.34586 9.3143 1.34586 9.78017C1.34586 10.246 0.966917 10.6241 0.5 10.6241V11.7494C0.966917 11.7494 1.34586 12.1275 1.34586 12.5934C1.34586 13.0593 0.966917 13.4374 0.5 13.4374V14.5626C0.966917 14.5626 1.34586 14.9407 1.34586 15.4066C1.34586 15.8725 0.966917 16.2506 0.5 16.2506V17.3759C0.966917 17.3759 1.34586 17.754 1.34586 18.2198C1.34586 18.6857 0.966917 19.0638 0.5 19.0638V20.1891C0.966917 20.1891 1.34586 20.5672 1.34586 21.0331C1.34586 21.4989 0.966917 21.877 0.5 21.877V23.9391C2.74803 23.9391 4.57002 25.7573 4.57002 28H80.43C80.43 25.7573 82.252 23.9391 84.5 23.9391Z" fill="#FF9500"/>
<path d="M21.3435 20H19.1035L14.0315 12.336V20H11.7915V8.816H14.0315L19.1035 16.496V8.816H21.3435V20ZM25.7651 8.832V15.744C25.7651 16.5013 25.9625 17.0827 26.3571 17.488C26.7518 17.8827 27.3065 18.08 28.0211 18.08C28.7465 18.08 29.3065 17.8827 29.7011 17.488C30.0958 17.0827 30.2931 16.5013 30.2931 15.744V8.832H32.5491V15.728C32.5491 16.6773 32.3411 17.4827 31.9251 18.144C31.5198 18.7947 30.9705 19.2853 30.2771 19.616C29.5945 19.9467 28.8318 20.112 27.9891 20.112C27.1571 20.112 26.3998 19.9467 25.7171 19.616C25.0451 19.2853 24.5118 18.7947 24.1171 18.144C23.7225 17.4827 23.5251 16.6773 23.5251 15.728V8.832H25.7651ZM34.1694 14.4C34.1694 13.3013 34.4147 12.32 34.9054 11.456C35.4067 10.5813 36.084 9.904 36.9374 9.424C37.8014 8.93333 38.7667 8.688 39.8334 8.688C41.0814 8.688 42.1747 9.008 43.1134 9.648C44.052 10.288 44.708 11.1733 45.0814 12.304H42.5054C42.2494 11.7707 41.8867 11.3707 41.4174 11.104C40.9587 10.8373 40.4254 10.704 39.8174 10.704C39.1667 10.704 38.5854 10.8587 38.0734 11.168C37.572 11.4667 37.1774 11.8933 36.8894 12.448C36.612 13.0027 36.4734 13.6533 36.4734 14.4C36.4734 15.136 36.612 15.7867 36.8894 16.352C37.1774 16.9067 37.572 17.3387 38.0734 17.648C38.5854 17.9467 39.1667 18.096 39.8174 18.096C40.4254 18.096 40.9587 17.9627 41.4174 17.696C41.8867 17.4187 42.2494 17.0133 42.5054 16.48H45.0814C44.708 17.6213 44.052 18.512 43.1134 19.152C42.1854 19.7813 41.092 20.096 39.8334 20.096C38.7667 20.096 37.8014 19.856 36.9374 19.376C36.084 18.8853 35.4067 18.208 34.9054 17.344C34.4147 16.48 34.1694 15.4987 34.1694 14.4ZM49.2346 18.224H52.9146V20H46.9946V8.832H49.2346V18.224ZM56.5784 10.64V13.44H60.3384V15.216H56.5784V18.176H60.8184V20H54.3384V8.816H60.8184V10.64H56.5784ZM68.038 20.112C66.9927 20.112 66.0327 19.8667 65.158 19.376C64.2833 18.8853 63.59 18.208 63.078 17.344C62.566 16.4693 62.31 15.4827 62.31 14.384C62.31 13.296 62.566 12.32 63.078 11.456C63.59 10.5813 64.2833 9.89867 65.158 9.408C66.0327 8.91733 66.9927 8.672 68.038 8.672C69.094 8.672 70.054 8.91733 70.918 9.408C71.7927 9.89867 72.4807 10.5813 72.982 11.456C73.494 12.32 73.75 13.296 73.75 14.384C73.75 15.4827 73.494 16.4693 72.982 17.344C72.4807 18.208 71.7927 18.8853 70.918 19.376C70.0433 19.8667 69.0833 20.112 68.038 20.112ZM68.038 18.112C68.71 18.112 69.302 17.9627 69.814 17.664C70.326 17.3547 70.726 16.9173 71.014 16.352C71.302 15.7867 71.446 15.1307 71.446 14.384C71.446 13.6373 71.302 12.9867 71.014 12.432C70.726 11.8667 70.326 11.4347 69.814 11.136C69.302 10.8373 68.71 10.688 68.038 10.688C67.366 10.688 66.7687 10.8373 66.246 11.136C65.734 11.4347 65.334 11.8667 65.046 12.432C64.758 12.9867 64.614 13.6373 64.614 14.384C64.614 15.1307 64.758 15.7867 65.046 16.352C65.334 16.9173 65.734 17.3547 66.246 17.664C66.7687 17.9627 67.366 18.112 68.038 18.112Z" fill="white"/>
</svg>
