<svg width="20" height="21" viewBox="0 0 20 21" fill="none" xmlns="http://www.w3.org/2000/svg">
<path d="M3.14835 10.452C2.35832 9.07441 1.97687 7.94956 1.74686 6.80933C1.40668 5.12297 2.18517 3.47566 3.47481 2.42455C4.01987 1.98031 4.64468 2.13209 4.96699 2.71032L5.69465 4.01575C6.2714 5.05046 6.55978 5.56782 6.50258 6.11632C6.44538 6.66481 6.05647 7.11154 5.27864 8.00499L3.14835 10.452ZM3.14835 10.452C4.74741 13.2402 7.25686 15.751 10.0484 17.352M10.0484 17.352C11.4259 18.142 12.5508 18.5234 13.691 18.7535C15.3773 19.0936 17.0247 18.3151 18.0758 17.0255C18.52 16.4805 18.3682 15.8556 17.79 15.5333L16.4846 14.8057C15.4499 14.2289 14.9325 13.9405 14.384 13.9977C13.8355 14.0549 13.3888 14.4439 12.4953 15.2217L10.0484 17.352Z" stroke="#374151" stroke-width="1.25" stroke-linejoin="round"/>
<path d="M11.667 6.1932C12.853 6.69685 13.8035 7.6473 14.3071 8.83332M12.212 2.16666C15.1597 3.01729 17.4829 5.34042 18.3337 8.28801" stroke="#374151" stroke-width="1.25" stroke-linecap="round"/>
</svg>
