<svg width="69" height="68" viewBox="0 0 69 68" fill="none" xmlns="http://www.w3.org/2000/svg">
<rect x="0.333252" width="68" height="68" rx="11.3333" fill="#EBE6FF"/>
<path d="M30.9313 19.6359L43.6409 26.9281M30.9313 19.6359L20.2058 38.149C18.1809 41.6441 19.3826 46.1133 22.8898 48.1311C26.397 50.149 30.8816 48.9515 32.9065 45.4564L35.166 41.5563M30.9313 19.6359L29.6682 18.8892M43.6409 26.9281L40.2297 32.816M43.6409 26.9281L44.9111 27.6593M40.2297 32.816L37.6405 37.2851M40.2297 32.816L36.3642 30.592M37.6405 37.2851L35.166 41.5563M37.6405 37.2851L31.2894 33.6309M35.166 41.5563L31.2179 39.2848M49.4444 38.4076C49.4444 40.1462 48.0913 41.5557 46.4222 41.5557C44.753 41.5557 43.3999 40.1462 43.3999 38.4076C43.3999 37.3197 44.5831 35.8677 45.4688 34.9332C45.9932 34.3799 46.8512 34.3799 47.3755 34.9332C48.2612 35.8677 49.4444 37.3197 49.4444 38.4076Z" stroke="#886BF9" stroke-width="2.5" stroke-linecap="round"/>
</svg>
