<svg width="68" height="68" viewBox="0 0 68 68" fill="none" xmlns="http://www.w3.org/2000/svg">
<rect width="68" height="68" rx="11.3333" fill="#EBE6FF"/>
<path d="M22.247 49.1031V43.739C22.247 41.8178 21.7438 40.8191 20.7549 39.1494C19.5694 37.1478 18.8889 34.812 18.8889 32.3173C18.8889 24.9009 24.9027 18.8887 32.321 18.8887C39.7394 18.8887 45.7531 24.9009 45.7531 32.3173C45.7531 33.1933 45.7531 33.6314 45.7897 33.877C45.877 34.464 46.151 34.9691 46.4205 35.4917L49.1112 40.7102L46.9966 41.7672C46.3837 42.0736 46.0772 42.2267 45.8638 42.5094C45.6503 42.7921 45.5902 43.1112 45.47 43.7494L45.4583 43.8115C45.1829 45.2736 44.879 46.8875 44.0231 47.9057C43.721 48.2652 43.3467 48.5573 42.9246 48.7632C42.2277 49.1031 41.3708 49.1031 39.6572 49.1031C38.8643 49.1031 38.0692 49.1213 37.2765 49.1021C35.3974 49.0564 34.0001 47.4765 34.0001 45.642" stroke="#886BF9" stroke-width="2.5" stroke-linecap="round" stroke-linejoin="round"/>
<path d="M37.6085 31.7806C36.9643 31.7806 36.3767 31.5368 35.9317 31.1359M37.6085 31.7806C37.6085 33.5122 36.6053 35.1568 34.6741 35.1568C32.7429 35.1568 31.7397 36.8014 31.7397 38.533M37.6085 31.7806C40.8563 31.7806 40.8563 26.7164 37.6085 26.7164C37.3134 26.7164 37.0302 26.7675 36.7671 26.8615C36.9257 23.0867 31.4838 22.0619 30.2512 25.5981M31.7397 28.4044C31.7397 27.2348 31.1488 26.204 30.2512 25.5981M30.2512 25.5981C27.4529 23.7095 23.7226 27.0986 25.4973 30.1203C22.5189 30.5668 22.8373 35.1568 25.8709 35.1568C26.7216 35.1568 27.4736 34.7317 27.9288 34.0809" stroke="#886BF9" stroke-width="2.5" stroke-linecap="round" stroke-linejoin="round"/>
</svg>
