<svg width="69" height="68" viewBox="0 0 69 68" fill="none" xmlns="http://www.w3.org/2000/svg">
<rect x="0.333252" width="68" height="68" rx="11.3333" fill="#EBE6FF"/>
<path d="M20.7332 31.6077C20.7332 26.7758 20.7332 24.3598 21.3037 23.547C21.8742 22.7342 24.1458 21.9567 28.6891 20.4015L29.5547 20.1052C31.923 19.2945 33.1071 18.8892 34.3332 18.8892C35.5593 18.8892 36.7435 19.2945 39.1118 20.1052L39.9774 20.4015C44.5206 21.9567 46.7923 22.7342 47.3627 23.547C47.9332 24.3598 47.9332 26.7758 47.9332 31.6077C47.9332 32.3375 47.9332 33.129 47.9332 33.9872C47.9332 42.507 41.5277 46.6415 37.5087 48.397C36.4185 48.8733 35.8734 49.1114 34.3332 49.1114C32.793 49.1114 32.2479 48.8733 31.1577 48.397C27.1388 46.6414 20.7332 42.507 20.7332 33.9872C20.7332 33.129 20.7332 32.3375 20.7332 31.6077Z" stroke="#886BF9" stroke-width="2.5"/>
<path d="M32.6125 28.5049C33.3781 27.1314 33.7609 26.4447 34.3332 26.4447C34.9055 26.4447 35.2884 27.1314 36.054 28.5049L36.252 28.8602C36.4696 29.2505 36.5784 29.4457 36.748 29.5744C36.9176 29.7032 37.1289 29.751 37.5513 29.8466L37.936 29.9336C39.4227 30.27 40.1661 30.4382 40.343 31.0069C40.5198 31.5756 40.013 32.1682 38.9995 33.3535L38.7372 33.6601C38.4492 33.9969 38.3052 34.1653 38.2404 34.3736C38.1756 34.582 38.1974 34.8067 38.241 35.256L38.2806 35.6652C38.4338 37.2465 38.5105 38.0372 38.0474 38.3887C37.5844 38.7402 36.8884 38.4197 35.4964 37.7788L35.1362 37.6129C34.7407 37.4308 34.5429 37.3397 34.3332 37.3397C34.1236 37.3397 33.9258 37.4308 33.5302 37.6129L33.1701 37.7788C31.778 38.4197 31.082 38.7402 30.619 38.3887C30.156 38.0372 30.2326 37.2465 30.3858 35.6652L30.4255 35.256C30.469 34.8067 30.4908 34.582 30.426 34.3736C30.3612 34.1653 30.2172 33.9969 29.9292 33.6601L29.667 33.3535C28.6534 32.1682 28.1466 31.5756 28.3235 31.0069C28.5003 30.4382 29.2437 30.27 30.7304 29.9336L31.1151 29.8466C31.5376 29.751 31.7488 29.7032 31.9184 29.5744C32.088 29.4457 32.1968 29.2505 32.4144 28.8602L32.6125 28.5049Z" stroke="#886BF9" stroke-width="2.5"/>
</svg>
