<svg width="22" height="22" viewBox="0 0 22 22" fill="none" xmlns="http://www.w3.org/2000/svg">
<path d="M2.26538 20.9613L2.28499 20.2115H2.28498L2.26538 20.9613ZM1.03608 19.5662L1.78381 19.6244L1.03608 19.5662ZM3.78943 12.9445L3.2383 12.4358L3.78943 12.9445ZM1.06308 19.2197L0.315342 19.1614H0.315342L1.06308 19.2197ZM9.75063 18.1543L9.23034 17.6141L9.75063 18.1543ZM2.54536 20.9686L2.52576 21.7183H2.52576L2.54536 20.9686ZM20.6159 4.38093L21.2781 4.02866L20.6159 4.38093ZM19.1543 9.09701L18.634 8.55682L19.1543 9.09701ZM20.5703 7.5507L19.9187 7.17934L20.5703 7.5507ZM17.6904 1.39232L17.3263 2.04804L17.6904 1.39232ZM13.0737 2.88545L13.6248 3.39413L13.0737 2.88545ZM14.5874 1.43893L14.204 0.794313V0.794313L14.5874 1.43893ZM19.1543 9.09701L18.634 8.55682L9.23034 17.6141L9.75063 18.1543L10.2709 18.6945L19.6746 9.6372L19.1543 9.09701ZM3.78943 12.9445L4.34056 13.4532L13.6248 3.39413L13.0737 2.88545L12.5226 2.37677L3.2383 12.4358L3.78943 12.9445ZM2.54536 20.9686L2.56497 20.2188L2.28499 20.2115L2.26538 20.9613L2.24577 21.711L2.52576 21.7183L2.54536 20.9686ZM1.03608 19.5662L1.78381 19.6244L1.81081 19.2779L1.06308 19.2197L0.315342 19.1614L0.288345 19.5079L1.03608 19.5662ZM2.26538 20.9613L2.28498 20.2115C2.12547 20.2073 1.99912 20.204 1.89063 20.1983C1.78169 20.1926 1.7103 20.1854 1.66125 20.1772C1.56902 20.1618 1.63793 20.1566 1.7063 20.2342L1.14359 20.73L0.580875 21.2259C0.831323 21.5101 1.14789 21.6123 1.41442 21.6568C1.65767 21.6974 1.95477 21.7034 2.24577 21.711L2.26538 20.9613ZM1.03608 19.5662L0.288345 19.5079C0.265143 19.8057 0.240284 20.1043 0.254069 20.3517C0.268973 20.6191 0.332667 20.9442 0.580875 21.2259L1.14359 20.73L1.7063 20.2342C1.77242 20.3092 1.7575 20.3715 1.75175 20.2682C1.74487 20.1448 1.7573 19.9648 1.78381 19.6244L1.03608 19.5662ZM3.78943 12.9445L3.2383 12.4358C2.06241 13.7098 1.3488 14.4688 0.935825 15.4194L1.62371 15.7182L2.31159 16.0171C2.60008 15.3531 3.09646 14.8011 4.34056 13.4532L3.78943 12.9445ZM1.06308 19.2197L1.81081 19.2779C1.95467 17.4314 2.02254 16.6824 2.31159 16.0171L1.62371 15.7182L0.935825 15.4194C0.523408 16.3686 0.451347 17.4157 0.315342 19.1614L1.06308 19.2197ZM9.75063 18.1543L9.23034 17.6141C7.6878 19.0998 7.05899 19.6868 6.2952 19.9851L6.56806 20.6837L6.84093 21.3823C7.94901 20.9495 8.81795 20.0939 10.2709 18.6945L9.75063 18.1543ZM2.54536 20.9686L2.52576 21.7183C4.52172 21.7705 5.73118 21.8158 6.84093 21.3823L6.56806 20.6837L6.2952 19.9851C5.53307 20.2828 4.68469 20.2743 2.56497 20.2188L2.54536 20.9686ZM19.245 2.79276L18.7091 3.31741C19.5143 4.13994 19.7985 4.4413 19.9538 4.73319L20.6159 4.38093L21.2781 4.02866C20.9958 3.49815 20.512 3.01486 19.781 2.26811L19.245 2.79276ZM19.1543 9.09701L19.6746 9.6372C20.4267 8.91278 20.9244 8.44408 21.2219 7.92206L20.5703 7.5507L19.9187 7.17934C19.7552 7.46624 19.4626 7.75877 18.634 8.55682L19.1543 9.09701ZM20.6159 4.38093L19.9538 4.73319C20.361 5.49847 20.3475 6.42702 19.9187 7.17934L20.5703 7.5507L21.2219 7.92206C21.9056 6.72256 21.9267 5.24777 21.2781 4.02866L20.6159 4.38093ZM19.245 2.79276L19.781 2.26811C19.051 1.52241 18.5767 1.02656 18.0544 0.736599L17.6904 1.39232L17.3263 2.04804C17.6091 2.20504 17.9029 2.49383 18.7091 3.31741L19.245 2.79276ZM13.0737 2.88545L13.6248 3.39413C14.4069 2.54677 14.6924 2.24909 14.9708 2.08354L14.5874 1.43893L14.204 0.794313C13.6905 1.09971 13.2308 1.6094 12.5226 2.37677L13.0737 2.88545ZM17.6904 1.39232L18.0544 0.736599C16.8496 0.0677216 15.3886 0.089799 14.204 0.794313L14.5874 1.43893L14.9708 2.08354C15.6969 1.65172 16.5886 1.63846 17.3263 2.04804L17.6904 1.39232ZM12 3L11.4697 3.53033L18.4697 10.5303L19 10L19.5303 9.46967L12.5303 2.46967L12 3Z" fill="#374151"/>
<path d="M13 21L21 21" stroke="#374151" stroke-width="1.5" stroke-linecap="round" stroke-linejoin="round"/>
</svg>
