<svg width="65" height="64" viewBox="0 0 65 64" fill="none" xmlns="http://www.w3.org/2000/svg">
<rect x="0.666626" width="64" height="64" rx="10.6667" fill="#EBE6FF"/>
<path d="M35.8813 24.3109L36.6218 25.1244V25.1244L35.8813 24.3109ZM20.9527 24.3109L20.2122 25.1244H20.2122L20.9527 24.3109ZM36.5213 25.3258C36.7469 24.7618 36.4725 24.1216 35.9085 23.896C35.3444 23.6704 34.7043 23.9447 34.4786 24.5088L35.5 24.9173L36.5213 25.3258ZM33.6551 29.5293L32.6338 29.1208L33.6551 29.5293ZM30.4451 33.4668L31.0511 34.3849H31.0511L30.4451 33.4668ZM28.3736 34.834L27.7591 35.7464L28.3674 36.156L28.9795 35.7521L28.3736 34.834ZM26.3381 33.4631L26.9526 32.5508H26.9526L26.3381 33.4631ZM23.1943 29.5698L24.2156 29.1613L23.1943 29.5698ZM22.3546 24.5088C22.129 23.9447 21.4888 23.6704 20.9248 23.896C20.3607 24.1216 20.0863 24.7618 20.312 25.3258L21.3333 24.9173L22.3546 24.5088ZM24.3199 31.8769L23.4641 32.5679L24.3199 31.8769ZM36.917 20.7807H38.017C38.017 18.5874 36.2976 16.734 34.0853 16.734V17.834V18.934C35.0008 18.934 35.817 19.7191 35.817 20.7807H36.917ZM19.917 20.7804H21.017C21.017 19.719 21.833 18.934 22.7484 18.934V17.834V16.734C20.5363 16.734 18.817 18.5873 18.817 20.7804H19.917ZM35.8813 24.3109L35.1408 23.4975C33.3409 25.136 32.0671 26.2927 30.9828 27.0523C29.9231 27.7947 29.167 28.0673 28.417 28.0673V29.1673V30.2673C29.7964 30.2673 30.9942 29.7305 32.2451 28.8541C33.4715 27.9949 34.8652 26.7234 36.6218 25.1244L35.8813 24.3109ZM20.9527 24.3109L20.2122 25.1244C21.9688 26.7234 23.3625 27.9949 24.5889 28.8541C25.8398 29.7305 27.0376 30.2673 28.417 30.2673V29.1673V28.0673C27.667 28.0673 26.9109 27.7947 25.8512 27.0523C24.7669 26.2927 23.4931 25.136 21.6932 23.4975L20.9527 24.3109ZM35.8813 24.3109L36.6218 25.1244C38.1261 23.755 38.017 22.0192 38.017 20.7807H36.917H35.817C35.817 22.2314 35.8097 22.8886 35.1408 23.4975L35.8813 24.3109ZM20.9527 24.3109L21.6932 23.4975C21.0242 22.8885 21.017 22.2312 21.017 20.7804H19.917H18.817C18.817 22.0189 18.7078 23.7549 20.2122 25.1244L20.9527 24.3109ZM28.4166 34.834H27.3166V39.792H28.4166H29.5166V34.834H28.4166ZM41.1676 39.792H42.2676V37.6673H41.1676H40.0676V39.792H41.1676ZM34.7921 46.1674V47.2674C38.9207 47.2674 42.2676 43.9206 42.2676 39.792H41.1676H40.0676C40.0676 42.7055 37.7057 45.0674 34.7921 45.0674V46.1674ZM28.4166 39.792H27.3166C27.3166 43.9206 30.6635 47.2674 34.7921 47.2674V46.1674V45.0674C31.8785 45.0674 29.5166 42.7055 29.5166 39.792H28.4166ZM35.5 24.9173L34.4786 24.5088L32.6338 29.1208L33.6551 29.5293L34.6765 29.9379L36.5213 25.3258L35.5 24.9173ZM30.4451 33.4668L29.8392 32.5487L27.7676 33.9159L28.3736 34.834L28.9795 35.7521L31.0511 34.3849L30.4451 33.4668ZM28.3736 34.834L28.988 33.9216L26.9526 32.5508L26.3381 33.4631L25.7237 34.3755L27.7591 35.7464L28.3736 34.834ZM23.1943 29.5698L24.2156 29.1613L22.3546 24.5088L21.3333 24.9173L20.312 25.3258L22.173 29.9784L23.1943 29.5698ZM26.3381 33.4631L26.9526 32.5508C25.8209 31.7886 25.4497 31.525 25.1757 31.1858L24.3199 31.8769L23.4641 32.5679C23.9939 33.2241 24.7003 33.6863 25.7237 34.3755L26.3381 33.4631ZM23.1943 29.5698L22.173 29.9784C22.6312 31.124 22.9343 31.9118 23.4641 32.5679L24.3199 31.8769L25.1757 31.1858C24.9018 30.8466 24.7224 30.4282 24.2156 29.1613L23.1943 29.5698ZM33.6551 29.5293L32.6338 29.1208C32.1187 30.4085 31.9362 30.8337 31.6563 31.177L32.5089 31.8721L33.3615 32.5671C33.9028 31.9031 34.2107 31.1022 34.6765 29.9379L33.6551 29.5293ZM30.4451 33.4668L31.0511 34.3849C32.0977 33.6941 32.8201 33.2312 33.3615 32.5671L32.5089 31.8721L31.6563 31.177C31.3764 31.5203 30.9968 31.7847 29.8392 32.5487L30.4451 33.4668ZM45.4166 33.4173H44.3166C44.3166 35.1573 42.907 36.5673 41.1676 36.5673V37.6673V38.7673C44.1226 38.7673 46.5166 36.3717 46.5166 33.4173H45.4166ZM41.1676 37.6673V36.5673C39.4276 36.5673 38.0166 35.1567 38.0166 33.4173H36.9166H35.8166C35.8166 36.3724 38.2132 38.7673 41.1676 38.7673V37.6673ZM36.9166 33.4173H38.0166C38.0166 31.6776 39.4269 30.2673 41.1666 30.2673V29.1673V28.0673C38.2119 28.0673 35.8166 30.4626 35.8166 33.4173H36.9166ZM41.1666 29.1673V30.2673C42.9063 30.2673 44.3166 31.6776 44.3166 33.4173H45.4166H46.5166C46.5166 30.4626 44.1213 28.0673 41.1666 28.0673V29.1673Z" fill="#886BF9"/>
<path d="M41.178 33.417L41.1652 33.417" stroke="#886BF9" stroke-width="2.83333" stroke-linecap="round" stroke-linejoin="round"/>
</svg>
