<svg width="65" height="64" viewBox="0 0 65 64" fill="none" xmlns="http://www.w3.org/2000/svg">
<rect x="0.666626" width="64" height="64" rx="10.6667" fill="#EBE6FF"/>
<path d="M47.6 26.6885C44.943 29.3455 40.6352 29.3455 37.9782 26.6885C35.3212 24.0314 35.3212 19.7235 37.9782 17.0664M17.7333 37.311C20.3903 34.654 24.6981 34.654 27.3551 37.311C30.0121 39.9681 30.0121 44.276 27.3551 46.9331M40.1328 31.9998C40.1328 36.1235 36.79 39.4665 32.6663 39.4665C28.5427 39.4665 25.1998 36.1235 25.1998 31.9998C25.1998 27.876 28.5427 24.5331 32.6663 24.5331C36.79 24.5331 40.1328 27.876 40.1328 31.9998Z" stroke="#886BF9" stroke-width="2.13333" stroke-linecap="round"/>
</svg>
