<svg width="64" height="64" viewBox="0 0 64 64" fill="none" xmlns="http://www.w3.org/2000/svg">
<rect width="64" height="64" rx="10.6667" fill="#EBE6FF"/>
<path d="M26.3333 22.084C22.4213 22.084 19.25 26.3537 19.25 30.6234C19.25 35.6047 19.9583 39.1628 22.7917 43.4325C24.9456 46.3177 27.8212 47.0411 30.8864 45.0203C31.5406 44.5891 32.4594 44.5891 33.1136 45.0203C36.1788 47.0411 39.0544 46.3177 41.2083 43.4325C44.0417 39.1628 44.75 35.6047 44.75 30.6234C44.75 26.3537 41.5787 22.084 37.6667 22.084C35.6473 22.084 33.8253 23.1959 32.535 24.3967C32.2352 24.6758 31.7648 24.6758 31.465 24.3967C30.1747 23.1959 28.3527 22.084 26.3333 22.084Z" stroke="#886BF9" stroke-width="2.2" stroke-linejoin="round"/>
<path d="M23.5 32.0007C23.5 29.6865 24.6655 27.3724 26.3333 26.334" stroke="#886BF9" stroke-width="2.2" stroke-linecap="round" stroke-linejoin="round"/>
<path d="M32 23.5007C32 21.6118 32.85 17.834 36.25 17.834" stroke="#886BF9" stroke-width="2.2" stroke-linecap="round" stroke-linejoin="round"/>
</svg>
