<svg width="64" height="64" viewBox="0 0 64 64" fill="none" xmlns="http://www.w3.org/2000/svg">
<rect width="64" height="64" rx="10.6667" fill="#EBE6FF"/>
<path d="M34.6372 34.9818L33.7887 35.6818L34.6372 34.9818ZM29.639 28.9233L28.7905 29.6233L29.639 28.9233ZM38.2418 33.4071L39.0594 34.1429V34.1429L38.2418 33.4071ZM36.7836 35.0272L35.966 34.2913L35.966 34.2914L36.7836 35.0272ZM27.5692 28.799L28.3278 29.5955L28.3278 29.5955L27.5692 28.799ZM25.4394 30.8274L26.198 31.6239L26.198 31.6239L25.4394 30.8274ZM24.1475 31.8478L23.739 30.8265L23.739 30.8265L24.1475 31.8478ZM39.5902 32.1836L40.0377 33.1884L40.0377 33.1884L39.5902 32.1836ZM28.651 28.0802L28.7169 26.9822H28.7169L28.651 28.0802ZM35.6914 35.8732L35.7151 34.7734H35.7151L35.6914 35.8732ZM27.6958 42.4419L28.391 41.5894L27.6958 42.4419ZM32 22.7899L31.1947 23.5392C31.4028 23.7629 31.6945 23.8899 32 23.8899C32.3055 23.8899 32.5972 23.7629 32.8053 23.5392L32 22.7899ZM36.3042 42.4419L36.9994 43.2944L36.3042 42.4419ZM34.6372 34.9818L35.4857 34.2817L30.4875 28.2233L29.639 28.9233L28.7905 29.6233L33.7887 35.6818L34.6372 34.9818ZM44.75 31.9998V30.8998H41.4011V31.9998V33.0998H44.75V31.9998ZM38.2418 33.4071L37.4241 32.6712L35.966 34.2913L36.7836 35.0272L37.6013 35.7631L39.0594 34.1429L38.2418 33.4071ZM27.5692 28.799L26.8106 28.0024L24.6808 30.0308L25.4394 30.8274L26.198 31.6239L28.3278 29.5955L27.5692 28.799ZM22.5083 31.9998V30.8998H19.25V31.9998V33.0998H22.5083V31.9998ZM25.4394 30.8274L24.6808 30.0308C24.0103 30.6693 23.8766 30.7714 23.739 30.8265L24.1475 31.8478L24.5561 32.8691C25.1784 32.6202 25.6527 32.1433 26.198 31.6239L25.4394 30.8274ZM22.5083 31.9998V33.0998C23.2614 33.0998 23.9338 33.118 24.5561 32.8691L24.1475 31.8478L23.739 30.8265C23.6014 30.8815 23.4342 30.8998 22.5083 30.8998V31.9998ZM41.4011 31.9998V30.8998C40.5662 30.8998 39.8189 30.8776 39.1427 31.1787L39.5902 32.1836L40.0377 33.1884C40.1869 33.122 40.3718 33.0998 41.4011 33.0998V31.9998ZM38.2418 33.4071L39.0594 34.1429C39.7482 33.3776 39.8885 33.2549 40.0377 33.1884L39.5902 32.1836L39.1427 31.1787C38.4664 31.4799 37.9829 32.0504 37.4241 32.6712L38.2418 33.4071ZM29.639 28.9233L30.4875 28.2233C30.2813 27.9733 30.0559 27.6962 29.8352 27.4931C29.5911 27.2685 29.2271 27.0129 28.7169 26.9822L28.651 28.0802L28.585 29.1783C28.4972 29.173 28.4206 29.1476 28.367 29.12C28.3229 29.0972 28.3137 29.0828 28.3454 29.112C28.3775 29.1415 28.4273 29.1929 28.5064 29.2839C28.585 29.3743 28.6744 29.4826 28.7905 29.6233L29.639 28.9233ZM27.5692 28.799L28.3278 29.5955C28.4599 29.4698 28.5616 29.3729 28.6505 29.2925C28.74 29.2117 28.7955 29.1666 28.8309 29.1411C28.8659 29.1159 28.855 29.1292 28.8085 29.1465C28.752 29.1675 28.6729 29.1835 28.585 29.1783L28.651 28.0802L28.7169 26.9822C28.2068 26.9516 27.8148 27.1618 27.5456 27.3556C27.3021 27.5308 27.0453 27.7789 26.8106 28.0024L27.5692 28.799ZM34.6372 34.9818L33.7887 35.6818C34.0107 35.9508 34.2498 36.2448 34.4828 36.4578C34.7386 36.6917 35.1264 36.9613 35.6678 36.9729L35.6914 35.8732L35.7151 34.7734C35.8087 34.7754 35.891 34.8005 35.9482 34.829C35.9946 34.8521 36.0031 34.8668 35.9673 34.8341C35.9314 34.8013 35.8769 34.745 35.7914 34.6468C35.7065 34.5492 35.6101 34.4324 35.4857 34.2817L34.6372 34.9818ZM36.7836 35.0272L35.966 34.2914C35.8352 34.4367 35.7337 34.5493 35.6446 34.6433C35.555 34.7378 35.4979 34.7918 35.4606 34.8231C35.4233 34.8544 35.4324 34.84 35.4797 34.819C35.538 34.793 35.6214 34.7714 35.7151 34.7734L35.6914 35.8732L35.6678 36.9729C36.2094 36.9846 36.6085 36.7316 36.8741 36.509C37.116 36.3061 37.3677 36.0226 37.6013 35.7631L36.7836 35.0272ZM27.6958 42.4419L28.391 41.5894C26.3381 39.9153 23.9421 37.721 22.0687 35.3199C20.1744 32.8922 18.9333 30.4037 18.9333 28.119H17.8333H16.7333C16.7333 31.1431 18.3394 34.1166 20.3342 36.6733C22.35 39.2567 24.8853 41.5694 27.0006 43.2943L27.6958 42.4419ZM17.8333 28.119H18.9333C18.9333 24.2629 20.7095 21.6922 22.9487 20.7607C25.1579 19.8416 28.23 20.353 31.1947 23.5392L32 22.7899L32.8053 22.0406C29.3952 18.3757 25.3841 17.3647 22.1036 18.7294C18.8531 20.0817 16.7333 23.6012 16.7333 28.119H17.8333ZM36.3042 42.4419L36.9994 43.2944C39.1148 41.5694 41.6501 39.2568 43.6658 36.6733C45.6607 34.1166 47.2667 31.1431 47.2667 28.1189H46.1667H45.0667C45.0667 30.4037 43.8256 32.8922 41.9313 35.32C40.0579 37.721 37.662 39.9153 35.6091 41.5894L36.3042 42.4419ZM46.1667 28.1189H47.2667C47.2667 23.601 45.1469 20.0816 41.8964 18.7293C38.6159 17.3646 34.6048 18.3757 31.1947 22.0406L32 22.7899L32.8053 23.5392C35.77 20.353 38.8422 19.8415 41.0514 20.7606C43.2905 21.6921 45.0667 24.2628 45.0667 28.1189H46.1667ZM27.6958 42.4419L27.0006 43.2943C28.7981 44.7601 30.0588 45.85 32 45.85L32 44.75L32 43.65C30.9938 43.65 30.3675 43.2011 28.391 41.5894L27.6958 42.4419ZM36.3042 42.4419L35.6091 41.5894C33.6326 43.2011 33.0063 43.65 32 43.65L32 44.75L32 45.85C33.9412 45.85 35.2019 44.7601 36.9994 43.2944L36.3042 42.4419Z" fill="#886BF9"/>
</svg>
