<svg width="65" height="64" viewBox="0 0 65 64" fill="none" xmlns="http://www.w3.org/2000/svg">
<rect x="0.666626" width="64" height="64" rx="10.6667" fill="#EBE6FF"/>
<path d="M41.2361 39.0145C40.8065 38.5849 40.1101 38.5849 39.6805 39.0145C39.2509 39.4441 39.2509 40.1406 39.6805 40.5701L40.4583 39.7923L41.2361 39.0145ZM40.4583 39.7923L39.6805 40.5701L46.0555 46.9451L46.8333 46.1673L47.6111 45.3895L41.2361 39.0145L40.4583 39.7923ZM44 30.584H45.1C45.1 22.9348 38.8991 16.734 31.25 16.734V17.834V18.934C37.6841 18.934 42.9 24.1499 42.9 30.584H44ZM31.25 17.834V16.734C23.6008 16.734 17.4 22.9348 17.4 30.584H18.5H19.6C19.6 24.1499 24.8159 18.934 31.25 18.934V17.834ZM18.5 30.584H17.4C17.4 38.2331 23.6008 44.434 31.25 44.434V43.334V42.234C24.8159 42.234 19.6 37.0181 19.6 30.584H18.5ZM31.25 43.334V44.434C38.8991 44.434 45.1 38.2331 45.1 30.584H44H42.9C42.9 37.0181 37.6841 42.234 31.25 42.234V43.334Z" fill="#886BF9"/>
</svg>
