<svg width="64" height="64" viewBox="0 0 64 64" fill="none" xmlns="http://www.w3.org/2000/svg">
<rect width="64" height="64" rx="10.6667" fill="#EBE6FF"/>
<path d="M31.9976 17.833C27.9608 17.833 25.3434 20.6932 22.2479 21.7358C20.9892 22.1597 20.3599 22.3716 20.1052 22.6704C19.8505 22.9692 19.7759 23.4058 19.6268 24.279C18.0306 33.6232 21.5194 42.262 29.8396 45.6244C30.7336 45.9857 31.1806 46.1664 32.002 46.1663C32.8234 46.1663 33.2704 45.9857 34.1643 45.6244C42.484 42.2619 45.9695 33.6231 44.3728 24.279C44.2236 23.4057 44.149 22.969 43.8942 22.6702C43.6395 22.3714 43.0102 22.1596 41.7516 21.7359C38.6549 20.6935 36.0345 17.833 31.9976 17.833Z" stroke="#886BF9" stroke-width="2.2" stroke-linecap="round" stroke-linejoin="round"/>
</svg>
