<svg width="65" height="64" viewBox="0 0 65 64" fill="none" xmlns="http://www.w3.org/2000/svg">
<rect x="0.333252" width="64" height="64" rx="10.6667" fill="#EBE6FF"/>
<g clip-path="url(#clip0_1286_3012)">
<path d="M45.459 34.7089L44.7879 35.5804L45.459 34.7089ZM47.4269 38.8973L48.281 39.5905V39.5905L47.4269 38.8973ZM44.763 39.3993C44.1555 39.3993 43.663 39.8918 43.663 40.4993C43.663 41.1069 44.1555 41.5993 44.763 41.5993V40.4993V39.3993ZM42.3489 32.3205C41.7439 32.2658 41.209 32.7119 41.1543 33.3169C41.0995 33.9219 41.5456 34.4568 42.1507 34.5115L42.2498 33.416L42.3489 32.3205ZM19.2072 34.7089L19.8784 35.5804L19.2072 34.7089ZM17.2393 38.8973L16.3853 39.5905L16.3853 39.5905L17.2393 38.8973ZM19.9033 41.5993C20.5108 41.5993 21.0033 41.1069 21.0033 40.4993C21.0033 39.8918 20.5108 39.3993 19.9033 39.3993V40.4993V41.5993ZM22.5156 34.5115C23.1206 34.4568 23.5667 33.9219 23.512 33.3169C23.4573 32.7119 22.9224 32.2658 22.3174 32.3205L22.4165 33.416L22.5156 34.5115ZM23.1248 31.6827C23.7323 31.6827 24.2248 31.1902 24.2248 30.5827C24.2248 29.9752 23.7323 29.4827 23.1248 29.4827V30.5827V31.6827ZM23.1248 24.5993C23.7323 24.5993 24.2248 24.1069 24.2248 23.4993C24.2248 22.8918 23.7323 22.3993 23.1248 22.3993V23.4993V24.5993ZM26.7852 36.4069L26.2066 35.4713L26.7852 36.4069ZM37.8811 36.4069L38.4596 35.4713L37.8811 36.4069ZM23.8539 41.4165L23.0803 42.1985L23.8539 41.4165ZM40.8123 41.4165L40.0386 40.6346L40.8123 41.4165ZM45.459 34.7089L44.7879 35.5804C45.3861 36.041 46.0734 36.4754 46.5262 37.0486C46.7333 37.3107 46.8037 37.5033 46.8147 37.6341C46.8229 37.7303 46.8117 37.9099 46.5728 38.2041L47.4269 38.8973L48.281 39.5905C48.8182 38.9287 49.0704 38.2002 49.0069 37.4488C48.9463 36.732 48.61 36.1372 48.2525 35.6848C47.5764 34.8289 46.5038 34.125 46.1302 33.8373L45.459 34.7089ZM47.4269 38.8973L46.5728 38.2041C45.873 39.0663 45.3115 39.3993 44.763 39.3993V40.4993V41.5993C46.3376 41.5993 47.4647 40.5963 48.281 39.5905L47.4269 38.8973ZM42.2498 33.416L42.1507 34.5115C43.0503 34.5929 43.9569 34.9405 44.7879 35.5804L45.459 34.7089L46.1302 33.8373C44.9854 32.9558 43.6859 32.4414 42.3489 32.3205L42.2498 33.416ZM44.3748 27.041H43.2748C43.2748 28.3895 42.1816 29.4827 40.8331 29.4827V30.5827V31.6827C43.3966 31.6827 45.4748 29.6045 45.4748 27.041H44.3748ZM40.8331 23.4993V24.5993C42.1816 24.5993 43.2748 25.6925 43.2748 27.041H44.3748H45.4748C45.4748 24.4775 43.3966 22.3993 40.8331 22.3993V23.4993ZM19.2072 34.7089L18.5361 33.8373C18.1625 34.125 17.0899 34.8289 16.4137 35.6848C16.0563 36.1372 15.72 36.732 15.6594 37.4488C15.5959 38.2002 15.8481 38.9287 16.3853 39.5905L17.2393 38.8973L18.0934 38.2041C17.8546 37.9099 17.8434 37.7303 17.8515 37.6341C17.8626 37.5033 17.933 37.3107 18.1401 37.0486C18.5929 36.4754 19.2802 36.041 19.8784 35.5804L19.2072 34.7089ZM17.2393 38.8973L16.3853 39.5905C17.2016 40.5963 18.3287 41.5993 19.9033 41.5993V40.4993V39.3993C19.3548 39.3993 18.7932 39.0663 18.0934 38.2041L17.2393 38.8973ZM22.4165 33.416L22.3174 32.3205C20.9803 32.4414 19.6809 32.9558 18.5361 33.8373L19.2072 34.7089L19.8784 35.5804C20.7094 34.9405 21.6159 34.5929 22.5156 34.5115L22.4165 33.416ZM19.5831 27.041H18.4831C18.4831 29.6045 20.5613 31.6827 23.1248 31.6827V30.5827V29.4827C21.7763 29.4827 20.6831 28.3895 20.6831 27.041H19.5831ZM23.1248 23.4993V22.3993C20.5613 22.3993 18.4831 24.4775 18.4831 27.041H19.5831H20.6831C20.6831 25.6925 21.7763 24.5993 23.1248 24.5993V23.4993ZM26.7852 36.4069L27.3637 37.3425C30.4036 35.4628 34.2627 35.4628 37.3025 37.3425L37.8811 36.4069L38.4596 35.4713C34.7106 33.1531 29.9556 33.1532 26.2066 35.4713L26.7852 36.4069ZM27.8219 43.3327V44.4327H36.8443V43.3327V42.2327H27.8219V43.3327ZM23.8539 41.4165L24.6276 40.6346C24.2163 40.2277 24.218 39.997 24.2271 39.91C24.2428 39.7613 24.3495 39.5113 24.694 39.1612C25.4117 38.4317 26.5209 37.8636 27.3637 37.3425L26.7852 36.4069L26.2066 35.4713C25.6019 35.8452 24.0897 36.6384 23.1257 37.6183C22.6294 38.1228 22.1303 38.8145 22.0392 39.6797C21.9417 40.6065 22.3357 41.4619 23.0803 42.1985L23.8539 41.4165ZM37.8811 36.4069L37.3025 37.3425C38.1453 37.8635 39.2546 38.4317 39.9722 39.1612C40.3167 39.5113 40.4234 39.7613 40.4391 39.91C40.4482 39.997 40.4499 40.2277 40.0386 40.6346L40.8123 41.4165L41.5859 42.1985C42.3305 41.4619 42.7246 40.6065 42.627 39.6797C42.5359 38.8145 42.0368 38.1228 41.5405 37.6183C40.5765 36.6384 39.0644 35.8452 38.4596 35.4713L37.8811 36.4069ZM40.8123 41.4165L40.0386 40.6346C39.0041 41.6581 38.0099 42.2327 36.8443 42.2327V43.3327V44.4327C38.841 44.4327 40.3621 43.4093 41.5859 42.1985L40.8123 41.4165ZM23.8539 41.4165L23.0803 42.1985C24.3041 43.4093 25.8252 44.4327 27.8219 44.4327V43.3327V42.2327C26.6563 42.2327 25.6621 41.6581 24.6276 40.6346L23.8539 41.4165ZM37.2914 25.6243H36.1914C36.1914 27.7552 34.464 29.4827 32.3331 29.4827V30.5827V31.6827C35.679 31.6827 38.3914 28.9703 38.3914 25.6243H37.2914ZM32.3331 30.5827V29.4827C30.2022 29.4827 28.4748 27.7552 28.4748 25.6243H27.3748H26.2748C26.2748 28.9703 28.9872 31.6827 32.3331 31.6827V30.5827ZM27.3748 25.6243H28.4748C28.4748 23.4934 30.2022 21.766 32.3331 21.766V20.666V19.566C28.9872 19.566 26.2748 22.2784 26.2748 25.6243H27.3748ZM32.3331 20.666V21.766C34.464 21.766 36.1914 23.4935 36.1914 25.6243H37.2914H38.3914C38.3914 22.2784 35.679 19.566 32.3331 19.566V20.666Z" fill="#886BF9"/>
</g>
<defs>
<clipPath id="clip0_1286_3012">
<rect width="34" height="34" fill="white" transform="translate(15.3333 15)"/>
</clipPath>
</defs>
</svg>
