<svg width="65" height="64" viewBox="0 0 65 64" fill="none" xmlns="http://www.w3.org/2000/svg">
<rect x="0.333252" width="64" height="64" rx="10.6667" fill="#EBE6FF"/>
<path d="M29.4999 37.667C30.2083 38.092 31.1999 38.3753 32.3333 38.3753C33.4666 38.3753 34.4583 38.092 35.1666 37.667" stroke="#886BF9" stroke-width="2.4" stroke-linecap="round" stroke-linejoin="round"/>
<path d="M36.5833 32H36.5974" stroke="#886BF9" stroke-width="2.4" stroke-linecap="round" stroke-linejoin="round"/>
<path d="M42.7882 24.6518C43.7815 26.0959 44.4663 27.7293 44.7999 29.45C45.2789 29.682 45.6829 30.0443 45.9656 30.4952C46.2483 30.9462 46.3982 31.4677 46.3982 32C46.3982 32.5323 46.2483 33.0538 45.9656 33.5047C45.6829 33.9557 45.2789 34.318 44.7999 34.55C44.1883 37.4024 42.617 39.9589 40.3483 41.7928C38.0795 43.6266 35.2505 44.627 32.3332 44.627C29.416 44.627 26.5869 43.6266 24.3182 41.7928C22.0494 39.9589 20.4781 37.4024 19.8666 34.55C19.3875 34.318 18.9835 33.9557 18.7009 33.5047C18.4182 33.0538 18.2682 32.5323 18.2682 32C18.2682 31.4677 18.4182 30.9462 18.7009 30.4952C18.9835 30.0443 19.3875 29.682 19.8666 29.45C20.4534 26.5749 22.0141 23.9902 24.2852 22.132C26.5563 20.2738 29.3988 19.2559 32.3332 19.25C35.1666 19.25 37.2916 20.8083 37.2916 22.7917C37.2916 24.775 36.0166 26.3333 34.4582 26.3333C33.3249 26.3333 32.3332 25.7667 32.3332 24.9167" stroke="#886BF9" stroke-width="2.4" stroke-linecap="round" stroke-linejoin="round"/>
<path d="M28.0833 32H28.0974" stroke="#886BF9" stroke-width="2.4" stroke-linecap="round" stroke-linejoin="round"/>
</svg>
