<svg width="60" height="60" viewBox="0 0 60 60" fill="none" xmlns="http://www.w3.org/2000/svg">
<rect width="60" height="60" rx="10" fill="#EBE6FF"/>
<path d="M29.5 36.3C29.5 36.8523 29.9477 37.3 30.5 37.3C31.0523 37.3 31.5 36.8523 31.5 36.3H30.5H29.5ZM31.5 33.5C31.5 32.9477 31.0523 32.5 30.5 32.5C29.9477 32.5 29.5 32.9477 29.5 33.5H30.5H31.5ZM41.615 30.2174L42.6056 30.0804L41.615 30.2174ZM36.883 25.9387L36.9277 24.9397L36.883 25.9387ZM36.883 43.8613L36.8383 42.8623L36.883 43.8613ZM41.615 39.5826L40.6244 39.4457L41.615 39.5826ZM24.117 25.9387L24.1617 26.9377L24.117 25.9387ZM19.385 30.2174L20.3756 30.3543L19.385 30.2174ZM24.117 43.8613L24.0723 44.8603L24.117 43.8613ZM19.385 39.5826L20.3756 39.4457L19.385 39.5826ZM23.0313 25.8C23.0313 26.3523 23.479 26.8 24.0313 26.8C24.5835 26.8 25.0313 26.3523 25.0313 25.8H24.0313H23.0313ZM35.9688 25.8C35.9688 26.3523 36.4165 26.8 36.9688 26.8C37.521 26.8 37.9688 26.3523 37.9688 25.8H36.9688H35.9688ZM30.5 36.3H31.5V33.5H30.5H29.5V36.3H30.5ZM30.5 44V43C28.2365 43 26.1828 42.9528 24.1617 42.8623L24.117 43.8613L24.0723 44.8603C26.124 44.9521 28.2075 45 30.5 45V44ZM36.883 43.8613L36.8383 42.8623C34.8172 42.9528 32.7635 43 30.5 43V44V45C32.7925 45 34.876 44.9521 36.9277 44.8603L36.883 43.8613ZM41.615 39.5826L42.6056 39.7196C42.8185 38.1794 43 36.5618 43 34.9H42H41C41 36.4235 40.8335 37.9337 40.6244 39.4457L41.615 39.5826ZM42 34.9H43C43 33.2381 42.8185 31.6206 42.6056 30.0804L41.615 30.2174L40.6244 30.3543C40.8335 31.8663 41 33.3765 41 34.9H42ZM30.5 25.8V26.8C32.7635 26.8 34.8172 26.8472 36.8383 26.9377L36.883 25.9387L36.9277 24.9397C34.876 24.8479 32.7925 24.8 30.5 24.8V25.8ZM24.117 25.9387L24.1617 26.9377C26.1828 26.8472 28.2365 26.8 30.5 26.8V25.8V24.8C28.2075 24.8 26.124 24.8479 24.0723 24.9397L24.117 25.9387ZM19.385 30.2174L18.3944 30.0804C18.1815 31.6206 18 33.2381 18 34.9H19H20C20 33.3765 20.1665 31.8663 20.3756 30.3543L19.385 30.2174ZM19 34.9H18C18 36.5619 18.1815 38.1794 18.3944 39.7196L19.385 39.5826L20.3756 39.4457C20.1665 37.9337 20 36.4235 20 34.9H19ZM41.615 30.2174L42.6056 30.0804C42.216 27.2621 39.8277 25.0696 36.9277 24.9397L36.883 25.9387L36.8383 26.9377C38.7785 27.0246 40.3675 28.4959 40.6244 30.3543L41.615 30.2174ZM36.883 43.8613L36.9277 44.8603C39.8277 44.7304 42.216 42.5379 42.6056 39.7196L41.615 39.5826L40.6244 39.4457C40.3675 41.3041 38.7785 42.7754 36.8383 42.8623L36.883 43.8613ZM24.117 25.9387L24.0723 24.9397C21.1723 25.0696 18.784 27.2621 18.3944 30.0804L19.385 30.2174L20.3756 30.3543C20.6325 28.4959 22.2215 27.0246 24.1617 26.9377L24.117 25.9387ZM24.117 43.8613L24.1617 42.8623C22.2215 42.7754 20.6325 41.3041 20.3756 39.4457L19.385 39.5826L18.3944 39.7196C18.784 42.5379 21.1723 44.7304 24.0723 44.8603L24.117 43.8613ZM24.0313 25.8H25.0313V22.3H24.0313H23.0313V25.8H24.0313ZM36.9688 22.3H35.9688V25.8H36.9688H37.9688V22.3H36.9688ZM30.5 16V17C33.5454 17 35.9688 19.3976 35.9688 22.3H36.9688H37.9688C37.9688 18.2436 34.5998 15 30.5 15V16ZM24.0313 22.3H25.0313C25.0313 19.3976 27.4546 17 30.5 17V16V15C26.4002 15 23.0313 18.2436 23.0313 22.3H24.0313Z" fill="#886BF9"/>
</svg>
