<svg width="24" height="24" viewBox="0 0 24 24" fill="none" xmlns="http://www.w3.org/2000/svg">
<path d="M2.99994 10.4167C2.99994 7.21907 2.99994 5.62028 3.37745 5.08241C3.75497 4.54454 5.25826 4.02996 8.26485 3.00079L8.83766 2.80472C10.4049 2.26824 11.1886 2 11.9999 2C12.8113 2 13.595 2.26824 15.1622 2.80472L15.735 3.00079C18.7416 4.02996 20.2449 4.54454 20.6224 5.08241C20.9999 5.62028 20.9999 7.21907 20.9999 10.4167C20.9999 10.8996 20.9999 11.4234 20.9999 11.9914C20.9999 17.6294 16.761 20.3655 14.1014 21.5273C13.3799 21.8424 13.0192 22 11.9999 22C10.9807 22 10.62 21.8424 9.8985 21.5273C7.2389 20.3655 2.99994 17.6294 2.99994 11.9914C2.99994 11.4234 2.99994 10.8996 2.99994 10.4167Z" stroke="#111111" stroke-width="1.5"/>
<path d="M10.8612 8.36335C11.3679 7.45445 11.6212 7 11.9999 7C12.3787 7 12.632 7.45445 13.1387 8.36335L13.2698 8.59849C13.4137 8.85677 13.4857 8.98591 13.598 9.07112C13.7102 9.15633 13.85 9.18796 14.1296 9.25122L14.3841 9.30881C15.368 9.53142 15.8599 9.64273 15.977 10.0191C16.094 10.3955 15.7586 10.7876 15.0879 11.572L14.9144 11.7749C14.7238 11.9978 14.6285 12.1092 14.5856 12.2471C14.5427 12.385 14.5571 12.5336 14.5859 12.831L14.6122 13.1018C14.7136 14.1482 14.7643 14.6715 14.4579 14.9041C14.1515 15.1367 13.6909 14.9246 12.7697 14.5005L12.5313 14.3907C12.2696 14.2702 12.1387 14.2099 11.9999 14.2099C11.8612 14.2099 11.7303 14.2702 11.4685 14.3907L11.2302 14.5005C10.309 14.9246 9.84841 15.1367 9.542 14.9041C9.23559 14.6715 9.28629 14.1482 9.3877 13.1018L9.41393 12.831C9.44275 12.5336 9.45716 12.385 9.41428 12.2471C9.37141 12.1092 9.27611 11.9978 9.08551 11.7749L8.91198 11.572C8.24124 10.7876 7.90587 10.3955 8.02291 10.0191C8.13995 9.64273 8.63188 9.53142 9.61575 9.30881L9.87029 9.25122C10.1499 9.18796 10.2897 9.15633 10.4019 9.07112C10.5142 8.98591 10.5861 8.85677 10.7301 8.59849L10.8612 8.36335Z" stroke="#111111" stroke-width="1.5"/>
</svg>
