<svg width="24" height="24" viewBox="0 0 24 24" fill="none" xmlns="http://www.w3.org/2000/svg">
<path d="M15.9131 9.37926L16.6396 9.19305V9.19305L15.9131 9.37926ZM16.7582 12.6766L16.0317 12.8628L16.7582 12.6766ZM13.7324 20.8219L13.2454 20.2514L13.2454 20.2514L13.7324 20.8219ZM9.86292 21.9058L9.98857 21.1664H9.98857L9.86292 21.9058ZM3.34673 16.4334L4.07325 16.2471L3.34673 16.4334ZM2.50159 13.136L1.77507 13.3222H1.77507L2.50159 13.136ZM14.677 6.36888L14.2265 6.96856L14.2265 6.96856L14.677 6.36888ZM11.0242 6.94934L11.3423 7.62856L11.0242 6.94934ZM14.0388 6.05159L14.2433 5.33002H14.2433L14.0388 6.05159ZM5.57328 8.47622L5.49314 7.73052L5.57328 8.47622ZM8.06578 8.12524L8.2432 8.85396L8.06578 8.12524ZM8.69774 7.94822L8.92465 8.66307L8.69774 7.94822ZM2.13226 9.88284L1.44375 9.58542L1.44375 9.58542L2.13226 9.88284ZM2.53319 9.27447L1.98965 8.75768H1.98965L2.53319 9.27447ZM20.6533 12.4334L19.9268 12.2471L20.6533 12.4334ZM21.4984 9.13602L22.2249 9.32223V9.32223L21.4984 9.13602ZM8.08695 5.37926L7.36043 5.19305L8.08695 5.37926ZM9.32304 2.36888L9.77346 2.96856L9.77346 2.96856L9.32304 2.36888ZM12.9758 2.94934L12.6577 3.62856L12.9758 2.94934ZM9.96123 2.05159L9.75666 1.33002V1.33002L9.96123 2.05159ZM18.4267 4.47622L18.5069 3.73052V3.73052L18.4267 4.47622ZM15.9342 4.12524L16.1116 3.39653L15.9342 4.12524ZM15.3023 3.94822L15.0753 4.66307V4.66307L15.3023 3.94822ZM21.8677 5.88284L22.5563 5.58542L22.5562 5.58542L21.8677 5.88284ZM21.4668 5.27447L20.9233 5.79126V5.79126L21.4668 5.27447ZM4.51233 13.223C4.47231 13.6353 4.77408 14.002 5.18635 14.042C5.59863 14.082 5.96529 13.7803 6.00531 13.368L5.25882 13.2955L4.51233 13.223ZM6.44889 11.9414L6.25477 11.2169L6.44889 11.9414ZM7.54635 12.9551C7.78715 13.2921 8.25557 13.3701 8.5926 13.1293C8.92963 12.8885 9.00764 12.4201 8.76684 12.0831L8.1566 12.5191L7.54635 12.9551ZM18.4332 9.00812C18.4732 9.42039 18.8398 9.72217 19.2521 9.68214C19.6644 9.64212 19.9662 9.27546 19.9261 8.86319L19.1797 8.93565L18.4332 9.00812ZM17.9896 7.5815L18.1837 6.85705L17.9896 7.5815ZM15.6716 7.72319C15.4308 8.06022 15.5088 8.52864 15.8459 8.76944C16.1829 9.01024 16.6513 8.93223 16.8921 8.5952L16.2819 8.1592L15.6716 7.72319ZM10.3082 11.6698C10.2682 12.0821 10.57 12.4488 10.9823 12.4888C11.3945 12.5288 11.7612 12.227 11.8012 11.8148L11.0547 11.7423L10.3082 11.6698ZM12.2448 10.3881L12.0507 9.66369L12.2448 10.3881ZM13.3422 11.4018C13.583 11.7389 14.0515 11.8169 14.3885 11.5761C14.7255 11.3353 14.8035 10.8669 14.5627 10.5298L13.9525 10.9658L13.3422 11.4018ZM12.1937 6.02828L12.3878 5.30383L12.1937 6.02828ZM9.87574 6.16997C9.63494 6.507 9.71295 6.97542 10.05 7.21622C10.387 7.45702 10.8554 7.37901 11.0962 7.04198L10.486 6.60597L9.87574 6.16997ZM12.7536 16.8332C13.0862 17.08 13.556 17.0105 13.8029 16.6779C14.0497 16.3453 13.9802 15.8755 13.6476 15.6287L13.2006 16.2309L12.7536 16.8332ZM10.3883 15.9492L10.1942 15.2248L10.3883 15.9492ZM7.40543 17.3013C7.24082 17.6814 7.4155 18.1229 7.7956 18.2876C8.1757 18.4522 8.61727 18.2775 8.78189 17.8974L8.09366 17.5993L7.40543 17.3013ZM15.9131 9.37926L15.1865 9.56547L16.0317 12.8628L16.7582 12.6766L17.4847 12.4904L16.6396 9.19305L15.9131 9.37926ZM16.7582 12.6766L16.0317 12.8628C16.9167 16.3156 14.9144 18.8268 13.2454 20.2514L13.7324 20.8219L14.2193 21.3923C16.0341 19.8432 18.5866 16.7895 17.4847 12.4904L16.7582 12.6766ZM9.86292 21.9058L9.98857 21.1664C7.87071 20.8065 4.95499 19.6873 4.07325 16.2471L3.34673 16.4334L2.62022 16.6196C3.72539 20.9314 7.41584 22.2507 9.73727 22.6452L9.86292 21.9058ZM3.34673 16.4334L4.07325 16.2471L3.2281 12.9498L2.50159 13.136L1.77507 13.3222L2.62022 16.6196L3.34673 16.4334ZM13.7324 20.8219L13.2454 20.2514C12.9719 20.4849 12.8243 20.6081 12.6338 20.7171C12.4468 20.824 12.1882 20.9327 11.7047 21.0681L11.907 21.7903L12.1093 22.5125C12.654 22.3599 13.0424 22.2112 13.3782 22.0193C13.7104 21.8294 13.9614 21.6125 14.2193 21.3923L13.7324 20.8219ZM9.86292 21.9058L9.73727 22.6452C10.0658 22.701 10.3899 22.7583 10.7715 22.749C11.1564 22.7396 11.565 22.665 12.1093 22.5125L11.907 21.7903L11.7047 21.0681C11.2207 21.2037 10.9458 21.2443 10.7351 21.2494C10.521 21.2546 10.3372 21.2256 9.98857 21.1664L9.86292 21.9058ZM15.9131 9.37926L16.6396 9.19305C16.4236 8.35034 16.2473 7.6585 16.0474 7.12734C15.8442 6.58729 15.5807 6.10966 15.1274 5.76919L14.677 6.36888L14.2265 6.96856C14.3485 7.06015 14.4827 7.22828 14.6436 7.65568C14.8078 8.09198 14.962 8.6893 15.1865 9.56547L15.9131 9.37926ZM11.0242 6.94934L11.3423 7.62856C12.136 7.25684 12.6722 7.0071 13.0946 6.86653C13.505 6.72998 13.7008 6.73532 13.8342 6.77315L14.0388 6.05159L14.2433 5.33002C13.6931 5.17404 13.1586 5.2644 12.6211 5.44325C12.0956 5.61809 11.4663 5.91413 10.7061 6.27013L11.0242 6.94934ZM14.677 6.36888L15.1274 5.76919C14.8617 5.56965 14.5624 5.42048 14.2433 5.33002L14.0388 6.05159L13.8342 6.77315C13.9735 6.81264 14.1065 6.87841 14.2265 6.96856L14.677 6.36888ZM5.57328 8.47622L5.65343 9.22193C6.88914 9.08912 7.57312 9.0171 8.2432 8.85396L8.06578 8.12524L7.88837 7.39653C7.33629 7.53094 6.76598 7.59372 5.49314 7.73052L5.57328 8.47622ZM11.0242 6.94934L10.7061 6.27013C9.53846 6.81693 9.01378 7.06103 8.47083 7.23337L8.69774 7.94822L8.92465 8.66307C9.58243 8.45428 10.2085 8.1595 11.3423 7.62856L11.0242 6.94934ZM8.06578 8.12524L8.2432 8.85396C8.47233 8.79817 8.69961 8.73451 8.92465 8.66307L8.69774 7.94822L8.47083 7.23337C8.27841 7.29445 8.08415 7.34886 7.88837 7.39653L8.06578 8.12524ZM2.50159 13.136L3.2281 12.9498C3.00358 12.0738 2.85134 11.4757 2.7848 11.0115C2.71983 10.5583 2.75397 10.3349 2.82076 10.1803L2.13226 9.88284L1.44375 9.58542C1.21902 10.1057 1.21754 10.6494 1.29998 11.2244C1.38083 11.7883 1.55902 12.4793 1.77507 13.3222L2.50159 13.136ZM5.57328 8.47622L5.49314 7.73052C4.66467 7.81956 3.97728 7.89219 3.43803 8.01556C2.88409 8.14229 2.38376 8.34319 1.98965 8.75768L2.53319 9.27447L3.07672 9.79126C3.18196 9.68058 3.35475 9.57337 3.77256 9.47778C4.20507 9.37883 4.78806 9.31493 5.65343 9.22193L5.57328 8.47622ZM2.13226 9.88284L2.82076 10.1803C2.88398 10.0339 2.97108 9.90238 3.07672 9.79126L2.53319 9.27447L1.98965 8.75768C1.7605 8.9987 1.576 9.27928 1.44375 9.58542L2.13226 9.88284ZM20.6533 12.4334L21.3798 12.6196L22.2249 9.32223L21.4984 9.13602L20.7719 8.9498L19.9268 12.2471L20.6533 12.4334ZM8.08695 5.37926L8.81346 5.56547C9.03804 4.6893 9.19223 4.09198 9.35643 3.65568C9.51728 3.22828 9.65152 3.06015 9.77346 2.96856L9.32304 2.36888L8.87262 1.76919C8.41932 2.10966 8.1558 2.58729 7.95256 3.12734C7.75266 3.6585 7.57643 4.35034 7.36043 5.19305L8.08695 5.37926ZM12.9758 2.94934L13.2939 2.27013C12.5337 1.91413 11.9044 1.61809 11.3789 1.44325C10.8414 1.2644 10.3069 1.17403 9.75666 1.33002L9.96123 2.05159L10.1658 2.77315C10.2992 2.73532 10.495 2.72998 10.9054 2.86653C11.3278 3.0071 11.864 3.25684 12.6577 3.62856L12.9758 2.94934ZM9.32304 2.36888L9.77346 2.96856C9.89349 2.87841 10.0265 2.81264 10.1658 2.77315L9.96123 2.05159L9.75666 1.33002C9.43761 1.42048 9.13828 1.56965 8.87262 1.76919L9.32304 2.36888ZM18.4267 4.47622L18.5069 3.73052C17.234 3.59372 16.6637 3.53094 16.1116 3.39653L15.9342 4.12524L15.7568 4.85396C16.4269 5.01709 17.1109 5.08912 18.3466 5.22193L18.4267 4.47622ZM12.9758 2.94934L12.6577 3.62856C13.7915 4.1595 14.4176 4.45428 15.0753 4.66307L15.3023 3.94822L15.5292 3.23337C14.9862 3.06103 14.4615 2.81693 13.2939 2.27013L12.9758 2.94934ZM15.9342 4.12524L16.1116 3.39653C15.9159 3.34886 15.7216 3.29445 15.5292 3.23337L15.3023 3.94822L15.0753 4.66307C15.3004 4.73451 15.5277 4.79817 15.7568 4.85396L15.9342 4.12524ZM21.4984 9.13602L22.2249 9.32223C22.441 8.47932 22.6192 7.78833 22.7 7.22435C22.7825 6.64936 22.781 6.10565 22.5563 5.58542L21.8677 5.88284L21.1792 6.18026C21.246 6.33488 21.2802 6.55832 21.2152 7.01148C21.1487 7.47566 20.9964 8.07383 20.7719 8.9498L21.4984 9.13602ZM18.4267 4.47622L18.3466 5.22193C19.2119 5.31493 19.7949 5.37883 20.2274 5.47778C20.6452 5.57337 20.818 5.68058 20.9233 5.79126L21.4668 5.27447L22.0103 4.75768C21.6162 4.34319 21.1159 4.14229 20.562 4.01556C20.0227 3.89219 19.3353 3.81956 18.5069 3.73052L18.4267 4.47622ZM21.8677 5.88284L22.5562 5.58542C22.424 5.27928 22.2395 4.9987 22.0103 4.75768L21.4668 5.27447L20.9233 5.79126C21.0289 5.90237 21.116 6.03391 21.1792 6.18026L21.8677 5.88284ZM16.5 17.221L16.7969 17.9098C18.6943 17.092 20.6341 15.529 21.3798 12.6196L20.6533 12.4334L19.9268 12.2471C19.3241 14.5985 17.788 15.8492 16.2031 16.5323L16.5 17.221ZM8.08695 5.37926L7.36043 5.19305L6.66091 7.92224L7.38742 8.10846L8.11394 8.29467L8.81346 5.56547L8.08695 5.37926ZM5.25882 13.2955L6.00531 13.368C6.03405 13.072 6.2643 12.7673 6.643 12.6658L6.44889 11.9414L6.25477 11.2169C5.29565 11.4739 4.60382 12.2806 4.51233 13.223L5.25882 13.2955ZM6.44889 11.9414L6.643 12.6658C7.02171 12.5643 7.37345 12.7131 7.54635 12.9551L8.1566 12.5191L8.76684 12.0831C8.21636 11.3126 7.2139 10.9599 6.25477 11.2169L6.44889 11.9414ZM19.1797 8.93565L19.9261 8.86319C19.8347 7.9207 19.1428 7.11405 18.1837 6.85705L17.9896 7.5815L17.7955 8.30594C18.1742 8.40742 18.4044 8.7121 18.4332 9.00812L19.1797 8.93565ZM17.9896 7.5815L18.1837 6.85705C17.2246 6.60006 16.2221 6.95272 15.6716 7.72319L16.2819 8.1592L16.8921 8.5952C17.065 8.3532 17.4168 8.20447 17.7955 8.30594L17.9896 7.5815ZM11.0547 11.7423L11.8012 11.8148C11.8299 11.5187 12.0602 11.2141 12.4389 11.1126L12.2448 10.3881L12.0507 9.66369C11.0915 9.92069 10.3997 10.7273 10.3082 11.6698L11.0547 11.7423ZM12.2448 10.3881L12.4389 11.1126C12.8176 11.0111 13.1694 11.1598 13.3422 11.4018L13.9525 10.9658L14.5627 10.5298C14.0123 9.75936 13.0098 9.4067 12.0507 9.66369L12.2448 10.3881ZM12.1937 6.02828L12.3878 5.30383C11.4287 5.04683 10.4262 5.3995 9.87574 6.16997L10.486 6.60597L11.0962 7.04198C11.2691 6.79998 11.6209 6.65125 11.9996 6.75272L12.1937 6.02828ZM13.0708 6.60597L13.6635 6.1464C13.3545 5.74787 12.9124 5.44439 12.3878 5.30383L12.1937 6.02828L11.9996 6.75272C12.204 6.8075 12.3675 6.92289 12.4781 7.06555L13.0708 6.60597ZM13.2006 16.2309C13.6476 15.6287 13.6473 15.6284 13.6469 15.6282C13.6468 15.6281 13.6465 15.6278 13.6462 15.6277C13.6458 15.6273 13.6453 15.6269 13.6447 15.6266C13.6437 15.6258 13.6426 15.625 13.6415 15.6242C13.6391 15.6225 13.6365 15.6206 13.6337 15.6185C13.6279 15.6144 13.6211 15.6097 13.6132 15.6042C13.5975 15.5934 13.5774 15.58 13.553 15.5647C13.5043 15.534 13.4384 15.4952 13.3558 15.4527C13.1906 15.3677 12.9577 15.2672 12.6614 15.1867C12.0637 15.0243 11.2254 14.9484 10.1942 15.2248L10.3883 15.9492L10.5824 16.6736C11.3386 16.471 11.9066 16.536 12.2681 16.6342C12.4515 16.684 12.5865 16.7438 12.6693 16.7864C12.7107 16.8077 12.7388 16.8246 12.7532 16.8337C12.7603 16.8382 12.764 16.8407 12.7641 16.8408C12.7642 16.8408 12.7633 16.8402 12.7616 16.839C12.7607 16.8384 12.7596 16.8376 12.7583 16.8366C12.7576 16.8361 12.7569 16.8356 12.7561 16.835C12.7557 16.8347 12.7553 16.8344 12.7549 16.8341C12.7547 16.834 12.7544 16.8337 12.7543 16.8337C12.754 16.8334 12.7536 16.8332 13.2006 16.2309ZM10.3883 15.9492L10.1942 15.2248C9.16297 15.5011 8.47498 15.9859 8.03854 16.4254C7.8222 16.6432 7.6707 16.8468 7.57017 17.003C7.51988 17.0811 7.48219 17.1476 7.45537 17.1986C7.44195 17.224 7.43122 17.2456 7.42298 17.2629C7.41886 17.2716 7.41535 17.2791 7.41244 17.2855C7.41098 17.2887 7.40967 17.2916 7.4085 17.2943C7.40792 17.2956 7.40737 17.2968 7.40686 17.298C7.4066 17.2986 7.40636 17.2991 7.40612 17.2997C7.406 17.3 7.40583 17.3004 7.40577 17.3005C7.4056 17.3009 7.40543 17.3013 8.09366 17.5993C8.78189 17.8974 8.78173 17.8978 8.78156 17.8981C8.78151 17.8983 8.78135 17.8986 8.78125 17.8989C8.78104 17.8993 8.78084 17.8998 8.78065 17.9002C8.78026 17.9011 8.7799 17.9019 8.77957 17.9027C8.7789 17.9042 8.77835 17.9054 8.7779 17.9064C8.77702 17.9083 8.77658 17.9093 8.77661 17.9092C8.77667 17.9091 8.77858 17.9051 8.78253 17.8976C8.79042 17.8826 8.80633 17.8539 8.83152 17.8147C8.88195 17.7364 8.96897 17.6172 9.10286 17.4824C9.3669 17.2165 9.82624 16.8763 10.5824 16.6736L10.3883 15.9492Z" fill="#374151"/>
</svg>
