<svg width="61" height="60" viewBox="0 0 61 60" fill="none" xmlns="http://www.w3.org/2000/svg">
<rect x="0.333252" width="60" height="60" rx="10" fill="#EBE6FF"/>
<path d="M38.5716 24.4551L39.2302 23.8062C40.3214 22.7313 42.0905 22.7313 43.1816 23.8062C44.2728 24.8812 44.2728 26.6241 43.1816 27.6991L42.5231 28.348M38.5716 24.4551C38.5716 24.4551 38.6539 25.8338 39.8888 27.0503C41.1236 28.2669 42.5231 28.348 42.5231 28.348M38.5716 24.4551L32.5171 30.4199C32.107 30.8239 31.9019 31.0259 31.7256 31.2487C31.5176 31.5114 31.3392 31.7957 31.1937 32.0965C31.0704 32.3515 30.9787 32.6225 30.7953 33.1646L30.0181 35.4615M42.5231 28.348L36.4685 34.3128C36.0584 34.7168 35.8534 34.9188 35.6273 35.0926C35.3606 35.2975 35.072 35.4732 34.7667 35.6166C34.5079 35.7381 34.2328 35.8284 33.6826 36.0091L31.3512 36.7747M31.3512 36.7747L30.7813 36.9619C30.5105 37.0508 30.212 36.9814 30.0102 36.7826C29.8084 36.5837 29.7379 36.2897 29.8282 36.0229L30.0181 35.4615M31.3512 36.7747L30.0181 35.4615M24.1053 31.4H27.6579M24.1053 25.8H33.3421M24.1053 37H26.2368M40.9141 17.6402C39.2492 16 36.5697 16 31.2105 16H28.3684C23.0093 16 20.3297 16 18.6649 17.6402C17 19.2804 17 21.9203 17 27.2V32.8C17 38.0797 17 40.7196 18.6649 42.3598C20.3297 44 23.0093 44 28.3684 44H31.2105C36.5697 44 39.2492 44 40.9141 42.3598C42.2543 41.0395 42.5156 39.0714 42.5666 35.6" stroke="#886BF9" stroke-width="2" stroke-linecap="round"/>
</svg>
