<svg width="49" height="48" viewBox="0 0 49 48" fill="none" xmlns="http://www.w3.org/2000/svg">
<rect x="0.666687" width="48" height="48" rx="8" fill="#EBE6FF"/>
<path d="M30.2445 16.4315L30.593 15.7674L30.2445 16.4315ZM28.2445 15.382L27.896 16.0461V16.0461L28.2445 15.382ZM21.0891 15.382L21.4376 16.0461L21.0891 15.382ZM19.0891 16.4315L18.7406 15.7674L19.0891 16.4315ZM30.2445 31.5685L30.593 32.2326L30.2445 31.5685ZM28.2445 32.618L27.896 31.9539L28.2445 32.618ZM21.0891 32.618L21.4376 31.9539H21.4376L21.0891 32.618ZM19.0891 31.5685L18.7406 32.2326H18.7406L19.0891 31.5685ZM15.2642 28.8603L14.6179 29.2408L14.6179 29.2408L15.2642 28.8603ZM34.0694 28.8603L34.7157 29.2408V29.2408L34.0694 28.8603ZM15.2642 19.1397L15.9105 19.5203H15.9105L15.2642 19.1397ZM34.0694 19.1397L33.4231 19.5203L34.0694 19.1397ZM16.0022 18.8292C15.6317 18.6439 15.1812 18.7941 14.996 19.1646C14.8107 19.5351 14.9609 19.9856 15.3314 20.1708L15.6668 19.5L16.0022 18.8292ZM23.9168 33.5C23.9168 33.9142 24.2526 34.25 24.6668 34.25C25.081 34.25 25.4168 33.9142 25.4168 33.5H24.6668H23.9168ZM34.0022 20.1708C34.3727 19.9856 34.5229 19.5351 34.3376 19.1646C34.1524 18.7941 33.7019 18.6439 33.3314 18.8292L33.6668 19.5L34.0022 20.1708ZM28.9168 25C28.9168 25.4142 29.2526 25.75 29.6668 25.75C30.081 25.75 30.4168 25.4142 30.4168 25H29.6668H28.9168ZM20.5161 15.8363C20.1496 15.6434 19.696 15.7841 19.5031 16.1507C19.3102 16.5172 19.451 16.9708 19.8175 17.1637L20.1668 16.5L20.5161 15.8363ZM30.2445 16.4315L30.593 15.7674L28.593 14.7179L28.2445 15.382L27.896 16.0461L29.896 17.0956L30.2445 16.4315ZM21.0891 15.382L20.7406 14.7179L18.7406 15.7674L19.0891 16.4315L19.4376 17.0956L21.4376 16.0461L21.0891 15.382ZM30.2445 31.5685L29.896 30.9044L27.896 31.9539L28.2445 32.618L28.593 33.2821L30.593 32.2326L30.2445 31.5685ZM21.0891 32.618L21.4376 31.9539L19.4376 30.9044L19.0891 31.5685L18.7406 32.2326L20.7406 33.2821L21.0891 32.618ZM34.6668 23.9415H33.9168V24.0585H34.6668H35.4168V23.9415H34.6668ZM14.6668 23.9415H13.9168V24.0585H14.6668H15.4168V23.9415H14.6668ZM19.0891 31.5685L19.4376 30.9044C18.3479 30.3325 17.5823 29.9297 17.0103 29.5477C16.4541 29.1762 16.1327 28.857 15.9105 28.4797L15.2642 28.8603L14.6179 29.2408C14.9931 29.878 15.5083 30.3484 16.1773 30.7951C16.8304 31.2313 17.6786 31.6753 18.7406 32.2326L19.0891 31.5685ZM14.6668 24.0585H13.9168C13.9168 25.3062 13.916 26.296 13.9951 27.0993C14.0758 27.9182 14.244 28.6058 14.6179 29.2408L15.2642 28.8603L15.9105 28.4797C15.687 28.1002 15.5566 27.6494 15.4879 26.9522C15.4176 26.2394 15.4168 25.3356 15.4168 24.0585H14.6668ZM28.2445 32.618L27.896 31.9539C27.0063 32.4208 26.3828 32.7472 25.8648 32.9614C25.3606 33.17 25.0064 33.25 24.6668 33.25V34V34.75C25.2715 34.75 25.8284 34.5997 26.438 34.3476C27.0339 34.1012 27.7271 33.7366 28.593 33.2821L28.2445 32.618ZM21.0891 32.618L20.7406 33.2821C21.6065 33.7366 22.2997 34.1012 22.8956 34.3476C23.5053 34.5997 24.0621 34.75 24.6668 34.75V34V33.25C24.3273 33.25 23.973 33.17 23.4688 32.9614C22.9508 32.7472 22.3273 32.4208 21.4376 31.9539L21.0891 32.618ZM30.2445 31.5685L30.593 32.2326C31.655 31.6753 32.5032 31.2313 33.1563 30.7951C33.8253 30.3484 34.3405 29.878 34.7157 29.2408L34.0694 28.8603L33.4231 28.4797C33.2009 28.857 32.8795 29.1762 32.3233 29.5477C31.7513 29.9297 30.9857 30.3325 29.896 30.9044L30.2445 31.5685ZM34.6668 24.0585H33.9168C33.9168 25.3356 33.916 26.2394 33.8457 26.9522C33.7771 27.6494 33.6466 28.1002 33.4231 28.4797L34.0694 28.8603L34.7157 29.2408C35.0896 28.6058 35.2579 27.9182 35.3385 27.0993C35.4177 26.296 35.4168 25.3062 35.4168 24.0585H34.6668ZM28.2445 15.382L28.593 14.7179C27.7271 14.2634 27.0339 13.8988 26.438 13.6524C25.8284 13.4003 25.2715 13.25 24.6668 13.25V14V14.75C25.0064 14.75 25.3606 14.83 25.8648 15.0386C26.3828 15.2528 27.0063 15.5792 27.896 16.0461L28.2445 15.382ZM21.0891 15.382L21.4376 16.0461C22.3273 15.5792 22.9508 15.2528 23.4688 15.0386C23.973 14.83 24.3273 14.75 24.6668 14.75V14V13.25C24.0621 13.25 23.5053 13.4003 22.8956 13.6524C22.2997 13.8988 21.6065 14.2634 20.7406 14.7179L21.0891 15.382ZM19.0891 16.4315L18.7406 15.7674C17.6786 16.3247 16.8304 16.7687 16.1773 17.2049C15.5083 17.6516 14.9931 18.122 14.6179 18.7592L15.2642 19.1397L15.9105 19.5203C16.1327 19.143 16.4541 18.8238 17.0103 18.4523C17.5823 18.0703 18.3479 17.6675 19.4376 17.0956L19.0891 16.4315ZM14.6668 23.9415H15.4168C15.4168 22.6644 15.4176 21.7606 15.4879 21.0478C15.5566 20.3506 15.687 19.8998 15.9105 19.5203L15.2642 19.1397L14.6179 18.7592C14.244 19.3942 14.0758 20.0818 13.9951 20.9007C13.916 21.704 13.9168 22.6938 13.9168 23.9415H14.6668ZM30.2445 16.4315L29.896 17.0956C30.9857 17.6675 31.7513 18.0703 32.3233 18.4523C32.8795 18.8238 33.2009 19.143 33.4231 19.5203L34.0694 19.1397L34.7157 18.7592C34.3405 18.122 33.8253 17.6516 33.1563 17.2049C32.5032 16.7687 31.655 16.3247 30.593 15.7674L30.2445 16.4315ZM34.6668 23.9415H35.4168C35.4168 22.6938 35.4177 21.704 35.3385 20.9007C35.2579 20.0818 35.0896 19.3942 34.7157 18.7592L34.0694 19.1397L33.4231 19.5203C33.6466 19.8998 33.7771 20.3506 33.8457 21.0478C33.916 21.7606 33.9168 22.6644 33.9168 23.9415H34.6668ZM24.6668 24L25.0022 23.3292L16.0022 18.8292L15.6668 19.5L15.3314 20.1708L24.3314 24.6708L24.6668 24ZM24.6668 24H23.9168V33.5H24.6668H25.4168V24H24.6668ZM33.6668 19.5L33.3314 18.8292L29.3314 20.8292L29.6668 21.5L30.0022 22.1708L34.0022 20.1708L33.6668 19.5ZM29.6668 21.5H28.9168V25H29.6668H30.4168V21.5H29.6668ZM29.6668 21.5L30.0161 20.8363L20.5161 15.8363L20.1668 16.5L19.8175 17.1637L29.3175 22.1637L29.6668 21.5ZM29.6668 21.5L29.3314 20.8292L24.3314 23.3292L24.6668 24L25.0022 24.6708L30.0022 22.1708L29.6668 21.5Z" fill="#886BF9"/>
</svg>
