<svg width="24" height="24" viewBox="0 0 24 24" fill="none" xmlns="http://www.w3.org/2000/svg">
<path d="M13.5 15.75C13.0858 15.75 12.75 16.0858 12.75 16.5C12.75 16.9142 13.0858 17.25 13.5 17.25V16.5V15.75ZM18 17.25C18.4142 17.25 18.75 16.9142 18.75 16.5C18.75 16.0858 18.4142 15.75 18 15.75V16.5V17.25ZM13.5 6.75C13.0858 6.75 12.75 7.08579 12.75 7.5C12.75 7.91421 13.0858 8.25 13.5 8.25V7.5V6.75ZM18 8.25C18.4142 8.25 18.75 7.91421 18.75 7.5C18.75 7.08579 18.4142 6.75 18 6.75V7.5V8.25ZM5.25 17.5C5.25 17.9142 5.58579 18.25 6 18.25C6.41421 18.25 6.75 17.9142 6.75 17.5H6H5.25ZM6.75 15.5C6.75 15.0858 6.41421 14.75 6 14.75C5.58579 14.75 5.25 15.0858 5.25 15.5H6H6.75ZM5.25 8.5C5.25 8.91421 5.58579 9.25 6 9.25C6.41421 9.25 6.75 8.91421 6.75 8.5H6H5.25ZM6.75 6.5C6.75 6.08579 6.41421 5.75 6 5.75C5.58579 5.75 5.25 6.08579 5.25 6.5H6H6.75ZM8.25 17.5C8.25 17.9142 8.58579 18.25 9 18.25C9.41421 18.25 9.75 17.9142 9.75 17.5H9H8.25ZM9.75 15.5C9.75 15.0858 9.41421 14.75 9 14.75C8.58579 14.75 8.25 15.0858 8.25 15.5H9H9.75ZM8.25 8.5C8.25 8.91421 8.58579 9.25 9 9.25C9.41421 9.25 9.75 8.91421 9.75 8.5H9H8.25ZM9.75 6.5C9.75 6.08579 9.41421 5.75 9 5.75C8.58579 5.75 8.25 6.08579 8.25 6.5H9H9.75ZM10 3V3.75H14V3V2.25H10V3ZM22 11H21.25V13H22H22.75V11H22ZM14 21V20.25H10V21V21.75H14V21ZM2 13H2.75V11H2H1.25V13H2ZM10 21V20.25C8.09318 20.25 6.73851 20.2484 5.71085 20.1102C4.70476 19.975 4.12511 19.7213 3.7019 19.2981L3.17157 19.8284L2.64124 20.3588C3.38961 21.1071 4.33855 21.4392 5.51098 21.5969C6.66182 21.7516 8.13558 21.75 10 21.75V21ZM2 13H1.25C1.25 14.8644 1.24841 16.3382 1.40313 17.489C1.56076 18.6614 1.89288 19.6104 2.64124 20.3588L3.17157 19.8284L3.7019 19.2981C3.27869 18.8749 3.02502 18.2952 2.88976 17.2892C2.75159 16.2615 2.75 14.9068 2.75 13H2ZM22 13H21.25C21.25 14.9068 21.2484 16.2615 21.1102 17.2892C20.975 18.2952 20.7213 18.8749 20.2981 19.2981L20.8284 19.8284L21.3588 20.3588C22.1071 19.6104 22.4392 18.6614 22.5969 17.489C22.7516 16.3382 22.75 14.8644 22.75 13H22ZM14 21V21.75C15.8644 21.75 17.3382 21.7516 18.489 21.5969C19.6614 21.4392 20.6104 21.1071 21.3588 20.3588L20.8284 19.8284L20.2981 19.2981C19.8749 19.7213 19.2952 19.975 18.2892 20.1102C17.2615 20.2484 15.9068 20.25 14 20.25V21ZM14 3V3.75C15.9068 3.75 17.2615 3.75159 18.2892 3.88976C19.2952 4.02502 19.8749 4.27869 20.2981 4.7019L20.8284 4.17157L21.3588 3.64124C20.6104 2.89288 19.6614 2.56076 18.489 2.40313C17.3382 2.24841 15.8644 2.25 14 2.25V3ZM22 11H22.75C22.75 9.13558 22.7516 7.66182 22.5969 6.51098C22.4392 5.33855 22.1071 4.38961 21.3588 3.64124L20.8284 4.17157L20.2981 4.7019C20.7213 5.12511 20.975 5.70476 21.1102 6.71085C21.2484 7.73851 21.25 9.09318 21.25 11H22ZM10 3V2.25C8.13558 2.25 6.66182 2.24841 5.51098 2.40313C4.33856 2.56076 3.38961 2.89288 2.64124 3.64124L3.17157 4.17157L3.7019 4.7019C4.12511 4.27869 4.70476 4.02502 5.71085 3.88976C6.73851 3.75159 8.09318 3.75 10 3.75V3ZM2 11H2.75C2.75 9.09318 2.75159 7.73851 2.88976 6.71085C3.02502 5.70476 3.27869 5.12511 3.7019 4.7019L3.17157 4.17157L2.64124 3.64124C1.89288 4.38961 1.56076 5.33855 1.40313 6.51098C1.24841 7.66182 1.25 9.13558 1.25 11H2ZM2 12V12.75H22V12V11.25H2V12ZM13.5 16.5V17.25H18V16.5V15.75H13.5V16.5ZM13.5 7.5V8.25H18V7.5V6.75H13.5V7.5ZM6 17.5H6.75V15.5H6H5.25V17.5H6ZM6 8.5H6.75V6.5H6H5.25V8.5H6ZM9 17.5H9.75V15.5H9H8.25V17.5H9ZM9 8.5H9.75V6.5H9H8.25V8.5H9Z" fill="#374151"/>
</svg>
