<svg width="32" height="32" viewBox="0 0 32 32" fill="none" xmlns="http://www.w3.org/2000/svg">
<path d="M30 6.71127L31 6.71127V6.71127H30ZM12.4363 17.824L13.1419 17.1154L12.4363 17.824ZM12.4363 11.1613L13.142 11.8699L12.4363 11.1613ZM20.8 19.4897L20.0944 18.7811L20.8 19.4897ZM14.1091 19.4897L13.4035 20.1983L14.1091 19.4897ZM27.9214 12.3983L28.627 13.1069L27.9214 12.3983ZM30 7.40122L29 7.40121V7.40122H30ZM19.5577 4.06985L18.8521 3.36125V3.36125L19.5577 4.06985ZM16.4874 16.8669C16.8788 16.4772 16.8801 15.844 16.4904 15.4527C16.1007 15.0614 15.4675 15.06 15.0762 15.4497L15.7818 16.1583L16.4874 16.8669ZM9.99246 13.5948L10.6991 12.8873L10.6981 12.8862L9.99246 13.5948ZM15.2398 8.66984C15.7044 8.96848 16.3231 8.83397 16.6217 8.36939C16.9204 7.90482 16.7859 7.2861 16.3213 6.98746L15.7805 7.82865L15.2398 8.66984ZM15.0142 7.336L14.4734 8.17719L14.4734 8.17719L15.0142 7.336ZM11.8844 5.73201L12.0304 4.74273L11.8844 5.73201ZM5.91441 9.32733L6.62002 10.0359L5.91441 9.32733ZM9.70756 6.00987L10.0904 6.93368L9.70756 6.00987ZM6.69148 11.0338L7.05948 10.104L7.05948 10.104L6.69148 11.0338ZM6.84156 11.0938L6.46102 12.0186L6.84156 11.0938ZM8.8223 12.4296L9.52791 11.721L8.8223 12.4296ZM8.70756 12.3161L8.01163 13.0342L8.70756 12.3161ZM6.2303 10.8513L5.86231 11.7811L5.86231 11.7811L6.2303 10.8513ZM18.4291 22.0724L17.7224 22.7799C17.7379 22.7954 17.7538 22.8103 17.7703 22.8247L18.4291 22.0724ZM24.9858 15.6156C24.6854 15.1522 24.0661 15.02 23.6027 15.3205C23.1393 15.6209 23.0072 16.2401 23.3076 16.7035L24.1467 16.1596L24.9858 15.6156ZM24.6414 16.9227L23.8023 17.4667V17.4667L24.6414 16.9227ZM26.2522 20.0393L27.2413 19.8921L26.2522 20.0393ZM22.6417 25.9841L23.3473 26.6927L23.3473 26.6927L22.6417 25.9841ZM25.9732 22.207L26.8958 22.5926L25.9732 22.207ZM21.1684 25.8128L22.0971 25.4421L21.1684 25.8128ZM20.5908 24.4845L19.7143 24.9658L20.5908 24.4845ZM19.0659 22.6301L19.7716 21.9215L19.7489 21.8989L19.7248 21.8778L19.0659 22.6301ZM20.0622 23.6842L20.8489 23.0669L20.0622 23.6842ZM22.5393 26.0861L21.8337 25.3775L21.8337 25.3775L22.5393 26.0861ZM18.0866 21.7303L17.7413 20.7918L18.0866 21.7303ZM10.2071 13.8092L11.1348 14.1827L10.2071 13.8092ZM7.67416 17.9486C8.06492 17.5584 8.06531 16.9252 7.67502 16.5344C7.28473 16.1437 6.65157 16.1433 6.26081 16.5336L6.96748 17.2411L7.67416 17.9486ZM4.59905 19.6067L3.89237 18.8991H3.89237L4.59905 19.6067ZM2.44593 17.4562L1.73925 16.7486L1.73925 16.7486L2.44593 17.4562ZM3.36791 17.9486C3.75868 17.5584 3.75906 16.9252 3.36878 16.5344C2.97849 16.1437 2.34532 16.1433 1.95456 16.5336L2.66124 17.2411L3.36791 17.9486ZM15.4126 25.7461C15.8034 25.3558 15.8038 24.7226 15.4135 24.3319C15.0232 23.9411 14.39 23.9407 13.9993 24.331L14.706 25.0386L15.4126 25.7461ZM12.3375 27.4041L13.0442 28.1116L12.3375 27.4041ZM14.4907 29.5546L15.1973 30.2622L14.4907 29.5546ZM15.4126 30.0471C15.8034 29.6568 15.8038 29.0236 15.4135 28.6329C15.0232 28.2421 14.39 28.2417 13.9993 28.632L14.706 29.3396L15.4126 30.0471ZM14.0505 23.2247C14.441 22.8342 14.441 22.201 14.0505 21.8105C13.66 21.42 13.0268 21.42 12.6363 21.8105L13.3434 22.5176L14.0505 23.2247ZM9.69289 24.7539C9.30237 25.1444 9.30237 25.7776 9.69289 26.1681C10.0834 26.5586 10.7166 26.5586 11.1071 26.1681L10.4 25.461L9.69289 24.7539ZM10.1645 19.3434C10.555 18.9529 10.555 18.3198 10.1645 17.9292C9.77399 17.5387 9.14082 17.5387 8.7503 17.9292L9.45741 18.6363L10.1645 19.3434ZM5.78663 20.8929C5.39611 21.2834 5.39611 21.9166 5.78663 22.3071C6.17716 22.6976 6.81032 22.6976 7.20085 22.3071L6.49374 21.6L5.78663 20.8929ZM9.60963 23.7784C10.0045 23.3923 10.0115 22.7591 9.62537 22.3643C9.23921 21.9694 8.60609 21.9624 8.21124 22.3485L8.91044 23.0635L9.60963 23.7784ZM5.81784 24.6893C5.423 25.0754 5.41595 25.7085 5.8021 26.1034C6.18826 26.4982 6.82138 26.5053 7.21623 26.1191L6.51704 25.4042L5.81784 24.6893ZM27.9214 12.3983L27.2158 11.6897L20.0944 18.7811L20.8 19.4897L21.5056 20.1983L28.627 13.1069L27.9214 12.3983ZM14.1091 19.4897L14.8147 18.7811L13.1419 17.1154L12.4363 17.824L11.7307 18.5326L13.4035 20.1983L14.1091 19.4897ZM12.4363 11.1613L13.142 11.8699L20.2634 4.77844L19.5577 4.06985L18.8521 3.36125L11.7307 10.4527L12.4363 11.1613ZM24.5759 2V3H25.2688V2V1H24.5759V2ZM30 6.71127L29 6.71126L29 7.40121L30 7.40122L31 7.40122L31 6.71127L30 6.71127ZM25.2688 2V3C26.4121 3 27.1694 3.00211 27.7318 3.0774C28.2659 3.1489 28.472 3.26959 28.6015 3.39855L29.3071 2.68995L30.0127 1.98135C29.4494 1.42036 28.7515 1.19607 27.9972 1.09509C27.2712 0.997894 26.3558 1 25.2688 1V2ZM30 6.71127H31C31 5.6292 31.0021 4.71663 30.9044 3.9927C30.8027 3.23956 30.5767 2.54293 30.0127 1.98135L29.3071 2.68995L28.6015 3.39855C28.7304 3.52692 28.8508 3.73049 28.9224 4.2603C28.9979 4.81931 29 5.57242 29 6.71127H30ZM12.4363 17.824L13.1419 17.1154C12.3334 16.3102 11.7998 15.7759 11.4559 15.3271C11.1296 14.9013 11.0707 14.6726 11.0707 14.4926H10.0707H9.07074C9.07074 15.2884 9.40612 15.9402 9.86836 16.5435C10.313 17.1239 10.9623 17.7674 11.7307 18.5326L12.4363 17.824ZM14.1091 19.4897L13.4035 20.1983C14.172 20.9636 14.8181 21.61 15.4008 22.0527C16.0067 22.513 16.6593 22.8453 17.4545 22.8453V21.8453V20.8453C17.2699 20.8453 17.0383 20.785 16.6107 20.4602C16.1599 20.1176 15.6232 19.5862 14.8147 18.7811L14.1091 19.4897ZM27.9214 12.3983L28.627 13.1069C29.5945 12.1434 30.2888 11.4772 30.6532 10.6011L29.7299 10.217L28.8066 9.83295C28.6308 10.2555 28.2994 10.6106 27.2158 11.6897L27.9214 12.3983ZM30 7.40122H29C29 8.92738 28.9822 9.41083 28.8066 9.83295L29.7299 10.217L30.6532 10.6011C31.0178 9.7245 31 8.76365 31 7.40122H30ZM19.5577 4.06985L20.2634 4.77844C21.3465 3.69984 21.7037 3.36907 22.1295 3.19342L21.7482 2.26897L21.3669 1.34452C20.4886 1.7068 19.8202 2.39731 18.8521 3.36125L19.5577 4.06985ZM24.5759 2V1C23.2069 1 22.2448 0.982425 21.3669 1.34452L21.7482 2.26897L22.1295 3.19342C22.5558 3.01758 23.0442 3 24.5759 3V2ZM13.2727 18.6568L13.9783 19.3654L16.4874 16.8669L15.7818 16.1583L15.0762 15.4497L12.5671 17.9482L13.2727 18.6568ZM15.7805 7.82865L16.3213 6.98746L15.5549 6.49481L15.0142 7.336L14.4734 8.17719L15.2398 8.66984L15.7805 7.82865ZM15.0142 7.336L15.5549 6.49481C14.7991 6.00898 14.185 5.61336 13.6556 5.32843C13.1136 5.03673 12.6004 4.82687 12.0304 4.74273L11.8844 5.73201L11.7384 6.72129C11.9921 6.75874 12.2751 6.85673 12.7077 7.08957C13.153 7.32917 13.6918 7.67475 14.4734 8.17719L15.0142 7.336ZM5.91441 9.32733L6.62002 10.0359C7.30616 9.35269 8.04032 8.62191 8.69967 8.02115C9.02908 7.72101 9.32788 7.46434 9.58321 7.26778C9.85401 7.05931 10.0193 6.96315 10.0904 6.93368L9.70756 6.00987L9.32472 5.08605C9.00051 5.22041 8.66454 5.45101 8.3632 5.68299C8.04639 5.92688 7.70216 6.22434 7.35266 6.54278C6.65421 7.17917 5.88711 7.94329 5.20881 8.61872L5.91441 9.32733ZM11.8844 5.73201L12.0304 4.74273C11.1199 4.60833 10.1842 4.72988 9.32472 5.08605L9.70756 6.00987L10.0904 6.93368C10.6254 6.71197 11.1961 6.64125 11.7384 6.72129L11.8844 5.73201ZM6.2303 10.8513L5.86231 11.7811L6.32349 11.9637L6.69148 11.0338L7.05948 10.104L6.59829 9.92149L6.2303 10.8513ZM8.8223 12.4296L8.11668 13.1382L9.28685 14.3034L9.99246 13.5948L10.6981 12.8862L9.52791 11.721L8.8223 12.4296ZM6.69148 11.0338L6.32349 11.9637C6.40121 11.9944 6.43161 12.0065 6.46102 12.0186L6.84156 11.0938L7.22211 10.1691C7.17731 10.1506 7.13239 10.1329 7.05948 10.104L6.69148 11.0338ZM8.8223 12.4296L9.52791 11.721C9.4724 11.6657 9.43824 11.6317 9.40349 11.598L8.70756 12.3161L8.01163 13.0342C8.03442 13.0563 8.05757 13.0793 8.11668 13.1382L8.8223 12.4296ZM6.84156 11.0938L6.46102 12.0186C7.03823 12.2561 7.56445 12.6009 8.01163 13.0342L8.70756 12.3161L9.40349 11.598C8.77389 10.9879 8.03353 10.503 7.22211 10.1691L6.84156 11.0938ZM5.91441 9.32733L5.20881 8.61872C4.2209 9.60244 4.57032 11.2698 5.86231 11.7811L6.2303 10.8513L6.59829 9.92149C6.64071 9.93828 6.6571 9.999 6.62002 10.0359L5.91441 9.32733ZM24.1467 16.1596L23.3076 16.7035L23.8023 17.4667L24.6414 16.9227L25.4805 16.3787L24.9858 15.6156L24.1467 16.1596ZM22.6417 25.9841L21.9361 25.2755L21.8337 25.3775L22.5393 26.0861L23.2449 26.7947L23.3473 26.6927L22.6417 25.9841ZM24.6414 16.9227L23.8023 17.4667C24.3069 18.2451 24.6538 18.7815 24.8943 19.2245C25.128 19.6551 25.2258 19.9358 25.2631 20.1865L26.2522 20.0393L27.2413 19.8921C27.1565 19.3226 26.9452 18.8104 26.6521 18.2705C26.3658 17.743 25.9684 17.1312 25.4805 16.3787L24.6414 16.9227ZM22.6417 25.9841L23.3473 26.6927C24.0256 26.0173 24.7929 25.2534 25.432 24.5579C25.7518 24.2099 26.0506 23.867 26.2956 23.5515C26.5285 23.2515 26.7605 22.9164 26.8958 22.5926L25.9732 22.207L25.0505 21.8214C25.0213 21.8912 24.9252 22.0552 24.7158 22.325C24.5185 22.5792 24.2608 22.8767 23.9593 23.2047C23.3561 23.8612 22.6222 24.5923 21.9361 25.2756L22.6417 25.9841ZM26.2522 20.0393L25.2631 20.1865C25.3431 20.7241 25.2725 21.2902 25.0505 21.8214L25.9732 22.207L26.8958 22.5926C27.2542 21.7352 27.3766 20.8012 27.2413 19.8921L26.2522 20.0393ZM19.0659 22.6301L19.7248 21.8778L19.0879 21.3201L18.4291 22.0724L17.7703 22.8247L18.4071 23.3824L19.0659 22.6301ZM21.1684 25.8128L22.0971 25.4421C21.8364 24.7888 21.6771 24.385 21.4674 24.0031L20.5908 24.4845L19.7143 24.9658C19.8516 25.2157 19.9616 25.4869 20.2396 26.1834L21.1684 25.8128ZM19.0659 22.6301L18.3603 23.3387C18.8926 23.8687 19.0992 24.0769 19.2754 24.3015L20.0622 23.6842L20.8489 23.0669C20.5799 22.724 20.2708 22.4186 19.7716 21.9215L19.0659 22.6301ZM20.5908 24.4845L21.4674 24.0031C21.2871 23.6748 21.0802 23.3617 20.8489 23.0669L20.0622 23.6842L19.2754 24.3015C19.4396 24.5107 19.5864 24.7329 19.7143 24.9658L20.5908 24.4845ZM24.1454 11.1613L23.4398 10.4527C22.9062 10.9841 22.0392 10.9841 21.5056 10.4527L20.8 11.1613L20.0944 11.8699C21.4084 13.1783 23.5371 13.1783 24.8511 11.8699L24.1454 11.1613ZM20.8 11.1613L21.5056 10.4527C20.9743 9.92359 20.9743 9.06756 21.5056 8.53849L20.8 7.8299L20.0944 7.1213C18.778 8.43209 18.778 10.5591 20.0944 11.8699L20.8 11.1613ZM20.8 7.8299L21.5056 8.53849C22.0392 8.0071 22.9062 8.0071 23.4398 8.53849L24.1454 7.8299L24.8511 7.1213C23.5371 5.81283 21.4084 5.81283 20.0944 7.1213L20.8 7.8299ZM24.1454 7.8299L23.4398 8.53849C23.9711 9.06756 23.9711 9.9236 23.4398 10.4527L24.1454 11.1613L24.8511 11.8699C26.1674 10.5591 26.1674 8.43209 24.8511 7.1213L24.1454 7.8299ZM22.5393 26.0861L21.8337 25.3775C21.8774 25.334 21.9356 25.3253 21.9729 25.3328C22.0107 25.3403 22.0698 25.3736 22.0971 25.4421L21.1684 25.8128L20.2396 26.1834C20.7312 27.415 22.3257 27.7101 23.2449 26.7947L22.5393 26.0861ZM20.8 19.4897L20.0944 18.7811C19.4708 19.4021 19.0047 19.8654 18.6049 20.2102C18.2035 20.5564 17.9405 20.7185 17.7413 20.7918L18.0866 21.7303L18.4319 22.6688C18.9674 22.4718 19.4468 22.1253 19.9112 21.7246C20.3774 21.3226 20.9006 20.8007 21.5056 20.1983L20.8 19.4897ZM18.0866 21.7303L17.7413 20.7918C17.6377 20.8299 17.5473 20.8453 17.4545 20.8453V21.8453V22.8453C17.7948 22.8453 18.1186 22.7841 18.4319 22.6688L18.0866 21.7303ZM18.4291 22.0724L19.1358 21.3649L18.7933 21.0228L18.0866 21.7303L17.3799 22.4379L17.7224 22.7799L18.4291 22.0724ZM12.4363 11.1613L11.7307 10.4527C11.1402 11.0407 10.6273 11.5508 10.2285 12.0053C9.8316 12.4577 9.48632 12.922 9.27948 13.4358L10.2071 13.8092L11.1348 14.1827C11.2157 13.9818 11.3858 13.7188 11.7319 13.3242C12.0763 12.9318 12.5341 12.4752 13.142 11.8699L12.4363 11.1613ZM10.2071 13.8092L9.27948 13.4358C9.14414 13.7719 9.07074 14.1216 9.07074 14.4926H10.0707H11.0707C11.0707 14.3951 11.0883 14.2982 11.1348 14.1827L10.2071 13.8092ZM9.99246 13.5948L9.28578 14.3024L9.50044 14.5168L10.2071 13.8092L10.9138 13.1017L10.6991 12.8873L9.99246 13.5948ZM6.96748 17.2411L6.26081 16.5336L3.89237 18.8991L4.59905 19.6067L5.30573 20.3142L7.67416 17.9486L6.96748 17.2411ZM2.44593 17.4562L3.1526 18.1637L3.36791 17.9486L2.66124 17.2411L1.95456 16.5336L1.73925 16.7486L2.44593 17.4562ZM2.44593 19.6067L3.1526 18.8991C2.94913 18.6959 2.94913 18.3669 3.1526 18.1637L2.44593 17.4562L1.73925 16.7486C0.753583 17.7331 0.753583 19.3297 1.73925 20.3142L2.44593 19.6067ZM4.59905 19.6067L3.89237 18.8991C3.68823 19.103 3.35675 19.103 3.1526 18.8991L2.44593 19.6067L1.73925 20.3142C2.72424 21.298 4.32073 21.298 5.30573 20.3142L4.59905 19.6067ZM14.706 25.0386L13.9993 24.331L11.6309 26.6966L12.3375 27.4041L13.0442 28.1116L15.4126 25.7461L14.706 25.0386ZM14.4907 29.5546L15.1973 30.2622L15.4126 30.0471L14.706 29.3396L13.9993 28.632L13.784 28.8471L14.4907 29.5546ZM12.3375 29.5546L11.6309 30.2622C12.6158 31.2459 14.2123 31.2459 15.1973 30.2622L14.4907 29.5546L13.784 28.8471C13.5798 29.051 13.2483 29.051 13.0442 28.8471L12.3375 29.5546ZM12.3375 27.4041L11.6309 26.6966C10.6452 27.681 10.6452 29.2777 11.6309 30.2622L12.3375 29.5546L13.0442 28.8471C12.8407 28.6439 12.8407 28.3149 13.0442 28.1116L12.3375 27.4041ZM13.3434 22.5176L12.6363 21.8105L9.69289 24.7539L10.4 25.461L11.1071 26.1681L14.0505 23.2247L13.3434 22.5176ZM9.45741 18.6363L8.7503 17.9292L5.78663 20.8929L6.49374 21.6L7.20085 22.3071L10.1645 19.3434L9.45741 18.6363ZM8.91044 23.0635L8.21124 22.3485L5.81784 24.6893L6.51704 25.4042L7.21623 26.1191L9.60963 23.7784L8.91044 23.0635Z" fill="#374151"/>
</svg>
