<svg width="48" height="48" viewBox="0 0 48 48" fill="none" xmlns="http://www.w3.org/2000/svg">
<rect width="48" height="48" rx="8" fill="#EBE6FF"/>
<path d="M30.495 19.5643L31.014 19.0453C31.874 18.1853 33.2684 18.1853 34.1284 19.0453C34.9883 19.9053 34.9883 21.2996 34.1284 22.1596L33.6093 22.6787M30.495 19.5643C30.495 19.5643 30.5599 20.6673 31.5331 21.6406C32.5063 22.6138 33.6093 22.6787 33.6093 22.6787M30.495 19.5643L25.7231 24.3362C25.3999 24.6594 25.2383 24.8211 25.0993 24.9992C24.9353 25.2094 24.7948 25.4369 24.6801 25.6775C24.5829 25.8815 24.5106 26.0983 24.3661 26.532L23.7536 28.3695M33.6093 22.6787L28.8374 27.4506C28.5142 27.7738 28.3526 27.9354 28.1744 28.0743C27.9642 28.2383 27.7368 28.3789 27.4961 28.4935C27.2921 28.5908 27.0753 28.663 26.6417 28.8076L24.8042 29.4201M24.8042 29.4201L24.355 29.5698C24.1416 29.6409 23.9064 29.5854 23.7473 29.4263C23.5882 29.2673 23.5327 29.032 23.6038 28.8186L23.7536 28.3695M24.8042 29.4201L23.7536 28.3695M19.0933 25.1203H21.8933M19.0933 20.6403H26.3733M19.0933 29.6003H20.7733M32.3412 14.1125C31.029 12.8003 28.9171 12.8003 24.6933 12.8003H22.4533C18.2296 12.8003 16.1177 12.8003 14.8055 14.1125C13.4933 15.4246 13.4933 17.5365 13.4933 21.7603V26.2403C13.4933 30.4641 13.4933 32.576 14.8055 33.8881C16.1177 35.2003 18.2296 35.2003 22.4533 35.2003H24.6933C28.9171 35.2003 31.029 35.2003 32.3412 33.8881C33.3974 32.8319 33.6034 31.2574 33.6436 28.4803" stroke="#886BF9" stroke-width="1.6" stroke-linecap="round"/>
</svg>
