<svg width="24" height="24" viewBox="0 0 24 24" fill="none" xmlns="http://www.w3.org/2000/svg">
<path d="M16.8003 3.99225C17.1617 4.19459 17.6187 4.06561 17.8211 3.70418C18.0234 3.34275 17.8944 2.88573 17.533 2.68339L17.1666 3.33782L16.8003 3.99225ZM22.8606 9.84603C22.7755 9.44064 22.378 9.18094 21.9726 9.26597C21.5672 9.35101 21.3075 9.74857 21.3925 10.154L22.1265 10L22.8606 9.84603ZM7.8667 11.75C7.45249 11.75 7.1167 12.0858 7.1167 12.5C7.1167 12.9142 7.45249 13.25 7.8667 13.25V12.5V11.75ZM11.4833 16L10.8375 16.3813C10.9706 16.6068 11.2117 16.7465 11.4734 16.7499C11.7352 16.7534 11.9799 16.6201 12.1189 16.3982L11.4833 16ZM22.5867 5.70588C22.9766 5.5659 23.1791 5.13639 23.0391 4.74654C22.8991 4.3567 22.4696 4.15414 22.0798 4.29412L22.3333 5L22.5867 5.70588ZM12 2V1.25C5.90225 1.25 0.916748 6.03995 0.916748 12H1.66675H2.41675C2.41675 6.91435 6.68395 2.75 12 2.75V2ZM1.66675 12H0.916748C0.916748 17.96 5.90225 22.75 12 22.75V22V21.25C6.68395 21.25 2.41675 17.0856 2.41675 12H1.66675ZM12 22V22.75C18.0977 22.75 23.0833 17.96 23.0833 12H22.3333H21.5833C21.5833 17.0856 17.316 21.25 12 21.25V22ZM17.1666 3.33782L17.533 2.68339C15.9032 1.77102 14.0127 1.25 12 1.25V2V2.75C13.7515 2.75 15.3903 3.20292 16.8003 3.99225L17.1666 3.33782ZM22.3333 12H23.0833C23.0833 11.263 23.0067 10.5425 22.8606 9.84603L22.1265 10L21.3925 10.154C21.5175 10.7499 21.5833 11.3672 21.5833 12H22.3333ZM7.8667 12.5C7.8667 13.25 7.86588 13.25 7.86506 13.25C7.8648 13.25 7.86399 13.25 7.86346 13.25C7.8624 13.25 7.86136 13.25 7.86035 13.25C7.85832 13.25 7.85638 13.2499 7.85453 13.2499C7.85083 13.2498 7.84748 13.2497 7.84449 13.2496C7.83849 13.2494 7.8339 13.2491 7.8307 13.2489C7.82428 13.2485 7.82347 13.2482 7.82807 13.2488C7.83713 13.2502 7.86847 13.2555 7.92046 13.2715C8.0236 13.3032 8.21494 13.3793 8.47939 13.5584C9.00995 13.9179 9.84421 14.6991 10.8375 16.3813L11.4833 16L12.1292 15.6187C11.0558 13.8009 10.0818 12.8321 9.32066 12.3166C8.93928 12.0582 8.61396 11.9155 8.36189 11.8379C8.23628 11.7992 8.13039 11.7772 8.04661 11.7648C8.00478 11.7587 7.96865 11.755 7.93852 11.7528C7.92346 11.7517 7.90992 11.751 7.89793 11.7506C7.89194 11.7504 7.88634 11.7502 7.88113 11.7501C7.87852 11.7501 7.87602 11.7501 7.87361 11.75C7.87241 11.75 7.87123 11.75 7.87008 11.75C7.86951 11.75 7.86866 11.75 7.86837 11.75C7.86753 11.75 7.8667 11.75 7.8667 12.5ZM11.4833 16C12.1189 16.3982 12.1188 16.3983 12.1188 16.3983C12.1188 16.3983 12.1188 16.3983 12.1189 16.3982C12.119 16.3981 12.1192 16.3978 12.1194 16.3973C12.12 16.3965 12.1209 16.3951 12.1221 16.3931C12.1245 16.3893 12.1283 16.3832 12.1335 16.375C12.1439 16.3587 12.1596 16.334 12.1805 16.3013C12.2224 16.236 12.2851 16.139 12.3669 16.0144C12.5307 15.7651 12.7713 15.4055 13.0761 14.9676C13.6864 14.0911 14.5517 12.9049 15.5727 11.664C16.5952 10.4214 17.7647 9.13527 18.9823 8.05268C20.2078 6.96302 21.4404 6.11748 22.5867 5.70588L22.3333 5L22.0798 4.29412C20.6732 4.79918 19.2731 5.78698 17.9856 6.93169C16.6902 8.08348 15.4662 9.43275 14.4145 10.711C13.3612 11.9909 12.4714 13.211 11.8451 14.1105C11.5317 14.5607 11.2836 14.9315 11.1133 15.1907C11.0282 15.3203 10.9624 15.4221 10.9177 15.4919C10.8953 15.5268 10.8781 15.5538 10.8664 15.5723C10.8606 15.5815 10.8561 15.5886 10.853 15.5935C10.8514 15.596 10.8502 15.5979 10.8493 15.5993C10.8489 15.6 10.8486 15.6005 10.8483 15.601C10.8482 15.6012 10.8481 15.6014 10.848 15.6015C10.8479 15.6016 10.8478 15.6018 11.4833 16Z" fill="#374151"/>
</svg>
