<svg width="32" height="32" viewBox="0 0 32 32" fill="none" xmlns="http://www.w3.org/2000/svg">
<path d="M12.9986 3.32561L24.2128 9.75991M12.9986 3.32561L3.53484 19.6607C1.74818 22.7446 2.80846 26.688 5.90305 28.4685C8.99763 30.249 12.9547 29.1924 14.7413 26.1085L16.735 22.6672M12.9986 3.32561L11.884 2.66675M24.2128 9.75991L21.203 14.9551M24.2128 9.75991L25.3336 10.4051M21.203 14.9551L18.9184 18.8984M21.203 14.9551L17.7923 12.9928M18.9184 18.8984L16.735 22.6672M18.9184 18.8984L13.3145 15.6742M16.735 22.6672L13.2514 20.6629M29.3336 19.8889C29.3336 21.423 28.1397 22.6667 26.6669 22.6667C25.1942 22.6667 24.0003 21.423 24.0003 19.8889C24.0003 18.929 25.0442 17.6478 25.8258 16.8232C26.2884 16.3351 27.0455 16.3351 27.5081 16.8232C28.2896 17.6478 29.3336 18.929 29.3336 19.8889Z" stroke="#374151" stroke-width="2" stroke-linecap="round"/>
</svg>
