<svg width="61" height="60" viewBox="0 0 61 60" fill="none" xmlns="http://www.w3.org/2000/svg">
<rect x="0.666626" width="60" height="60" rx="10" fill="#EBE6FF"/>
<path d="M39 30C39 29.4477 38.5523 29 38 29C37.4478 29 37 29.4477 37 30H38H39ZM31 24C31.5523 24 32 23.5523 32 23C32 22.4477 31.5523 22 31 22V23V24ZM33.6012 17.2601C34.1424 17.37 34.6703 17.0203 34.7801 16.479C34.89 15.9378 34.5403 15.4099 33.9991 15.3001L33.8001 16.2801L33.6012 17.2601ZM45.7001 27.0011C45.5902 26.4598 45.0624 26.1101 44.5211 26.22C43.9799 26.3299 43.6302 26.8577 43.7401 27.399L44.7201 27.2L45.7001 27.0011ZM30.2929 29.2929C29.9024 29.6834 29.9024 30.3166 30.2929 30.7071C30.6835 31.0976 31.3166 31.0976 31.7071 30.7071L31 30L30.2929 29.2929ZM41.7673 19.2328L40.7997 19.4852C40.8911 19.8355 41.1646 20.109 41.5148 20.2004L41.7673 19.2328ZM41.0444 16.4621L40.0768 16.7146V16.7146L41.0444 16.4621ZM39.8173 16.2661L40.5244 16.9732V16.9732L39.8173 16.2661ZM38.2082 17.8752L37.501 17.1681V17.1681L38.2082 17.8752ZM36.9894 21.8118L36.0218 22.0643V22.0643L36.9894 21.8118ZM44.5379 19.9557L44.7904 18.9881L44.5379 19.9557ZM44.734 21.1827L44.0268 20.4756V20.4756L44.734 21.1827ZM43.1248 22.7919L43.8319 23.499V23.499L43.1248 22.7919ZM39.1882 24.0106L38.9358 24.9782V24.9782L39.1882 24.0106ZM38 30H37C37 33.3137 34.3137 36 31 36V37V38C35.4183 38 39 34.4183 39 30H38ZM31 37V36C27.6863 36 25 33.3137 25 30H24H23C23 34.4183 26.5818 38 31 38V37ZM24 30H25C25 26.6863 27.6863 24 31 24V23V22C26.5818 22 23 25.5817 23 30H24ZM45.0001 30H44.0001C44.0001 37.1797 38.1798 43 31.0001 43V44V45C39.2844 45 46.0001 38.2843 46.0001 30H45.0001ZM31.0001 44V43C23.8204 43 18.0001 37.1797 18.0001 30H17.0001H16.0001C16.0001 38.2843 22.7159 45 31.0001 45V44ZM17.0001 30H18.0001C18.0001 22.8203 23.8204 17 31.0001 17V16V15C22.7159 15 16.0001 21.7158 16.0001 30H17.0001ZM31.0001 16V17C31.8918 17 32.7616 17.0897 33.6012 17.2601L33.8001 16.2801L33.9991 15.3001C33.0292 15.1032 32.0262 15 31.0001 15V16ZM44.7201 27.2L43.7401 27.399C43.9105 28.2386 44.0001 29.1083 44.0001 30H45.0001H46.0001C46.0001 28.9739 45.8969 27.9709 45.7001 27.0011L44.7201 27.2ZM37.4444 23.5556L36.7373 22.8485L30.2929 29.2929L31 30L31.7071 30.7071L38.1515 24.2627L37.4444 23.5556ZM41.7673 19.2328L42.7349 18.9803L42.012 16.2096L41.0444 16.4621L40.0768 16.7146L40.7997 19.4852L41.7673 19.2328ZM39.8173 16.2661L39.1102 15.559L37.501 17.1681L38.2082 17.8752L38.9153 18.5823L40.5244 16.9732L39.8173 16.2661ZM36.9894 21.8118L36.0218 22.0643L36.4768 23.8081L37.4444 23.5556L38.412 23.3031L37.957 21.5593L36.9894 21.8118ZM41.7673 19.2328L41.5148 20.2004L44.2855 20.9233L44.5379 19.9557L44.7904 18.9881L42.0197 18.2652L41.7673 19.2328ZM44.734 21.1827L44.0268 20.4756L42.4177 22.0848L43.1248 22.7919L43.8319 23.499L45.4411 21.8898L44.734 21.1827ZM39.1882 24.0106L39.4407 23.043L37.6969 22.588L37.4444 23.5556L37.192 24.5232L38.9358 24.9782L39.1882 24.0106ZM43.1248 22.7919L42.4177 22.0848C41.5377 22.9647 40.3676 23.2848 39.4407 23.043L39.1882 24.0106L38.9358 24.9782C40.6508 25.4257 42.5287 24.8022 43.8319 23.499L43.1248 22.7919ZM44.5379 19.9557L44.2855 20.9233C44.2233 20.9071 44.1505 20.8668 44.0918 20.799C44.0361 20.7347 44.0117 20.6675 44.0036 20.617C43.9877 20.5173 44.0287 20.4738 44.0268 20.4756L44.734 21.1827L45.4411 21.8898C45.8677 21.4632 46.07 20.8738 45.9786 20.3015C45.8841 19.7103 45.4686 19.165 44.7904 18.9881L44.5379 19.9557ZM38.2082 17.8752L37.501 17.1681C36.1978 18.4713 35.5743 20.3492 36.0218 22.0643L36.9894 21.8118L37.957 21.5593C37.7152 20.6324 38.0353 19.4623 38.9153 18.5823L38.2082 17.8752ZM41.0444 16.4621L42.012 16.2096C41.835 15.5314 41.2898 15.1159 40.6985 15.0215C40.1262 14.9301 39.5368 15.1323 39.1102 15.559L39.8173 16.2661L40.5244 16.9732C40.5262 16.9714 40.4827 17.0124 40.383 16.9964C40.3326 16.9884 40.2653 16.964 40.201 16.9083C40.1333 16.8496 40.093 16.7767 40.0768 16.7146L41.0444 16.4621Z" fill="#886BF9"/>
</svg>
