<svg width="61" height="60" viewBox="0 0 61 60" fill="none" xmlns="http://www.w3.org/2000/svg">
<rect x="0.333252" width="60" height="60" rx="10" fill="#EBE6FF"/>
<path d="M44.3333 20.7113L45.3333 20.7113V20.7113H44.3333ZM26.7696 31.824L27.4752 31.1154L26.7696 31.824ZM26.7696 25.1613L27.4752 25.8699L26.7696 25.1613ZM35.1332 33.4897L34.4276 32.7811L35.1332 33.4897ZM28.4423 33.4897L27.7367 34.1983L28.4423 33.4897ZM42.2546 26.3983L42.9603 27.1069L42.2546 26.3983ZM44.3332 21.4012L43.3332 21.4012V21.4012H44.3332ZM33.891 18.0698L33.1854 17.3612V17.3612L33.891 18.0698ZM30.8207 30.8669C31.212 30.4772 31.2133 29.844 30.8236 29.4527C30.4339 29.0614 29.8008 29.06 29.4094 29.4497L30.115 30.1583L30.8207 30.8669ZM24.3257 27.5948L25.0324 26.8873L25.0313 26.8862L24.3257 27.5948ZM29.5731 22.6698C30.0376 22.9685 30.6563 22.834 30.955 22.3694C31.2536 21.9048 31.1191 21.2861 30.6545 20.9875L30.1138 21.8286L29.5731 22.6698ZM29.3474 21.336L28.8067 22.1772L28.8067 22.1772L29.3474 21.336ZM26.2176 19.732L26.3637 18.7427L26.2176 19.732ZM20.2477 23.3273L20.9533 24.0359L20.2477 23.3273ZM24.0408 20.0099L24.4236 20.9337L24.0408 20.0099ZM21.0247 25.0338L21.3927 24.104L21.3927 24.104L21.0247 25.0338ZM21.1748 25.0938L20.7943 26.0186L21.1748 25.0938ZM23.1555 26.4296L23.8612 25.721L23.1555 26.4296ZM23.0408 26.3161L22.3449 27.0342L23.0408 26.3161ZM20.5636 24.8513L20.1956 25.7811L20.1956 25.7811L20.5636 24.8513ZM32.7623 36.0724L32.0557 36.7799C32.0711 36.7954 32.0871 36.8103 32.1035 36.8247L32.7623 36.0724ZM39.319 29.6156C39.0186 29.1522 38.3994 29.02 37.936 29.3205C37.4725 29.6209 37.3404 30.2401 37.6408 30.7035L38.4799 30.1596L39.319 29.6156ZM38.9747 30.9227L38.1356 31.4667V31.4667L38.9747 30.9227ZM40.5855 34.0393L41.5746 33.8921L40.5855 34.0393ZM36.9749 39.9841L37.6805 40.6927L37.6806 40.6927L36.9749 39.9841ZM40.3064 36.207L41.2291 36.5926L40.3064 36.207ZM35.5016 39.8128L36.4304 39.4421L35.5016 39.8128ZM34.9241 38.4845L34.0476 38.9658L34.9241 38.4845ZM33.3992 36.6301L34.1048 35.9215L34.0821 35.8989L34.058 35.8778L33.3992 36.6301ZM34.3954 37.6842L35.1821 37.0669L34.3954 37.6842ZM36.8726 40.0861L36.167 39.3775L36.1669 39.3775L36.8726 40.0861ZM32.4198 35.7303L32.0746 34.7918L32.4198 35.7303ZM24.5404 27.8092L25.468 28.1827L24.5404 27.8092ZM22.0074 31.9486C22.3982 31.5584 22.3986 30.9252 22.0083 30.5344C21.618 30.1437 20.9848 30.1433 20.5941 30.5336L21.3007 31.2411L22.0074 31.9486ZM18.9323 33.6067L18.2256 32.8991H18.2256L18.9323 33.6067ZM16.7792 31.4562L16.0725 30.7486L16.0725 30.7486L16.7792 31.4562ZM17.7012 31.9486C18.0919 31.5584 18.0923 30.9252 17.702 30.5344C17.3117 30.1437 16.6786 30.1433 16.2878 30.5336L16.9945 31.2411L17.7012 31.9486ZM29.7459 39.7461C30.1367 39.3558 30.137 38.7226 29.7468 38.3319C29.3565 37.9411 28.7233 37.9407 28.3325 38.331L29.0392 39.0386L29.7459 39.7461ZM26.6708 41.4041L27.3775 42.1116L26.6708 41.4041ZM28.8239 43.5546L29.5306 44.2622L28.8239 43.5546ZM29.7459 44.0471C30.1367 43.6568 30.137 43.0236 29.7468 42.6329C29.3565 42.2421 28.7233 42.2417 28.3325 42.632L29.0392 43.3396L29.7459 44.0471ZM28.3838 37.2247C28.7743 36.8342 28.7743 36.201 28.3838 35.8105C27.9932 35.42 27.3601 35.42 26.9695 35.8105L27.6767 36.5176L28.3838 37.2247ZM24.0261 38.7539C23.6356 39.1444 23.6356 39.7776 24.0261 40.1681C24.4167 40.5586 25.0498 40.5586 25.4404 40.1681L24.7333 39.461L24.0261 38.7539ZM24.4978 33.3434C24.8883 32.9529 24.8883 32.3198 24.4978 31.9292C24.1072 31.5387 23.4741 31.5387 23.0835 31.9292L23.7907 32.6363L24.4978 33.3434ZM20.1199 34.8929C19.7294 35.2834 19.7294 35.9166 20.1199 36.3071C20.5104 36.6976 21.1436 36.6976 21.5341 36.3071L20.827 35.6L20.1199 34.8929ZM23.9429 37.7784C24.3377 37.3923 24.3448 36.7591 23.9586 36.3643C23.5725 35.9694 22.9393 35.9624 22.5445 36.3485L23.2437 37.0635L23.9429 37.7784ZM20.1511 38.6893C19.7562 39.0754 19.7492 39.7085 20.1354 40.1034C20.5215 40.4982 21.1546 40.5053 21.5495 40.1191L20.8503 39.4042L20.1511 38.6893ZM42.2546 26.3983L41.549 25.6897L34.4276 32.7811L35.1332 33.4897L35.8388 34.1983L42.9603 27.1069L42.2546 26.3983ZM28.4423 33.4897L29.1479 32.7811L27.4752 31.1154L26.7696 31.824L26.064 32.5326L27.7367 34.1983L28.4423 33.4897ZM26.7696 25.1613L27.4752 25.8699L34.5966 18.7784L33.891 18.0698L33.1854 17.3612L26.064 24.4527L26.7696 25.1613ZM38.9092 16V17H39.6021V16V15H38.9092V16ZM44.3333 20.7113L43.3333 20.7113L43.3332 21.4012L44.3332 21.4012L45.3332 21.4012L45.3333 20.7113L44.3333 20.7113ZM39.6021 16V17C40.7454 17 41.5027 17.0021 42.0651 17.0774C42.5991 17.1489 42.8053 17.2696 42.9348 17.3985L43.6404 16.6899L44.346 15.9814C43.7826 15.4204 43.0848 15.1961 42.3305 15.0951C41.6045 14.9979 40.6891 15 39.6021 15V16ZM44.3333 20.7113H45.3333C45.3333 19.6292 45.3354 18.7166 45.2377 17.9927C45.136 17.2396 44.9099 16.5429 44.346 15.9814L43.6404 16.6899L42.9348 17.3985C43.0637 17.5269 43.1841 17.7305 43.2556 18.2603C43.3311 18.8193 43.3333 19.5724 43.3333 20.7113H44.3333ZM26.7696 31.824L27.4752 31.1154C26.6666 30.3102 26.133 29.7759 25.7892 29.3271C25.4629 28.9013 25.404 28.6726 25.404 28.4926H24.404H23.404C23.404 29.2884 23.7394 29.9402 24.2016 30.5435C24.6463 31.1239 25.2955 31.7674 26.064 32.5326L26.7696 31.824ZM28.4423 33.4897L27.7367 34.1983C28.5052 34.9636 29.1514 35.61 29.734 36.0527C30.34 36.513 30.9926 36.8453 31.7878 36.8453V35.8453V34.8453C31.6031 34.8453 31.3715 34.785 30.944 34.4602C30.4931 34.1176 29.9565 33.5862 29.1479 32.7811L28.4423 33.4897ZM42.2546 26.3983L42.9603 27.1069C43.9278 26.1434 44.622 25.4772 44.9865 24.6011L44.0631 24.217L43.1398 23.8329C42.9641 24.2555 42.6327 24.6106 41.549 25.6897L42.2546 26.3983ZM44.3332 21.4012H43.3332C43.3332 22.9274 43.3154 23.4108 43.1398 23.8329L44.0631 24.217L44.9865 24.6011C45.3511 23.7245 45.3332 22.7637 45.3332 21.4012H44.3332ZM33.891 18.0698L34.5966 18.7784C35.6798 17.6998 36.0369 17.3691 36.4628 17.1934L36.0815 16.269L35.7002 15.3445C34.8219 15.7068 34.1534 16.3973 33.1854 17.3612L33.891 18.0698ZM38.9092 16V15C37.5401 15 36.578 14.9824 35.7002 15.3445L36.0815 16.269L36.4628 17.1934C36.8891 17.0176 37.3775 17 38.9092 17V16ZM27.606 32.6568L28.3116 33.3654L30.8207 30.8669L30.115 30.1583L29.4094 29.4497L26.9003 31.9482L27.606 32.6568ZM30.1138 21.8286L30.6545 20.9875L29.8882 20.4948L29.3474 21.336L28.8067 22.1772L29.5731 22.6698L30.1138 21.8286ZM29.3474 21.336L29.8882 20.4948C29.1324 20.009 28.5182 19.6134 27.9888 19.3284C27.4468 19.0367 26.9337 18.8269 26.3637 18.7427L26.2176 19.732L26.0716 20.7213C26.3253 20.7587 26.6084 20.8567 27.041 21.0896C27.4862 21.3292 28.0251 21.6748 28.8067 22.1772L29.3474 21.336ZM20.2477 23.3273L20.9533 24.0359C21.6394 23.3527 22.3736 22.6219 23.0329 22.0211C23.3623 21.721 23.6611 21.4643 23.9165 21.2678C24.1873 21.0593 24.3525 20.9632 24.4236 20.9337L24.0408 20.0099L23.658 19.0861C23.3338 19.2204 22.9978 19.451 22.6965 19.683C22.3796 19.9269 22.0354 20.2243 21.6859 20.5428C20.9875 21.1792 20.2204 21.9433 19.5421 22.6187L20.2477 23.3273ZM26.2176 19.732L26.3637 18.7427C25.4531 18.6083 24.5174 18.7299 23.658 19.0861L24.0408 20.0099L24.4236 20.9337C24.9586 20.712 25.5293 20.6412 26.0716 20.7213L26.2176 19.732ZM20.5636 24.8513L20.1956 25.7811L20.6567 25.9637L21.0247 25.0338L21.3927 24.104L20.9315 23.9215L20.5636 24.8513ZM23.1555 26.4296L22.4499 27.1382L23.6201 28.3034L24.3257 27.5948L25.0313 26.8862L23.8612 25.721L23.1555 26.4296ZM21.0247 25.0338L20.6567 25.9637C20.7345 25.9944 20.7649 26.0065 20.7943 26.0186L21.1748 25.0938L21.5554 24.1691C21.5106 24.1506 21.4656 24.1329 21.3927 24.104L21.0247 25.0338ZM23.1555 26.4296L23.8612 25.721C23.8057 25.6657 23.7715 25.6317 23.7367 25.598L23.0408 26.3161L22.3449 27.0342C22.3677 27.0563 22.3908 27.0793 22.4499 27.1382L23.1555 26.4296ZM21.1748 25.0938L20.7943 26.0186C21.3715 26.2561 21.8977 26.6009 22.3449 27.0342L23.0408 26.3161L23.7367 25.598C23.1071 24.9879 22.3668 24.503 21.5554 24.1691L21.1748 25.0938ZM20.2477 23.3273L19.5421 22.6187C18.5542 23.6024 18.9036 25.2698 20.1956 25.7811L20.5636 24.8513L20.9315 23.9215C20.974 23.9383 20.9904 23.999 20.9533 24.0359L20.2477 23.3273ZM38.4799 30.1596L37.6408 30.7035L38.1356 31.4667L38.9747 30.9227L39.8138 30.3787L39.319 29.6156L38.4799 30.1596ZM36.9749 39.9841L36.2693 39.2755L36.167 39.3775L36.8726 40.0861L37.5782 40.7947L37.6805 40.6927L36.9749 39.9841ZM38.9747 30.9227L38.1356 31.4667C38.6402 32.2451 38.9871 32.7815 39.2276 33.2245C39.4612 33.6551 39.559 33.9358 39.5964 34.1865L40.5855 34.0393L41.5746 33.8921C41.4898 33.3226 41.2784 32.8104 40.9853 32.2705C40.6991 31.743 40.3016 31.1312 39.8138 30.3787L38.9747 30.9227ZM36.9749 39.9841L37.6806 40.6927C38.3588 40.0173 39.1262 39.2534 39.7653 38.5579C40.0851 38.2099 40.3838 37.867 40.6288 37.5515C40.8617 37.2515 41.0938 36.9164 41.2291 36.5926L40.3064 36.207L39.3838 35.8214C39.3546 35.8912 39.2585 36.0552 39.049 36.325C38.8517 36.5792 38.594 36.8767 38.2926 37.2047C37.6893 37.8612 36.9554 38.5923 36.2693 39.2756L36.9749 39.9841ZM40.5855 34.0393L39.5964 34.1865C39.6764 34.7241 39.6058 35.2902 39.3838 35.8214L40.3064 36.207L41.2291 36.5926C41.5874 35.7352 41.7099 34.8012 41.5746 33.8921L40.5855 34.0393ZM33.3992 36.6301L34.058 35.8778L33.4211 35.3201L32.7623 36.0724L32.1035 36.8247L32.7404 37.3824L33.3992 36.6301ZM35.5016 39.8128L36.4304 39.4421C36.1697 38.7888 36.0103 38.385 35.8006 38.0031L34.9241 38.4845L34.0476 38.9658C34.1848 39.2157 34.2949 39.4869 34.5729 40.1834L35.5016 39.8128ZM33.3992 36.6301L32.6936 37.3387C33.2258 37.8687 33.4324 38.0769 33.6087 38.3015L34.3954 37.6842L35.1821 37.0669C34.9131 36.724 34.604 36.4186 34.1048 35.9215L33.3992 36.6301ZM34.9241 38.4845L35.8006 38.0031C35.6203 37.6748 35.4135 37.3617 35.1821 37.0669L34.3954 37.6842L33.6087 38.3015C33.7729 38.5107 33.9197 38.7329 34.0476 38.9658L34.9241 38.4845ZM38.4787 25.1613L37.7731 24.4527C37.2394 24.9841 36.3725 24.9841 35.8388 24.4527L35.1332 25.1613L34.4276 25.8699C35.7416 27.1783 37.8703 27.1783 39.1843 25.8699L38.4787 25.1613ZM35.1332 25.1613L35.8388 24.4527C35.3075 23.9236 35.3075 23.0676 35.8388 22.5385L35.1332 21.8299L34.4276 21.1213C33.1113 22.4321 33.1113 24.5591 34.4276 25.8699L35.1332 25.1613ZM35.1332 21.8299L35.8388 22.5385C36.3725 22.0071 37.2394 22.0071 37.7731 22.5385L38.4787 21.8299L39.1843 21.1213C37.8703 19.8128 35.7416 19.8128 34.4276 21.1213L35.1332 21.8299ZM38.4787 21.8299L37.7731 22.5385C38.3044 23.0676 38.3044 23.9236 37.7731 24.4527L38.4787 25.1613L39.1843 25.8699C40.5006 24.5591 40.5006 22.4321 39.1843 21.1213L38.4787 21.8299ZM36.8726 40.0861L36.1669 39.3775C36.2106 39.334 36.2689 39.3253 36.3062 39.3328C36.3439 39.3403 36.4031 39.3736 36.4304 39.4421L35.5016 39.8128L34.5729 40.1834C35.0644 41.415 36.659 41.7101 37.5782 40.7947L36.8726 40.0861ZM35.1332 33.4897L34.4276 32.7811C33.804 33.4021 33.3379 33.8654 32.9382 34.2102C32.5368 34.5564 32.2737 34.7185 32.0746 34.7918L32.4198 35.7303L32.7651 36.6688C33.3007 36.4718 33.78 36.1253 34.2445 35.7246C34.7106 35.3226 35.2338 34.8007 35.8388 34.1983L35.1332 33.4897ZM32.4198 35.7303L32.0746 34.7918C31.971 34.8299 31.8805 34.8453 31.7878 34.8453V35.8453V36.8453C32.128 36.8453 32.4519 36.7841 32.7651 36.6688L32.4198 35.7303ZM32.7623 36.0724L33.469 35.3649L33.1265 35.0228L32.4198 35.7303L31.7132 36.4379L32.0557 36.7799L32.7623 36.0724ZM26.7696 25.1613L26.064 24.4527C25.4734 25.0407 24.9605 25.5508 24.5618 26.0053C24.1649 26.4577 23.8196 26.922 23.6127 27.4358L24.5404 27.8092L25.468 28.1827C25.5489 27.9818 25.719 27.7188 26.0652 27.3242C26.4095 26.9318 26.8674 26.4752 27.4752 25.8699L26.7696 25.1613ZM24.5404 27.8092L23.6127 27.4358C23.4774 27.7719 23.404 28.1216 23.404 28.4926H24.404H25.404C25.404 28.3951 25.4215 28.2982 25.468 28.1827L24.5404 27.8092ZM24.3257 27.5948L23.619 28.3024L23.8337 28.5168L24.5404 27.8092L25.247 27.1017L25.0324 26.8873L24.3257 27.5948ZM21.3007 31.2411L20.5941 30.5336L18.2256 32.8991L18.9323 33.6067L19.639 34.3142L22.0074 31.9486L21.3007 31.2411ZM16.7792 31.4562L17.4859 32.1637L17.7012 31.9486L16.9945 31.2411L16.2878 30.5336L16.0725 30.7486L16.7792 31.4562ZM16.7792 33.6067L17.4859 32.8991C17.2824 32.6959 17.2824 32.3669 17.4859 32.1637L16.7792 31.4562L16.0725 30.7486C15.0868 31.7331 15.0868 33.3297 16.0725 34.3142L16.7792 33.6067ZM18.9323 33.6067L18.2256 32.8991C18.0215 33.103 17.69 33.103 17.4859 32.8991L16.7792 33.6067L16.0725 34.3142C17.0575 35.298 18.654 35.298 19.639 34.3142L18.9323 33.6067ZM29.0392 39.0386L28.3325 38.331L25.9641 40.6966L26.6708 41.4041L27.3775 42.1116L29.7459 39.7461L29.0392 39.0386ZM28.8239 43.5546L29.5306 44.2622L29.7459 44.0471L29.0392 43.3396L28.3325 42.632L28.1172 42.8471L28.8239 43.5546ZM26.6708 43.5546L25.9641 44.2622C26.9491 45.2459 28.5456 45.2459 29.5306 44.2622L28.8239 43.5546L28.1172 42.8471C27.9131 43.051 27.5816 43.051 27.3775 42.8471L26.6708 43.5546ZM26.6708 41.4041L25.9641 40.6966C24.9784 41.681 24.9784 43.2777 25.9641 44.2622L26.6708 43.5546L27.3775 42.8471C27.174 42.6439 27.174 42.3149 27.3775 42.1116L26.6708 41.4041ZM27.6767 36.5176L26.9695 35.8105L24.0261 38.7539L24.7333 39.461L25.4404 40.1681L28.3838 37.2247L27.6767 36.5176ZM23.7907 32.6363L23.0835 31.9292L20.1199 34.8929L20.827 35.6L21.5341 36.3071L24.4978 33.3434L23.7907 32.6363ZM23.2437 37.0635L22.5445 36.3485L20.1511 38.6893L20.8503 39.4042L21.5495 40.1191L23.9429 37.7784L23.2437 37.0635Z" fill="#886BF9"/>
</svg>
