<svg width="49" height="48" viewBox="0 0 49 48" fill="none" xmlns="http://www.w3.org/2000/svg">
<rect x="0.666626" width="48" height="48" rx="8" fill="#EBE6FF"/>
<path d="M26.6666 15V14.25L25.9166 14.25V15L26.6666 15ZM33.6666 15H34.4166V14.25L33.6666 14.25V15ZM33.6666 29.5H32.9166H33.6666ZM26.6666 29.5H27.4166H26.6666ZM34.6666 15.75C35.0808 15.75 35.4166 15.4142 35.4166 15C35.4166 14.5858 35.0808 14.25 34.6666 14.25V15V15.75ZM25.6666 14.25C25.2524 14.25 24.9166 14.5858 24.9166 15C24.9166 15.4142 25.2524 15.75 25.6666 15.75V15V14.25ZM29.6666 19.75C30.0808 19.75 30.4166 19.4142 30.4166 19C30.4166 18.5858 30.0808 18.25 29.6666 18.25V19V19.75ZM26.6666 18.25C26.2524 18.25 25.9166 18.5858 25.9166 19C25.9166 19.4142 26.2524 19.75 26.6666 19.75V19V18.25ZM18.6666 22L19.1858 21.4588C18.8957 21.1804 18.4376 21.1804 18.1474 21.4588L18.6666 22ZM26.1981 23.4143C25.8747 23.6731 25.8222 24.1451 26.081 24.4685C26.3397 24.792 26.8117 24.8444 27.1351 24.5857L26.6666 24L26.1981 23.4143ZM30.4376 22.7626L30.8235 22.1195H30.8234L30.4376 22.7626ZM33.6632 22.0025L34.1132 22.6025L34.1133 22.6025L33.6632 22.0025ZM34.1167 22.6C34.448 22.3514 34.5151 21.8813 34.2666 21.5499C34.018 21.2186 33.5479 21.1515 33.2166 21.4L33.6666 22L34.1167 22.6ZM26.6666 29.5H27.4166L27.4166 15L26.6666 15L25.9166 15L25.9166 29.5H26.6666ZM26.6666 15V15.75L33.6666 15.75V15V14.25L26.6666 14.25V15ZM33.6666 15H32.9166V29.5H33.6666H34.4166V15H33.6666ZM33.6666 29.5H32.9166C32.9166 31.0188 31.6854 32.25 30.1666 32.25V33V33.75C32.5138 33.75 34.4166 31.8472 34.4166 29.5H33.6666ZM26.6666 29.5H25.9166C25.9166 31.8472 27.8194 33.75 30.1666 33.75V33V32.25C28.6478 32.25 27.4166 31.0188 27.4166 29.5H26.6666ZM34.6666 15V14.25H25.6666V15V15.75H34.6666V15ZM29.6666 19V18.25H26.6666V19V19.75H29.6666V19ZM22.6666 28.875H21.9166C21.9166 30.2174 21.4823 31.026 20.9248 31.5104C20.3481 32.0113 19.5417 32.25 18.6666 32.25V33V33.75C19.7916 33.75 20.9851 33.445 21.9085 32.6428C22.8509 31.824 23.4166 30.5702 23.4166 28.875H22.6666ZM18.6666 33V32.25C17.7916 32.25 16.9851 32.0113 16.4085 31.5104C15.8509 31.026 15.4166 30.2174 15.4166 28.875H14.6666H13.9166C13.9166 30.5702 14.4823 31.824 15.4248 32.6428C16.3481 33.445 17.5417 33.75 18.6666 33.75V33ZM14.6666 28.875H15.4166C15.4166 28.2707 15.6186 27.5765 15.9687 26.842C16.3155 26.1141 16.7854 25.3928 17.2675 24.7472C17.7482 24.1036 18.2305 23.5491 18.5933 23.1551C18.7743 22.9586 18.9246 22.803 19.0287 22.6976C19.0807 22.6448 19.1211 22.6047 19.1479 22.5782C19.1614 22.565 19.1714 22.5552 19.1778 22.549C19.181 22.5459 19.1833 22.5437 19.1846 22.5424C19.1853 22.5417 19.1858 22.5413 19.186 22.5411C19.1861 22.541 19.1861 22.541 19.1861 22.541C19.1861 22.541 19.186 22.5411 19.186 22.5411C19.1859 22.5411 19.1858 22.5412 18.6666 22C18.1474 21.4588 18.1473 21.4589 18.1472 21.459C18.1471 21.4591 18.1469 21.4592 18.1468 21.4594C18.1465 21.4596 18.1462 21.4599 18.1458 21.4603C18.1451 21.461 18.1441 21.462 18.1428 21.4632C18.1403 21.4656 18.1369 21.4689 18.1325 21.4732C18.1238 21.4817 18.1114 21.4938 18.0955 21.5094C18.0638 21.5407 18.0182 21.5859 17.9609 21.6441C17.8462 21.7603 17.6839 21.9283 17.4899 22.139C17.1027 22.5595 16.5851 23.1542 16.0657 23.8496C15.5479 24.5431 15.0177 25.3507 14.6146 26.1967C14.2146 27.0359 13.9166 27.9605 13.9166 28.875H14.6666ZM18.6666 22C18.1474 22.5412 18.1473 22.5411 18.1472 22.5411C18.1472 22.5411 18.1472 22.541 18.1472 22.541C18.1472 22.541 18.1472 22.541 18.1473 22.5411C18.1475 22.5413 18.1479 22.5417 18.1486 22.5424C18.15 22.5437 18.1523 22.5459 18.1555 22.549C18.1619 22.5552 18.1719 22.565 18.1853 22.5782C18.2122 22.6047 18.2526 22.6448 18.3046 22.6976C18.4087 22.803 18.5589 22.9586 18.7399 23.1551C19.1027 23.5491 19.5851 24.1036 20.0657 24.7472C20.5479 25.3928 21.0177 26.1141 21.3646 26.842C21.7146 27.5765 21.9166 28.2707 21.9166 28.875H22.6666H23.4166C23.4166 27.9605 23.1186 27.0359 22.7187 26.1967C22.3155 25.3507 21.7854 24.5431 21.2675 23.8496C20.7482 23.1542 20.2305 22.5595 19.8433 22.139C19.6493 21.9283 19.4871 21.7603 19.3724 21.6441C19.315 21.5859 19.2695 21.5407 19.2378 21.5094C19.2219 21.4938 19.2095 21.4817 19.2007 21.4732C19.1964 21.4689 19.1929 21.4656 19.1904 21.4632C19.1892 21.462 19.1882 21.461 19.1874 21.4603C19.187 21.4599 19.1867 21.4596 19.1864 21.4594C19.1863 21.4592 19.1862 21.4591 19.1861 21.459C19.186 21.4589 19.1858 21.4588 18.6666 22ZM26.6666 24L27.1351 24.5857C27.7412 24.1008 28.212 23.6601 28.7411 23.3956C29.198 23.1672 29.5891 23.1282 30.0517 23.4057L30.4376 22.7626L30.8234 22.1195C29.8124 21.5128 28.8597 21.6593 28.0702 22.054C27.3529 22.4126 26.6751 23.0327 26.1981 23.4143L26.6666 24ZM30.4376 22.7626L30.0517 23.4057C30.8849 23.9056 31.6893 23.8935 32.4037 23.6361C33.0616 23.399 33.6525 22.9481 34.1132 22.6025L33.6632 22.0025L33.2132 21.4025C32.7091 21.7807 32.3017 22.0784 31.8953 22.2249C31.5453 22.3509 31.2193 22.357 30.8235 22.1195L30.4376 22.7626ZM33.6632 22.0025L34.1133 22.6025L34.1167 22.6L33.6666 22L33.2166 21.4L33.2132 21.4026L33.6632 22.0025Z" fill="#886BF9"/>
</svg>
