<svg width="24" height="24" viewBox="0 0 24 24" fill="none" xmlns="http://www.w3.org/2000/svg">
<path d="M11.2498 16.5C11.2498 16.9142 11.5855 17.25 11.9998 17.25C12.414 17.25 12.7498 16.9142 12.7498 16.5H11.9998H11.2498ZM12.7498 14.5C12.7498 14.0858 12.414 13.75 11.9998 13.75C11.5855 13.75 11.2498 14.0858 11.2498 14.5H11.9998H12.7498ZM19.7319 12.1553L20.4752 12.0552L19.7319 12.1553ZM16.4401 9.09909L16.4745 8.34988L16.4401 9.09909ZM16.4401 21.9009L16.4057 21.1517L16.4401 21.9009ZM19.7319 18.8447L18.9887 18.7447L19.7319 18.8447ZM7.55941 9.09909L7.59386 9.8483L7.55941 9.09909ZM4.26757 12.1553L5.01086 12.2553L4.26757 12.1553ZM7.55941 21.9009L7.52497 22.6501L7.55941 21.9009ZM4.26757 18.8447L5.01086 18.7447L4.26757 18.8447ZM6.74976 9C6.74976 9.41421 7.08554 9.75 7.49976 9.75C7.91397 9.75 8.24976 9.41421 8.24976 9H7.49976H6.74976ZM15.7498 9C15.7498 9.41421 16.0855 9.75 16.4998 9.75C16.914 9.75 17.2498 9.41421 17.2498 9H16.4998H15.7498ZM11.9998 16.5H12.7498V14.5H11.9998H11.2498V16.5H11.9998ZM11.9998 22V21.25C10.4262 21.25 8.99866 21.2163 7.59386 21.1517L7.55941 21.9009L7.52497 22.6501C8.9534 22.7158 10.4039 22.75 11.9998 22.75V22ZM16.4401 21.9009L16.4057 21.1517C15.0009 21.2163 13.5733 21.25 11.9998 21.25V22V22.75C13.5956 22.75 15.0461 22.7158 16.4745 22.6501L16.4401 21.9009ZM19.7319 18.8447L20.4752 18.9448C20.6234 17.8444 20.7498 16.6882 20.7498 15.5H19.9998H19.2498C19.2498 16.5871 19.134 17.6649 18.9887 18.7447L19.7319 18.8447ZM19.9998 15.5H20.7498C20.7498 14.3118 20.6234 13.1556 20.4752 12.0552L19.7319 12.1553L18.9887 12.2553C19.134 13.3351 19.2498 14.4129 19.2498 15.5H19.9998ZM11.9998 9V9.75C13.5733 9.75 15.0009 9.78372 16.4057 9.8483L16.4401 9.09909L16.4745 8.34988C15.0461 8.28422 13.5956 8.25 11.9998 8.25V9ZM7.55941 9.09909L7.59386 9.8483C8.99866 9.78372 10.4262 9.75 11.9998 9.75V9V8.25C10.4039 8.25 8.9534 8.28422 7.52497 8.34988L7.55941 9.09909ZM4.26757 12.1553L3.52427 12.0552C3.37612 13.1556 3.24976 14.3118 3.24976 15.5H3.99976H4.74976C4.74976 14.4129 4.86548 13.3351 5.01086 12.2553L4.26757 12.1553ZM3.99976 15.5H3.24976C3.24976 16.6882 3.37612 17.8444 3.52427 18.9448L4.26757 18.8447L5.01086 18.7447C4.86548 17.6649 4.74976 16.5871 4.74976 15.5H3.99976ZM19.7319 12.1553L20.4752 12.0552C20.2037 10.0382 18.5326 8.4445 16.4745 8.34988L16.4401 9.09909L16.4057 9.8483C17.7147 9.90848 18.8105 10.9319 18.9887 12.2553L19.7319 12.1553ZM16.4401 21.9009L16.4745 22.6501C18.5326 22.5555 20.2037 20.9618 20.4752 18.9448L19.7319 18.8447L18.9887 18.7447C18.8105 20.0681 17.7147 21.0915 16.4057 21.1517L16.4401 21.9009ZM7.55941 9.09909L7.52497 8.34988C5.46692 8.4445 3.79584 10.0382 3.52427 12.0552L4.26757 12.1553L5.01086 12.2553C5.18905 10.9319 6.28486 9.90848 7.59386 9.8483L7.55941 9.09909ZM7.55941 21.9009L7.59386 21.1517C6.28486 21.0915 5.18905 20.0681 5.01086 18.7447L4.26757 18.8447L3.52427 18.9448C3.79584 20.9618 5.46692 22.5555 7.52497 22.6501L7.55941 21.9009ZM7.49976 9H8.24976V6.5H7.49976H6.74976V9H7.49976ZM16.4998 6.5H15.7498V9H16.4998H17.2498V6.5H16.4998ZM11.9998 2V2.75C14.0708 2.75 15.7498 4.42893 15.7498 6.5H16.4998H17.2498C17.2498 3.6005 14.8993 1.25 11.9998 1.25V2ZM7.49976 6.5H8.24976C8.24976 4.42893 9.92869 2.75 11.9998 2.75V2V1.25C9.10026 1.25 6.74976 3.6005 6.74976 6.5H7.49976Z" fill="#374151"/>
</svg>
