<svg width="32" height="32" viewBox="0 0 32 32" fill="none" xmlns="http://www.w3.org/2000/svg">
<path d="M5.62989 29.3263V24.5933C5.62989 22.8981 5.18596 22.0169 4.31335 20.5436C3.26734 18.7775 2.66693 16.7165 2.66693 14.5153C2.66693 7.97138 7.97319 2.6665 14.5188 2.6665C21.0644 2.6665 26.3706 7.97138 26.3706 14.5153C26.3706 15.2882 26.3706 15.6748 26.4029 15.8915C26.4799 16.4095 26.7217 16.8551 26.9595 17.3162L29.3336 21.9208L27.4678 22.8534C26.927 23.1238 26.6566 23.2589 26.4683 23.5083C26.2799 23.7578 26.2269 24.0393 26.1208 24.6024L26.1104 24.6572C25.8675 25.9473 25.5993 27.3713 24.8441 28.2697C24.5775 28.5869 24.2473 28.8447 23.8748 29.0264C23.2599 29.3263 22.5039 29.3263 20.9918 29.3263C20.2922 29.3263 19.5907 29.3424 18.8912 29.3254C17.2332 29.2851 16.0003 27.891 16.0003 26.2724M14.0058 11.063C14.0058 10.0309 13.4845 9.12141 12.6924 8.58684M12.6924 8.58684C10.2234 6.92039 6.93189 9.91074 8.49778 12.577C5.8698 12.971 6.15077 17.021 8.82745 17.021C9.57804 17.021 10.2416 16.6458 10.6432 16.0716M12.6924 8.58684C13.78 5.4666 18.5817 6.37085 18.4417 9.70159C18.6739 9.61865 18.9238 9.5735 19.1842 9.5735C22.0499 9.5735 22.0499 14.042 19.1842 14.042M17.7046 13.4731C18.0973 13.8269 18.6158 14.042 19.1842 14.042M19.1842 14.042C19.1842 15.5698 18.299 17.021 16.595 17.021C14.891 17.021 14.0058 18.4721 14.0058 19.9999" stroke="#374151" stroke-width="2" stroke-linecap="round" stroke-linejoin="round"/>
</svg>
