<svg width="48" height="48" viewBox="0 0 48 48" fill="none" xmlns="http://www.w3.org/2000/svg">
<rect width="48" height="48" rx="8" fill="#EBE6FF"/>
<path d="M23.5999 29.0403C23.5999 29.4821 23.958 29.8403 24.3999 29.8403C24.8417 29.8403 25.1999 29.4821 25.1999 29.0403H24.3999H23.5999ZM25.1999 26.8003C25.1999 26.3585 24.8417 26.0003 24.3999 26.0003C23.958 26.0003 23.5999 26.3585 23.5999 26.8003H24.3999H25.1999ZM33.0599 24.1742L33.8528 24.0674L33.0599 24.1742ZM29.373 20.7513L29.4098 19.9521L29.373 20.7513ZM29.373 35.0893L29.3363 34.2902L29.373 35.0893ZM33.0599 31.6664L32.2671 31.5597L33.0599 31.6664ZM19.4267 20.7513L19.4634 21.5504L19.4267 20.7513ZM15.7398 24.1742L16.5326 24.2809L15.7398 24.1742ZM19.4267 35.0893L19.3899 35.8885L19.4267 35.0893ZM15.7398 31.6664L16.5326 31.5597L15.7398 31.6664ZM18.5599 20.6403C18.5599 21.0821 18.918 21.4403 19.3599 21.4403C19.8017 21.4403 20.1599 21.0821 20.1599 20.6403H19.3599H18.5599ZM28.6399 20.6403C28.6399 21.0821 28.998 21.4403 29.4399 21.4403C29.8817 21.4403 30.2399 21.0821 30.2399 20.6403H29.4399H28.6399ZM24.3999 29.0403H25.1999V26.8003H24.3999H23.5999V29.0403H24.3999ZM24.3999 35.2003V34.4003C22.6369 34.4003 21.0374 34.3625 19.4634 34.2902L19.4267 35.0893L19.3899 35.8885C20.9891 35.962 22.6131 36.0003 24.3999 36.0003V35.2003ZM29.373 35.0893L29.3363 34.2902C27.7623 34.3625 26.1628 34.4003 24.3999 34.4003V35.2003V36.0003C26.1866 36.0003 27.8106 35.962 29.4098 35.8885L29.373 35.0893ZM33.0599 31.6664L33.8528 31.7732C34.0186 30.5413 34.1598 29.2483 34.1598 27.9203H33.3598H32.5599C32.5599 29.1405 32.43 30.3498 32.2671 31.5597L33.0599 31.6664ZM33.3598 27.9203H34.1598C34.1598 26.5923 34.0186 25.2993 33.8528 24.0674L33.0599 24.1742L32.2671 24.2809C32.43 25.4908 32.5599 26.7001 32.5599 27.9203H33.3598ZM24.3999 20.6403V21.4403C26.1628 21.4403 27.7623 21.4781 29.3363 21.5504L29.373 20.7513L29.4098 19.9521C27.8106 19.8786 26.1866 19.8403 24.3999 19.8403V20.6403ZM19.4267 20.7513L19.4634 21.5504C21.0374 21.4781 22.6369 21.4403 24.3999 21.4403V20.6403V19.8403C22.6131 19.8403 20.9891 19.8786 19.3899 19.9521L19.4267 20.7513ZM15.7398 24.1742L14.947 24.0674C14.7811 25.2993 14.6398 26.5922 14.6398 27.9203H15.4398H16.2398C16.2398 26.7001 16.3697 25.4908 16.5326 24.2809L15.7398 24.1742ZM15.4398 27.9203H14.6398C14.6398 29.2483 14.7811 30.5413 14.947 31.7732L15.7398 31.6664L16.5326 31.5597C16.3697 30.3498 16.2398 29.1405 16.2398 27.9203H15.4398ZM33.0599 24.1742L33.8528 24.0674C33.5511 21.8269 31.6948 20.0572 29.4098 19.9521L29.373 20.7513L29.3363 21.5504C30.8223 21.6188 32.065 22.7802 32.2671 24.2809L33.0599 24.1742ZM29.373 35.0893L29.4098 35.8885C31.6948 35.7834 33.5511 34.0137 33.8528 31.7732L33.0599 31.6664L32.2671 31.5597C32.065 33.0604 30.8224 34.2218 29.3363 34.2902L29.373 35.0893ZM19.4267 20.7513L19.3899 19.9521C17.1049 20.0572 15.2486 21.8269 14.947 24.0674L15.7398 24.1742L16.5326 24.2809C16.7347 22.7802 17.9774 21.6188 19.4634 21.5504L19.4267 20.7513ZM19.4267 35.0893L19.4634 34.2902C17.9774 34.2218 16.7347 33.0604 16.5326 31.5597L15.7398 31.6664L14.947 31.7732C15.2486 34.0137 17.1049 35.7834 19.3899 35.8885L19.4267 35.0893ZM19.3599 20.6403H20.1599V17.8403H19.3599H18.5599V20.6403H19.3599ZM29.4399 17.8403H28.6399V20.6403H29.4399H30.2399V17.8403H29.4399ZM24.3999 12.8003V13.6003C26.7415 13.6003 28.6399 15.4986 28.6399 17.8403H29.4399H30.2399C30.2399 14.6149 27.6252 12.0003 24.3999 12.0003V12.8003ZM19.3599 17.8403H20.1599C20.1599 15.4986 22.0582 13.6003 24.3999 13.6003V12.8003V12.0003C21.1745 12.0003 18.5599 14.6149 18.5599 17.8403H19.3599Z" fill="#886BF9"/>
</svg>
