<svg width="24" height="24" viewBox="0 0 24 24" fill="none" xmlns="http://www.w3.org/2000/svg">
<path d="M17.2055 7.20277L17.7917 7.67069V7.67069L17.2055 7.20277ZM13.0738 8.65861L12.6757 9.29424V9.29424L13.0738 8.65861ZM11.0079 5.26215L10.689 5.94099L11.0079 5.26215ZM8.61904 18.2288L9.32458 17.9745L9.32458 17.9745L8.61904 18.2288ZM19.1022 13.5405L18.674 12.9248L19.1022 13.5405ZM14.6471 15.0889L13.9869 14.733L14.6471 15.0889ZM22.333 12H23.083C23.083 6.03995 18.0975 1.25 11.9998 1.25V2V2.75C17.3158 2.75 21.583 6.91435 21.583 12H22.333ZM11.9998 2V1.25C5.90201 1.25 0.916504 6.03995 0.916504 12H1.6665H2.4165C2.4165 6.91435 6.68371 2.75 11.9998 2.75V2ZM1.6665 12H0.916504C0.916504 17.96 5.90201 22.75 11.9998 22.75V22V21.25C6.68371 21.25 2.4165 17.0856 2.4165 12H1.6665ZM11.9998 22V22.75C18.0975 22.75 23.083 17.96 23.083 12H22.333H21.583C21.583 17.0856 17.3158 21.25 11.9998 21.25V22ZM17.2055 7.20277L16.6194 6.73485C15.9104 7.62298 15.2581 8.03242 14.7406 8.17979C14.2372 8.32313 13.8106 8.23515 13.4719 8.02299L13.0738 8.65861L12.6757 9.29424C13.3699 9.72902 14.2345 9.88354 15.1514 9.62243C16.0542 9.36535 16.9513 8.7234 17.7917 7.67069L17.2055 7.20277ZM13.0738 8.65861L13.4719 8.02299C13.2176 7.86374 13.1102 7.70535 13.045 7.54937C12.9644 7.35641 12.9363 7.14934 12.883 6.80284C12.8353 6.49258 12.7652 6.06358 12.5348 5.65102C12.2904 5.21355 11.9036 4.85426 11.3268 4.58331L11.0079 5.26215L10.689 5.94099C11.0215 6.09715 11.1538 6.25467 11.2252 6.38249C11.3105 6.53522 11.3527 6.72 11.4005 7.03077C11.4427 7.30531 11.4933 7.72654 11.6611 8.12792C11.8444 8.56629 12.1552 8.96828 12.6757 9.29424L13.0738 8.65861ZM20.2664 5.69899L20.2142 4.9508C19.126 5.0267 17.6542 5.43865 16.6194 6.73485L17.2055 7.20277L17.7917 7.67069C18.4725 6.81782 19.4749 6.50601 20.3185 6.44717L20.2664 5.69899ZM11.0079 5.26215L11.3268 4.58331C10.9849 4.42271 10.7793 4.12945 10.7089 3.73643C10.6357 3.3277 10.7172 2.82525 10.9731 2.36351L10.3171 2L9.66106 1.63649C9.25726 2.3652 9.09164 3.21547 9.23242 4.00102C9.37601 4.80228 9.84572 5.54487 10.689 5.94099L11.0079 5.26215ZM4.85818 12.2682V13.0182C5.51413 13.0182 5.99901 13.0491 6.36138 13.1148C6.72355 13.1805 6.90928 13.2717 7.01153 13.3527C7.17845 13.485 7.33177 13.76 7.33177 14.7518H8.08177H8.83177C8.83177 13.7567 8.71646 12.7899 7.94316 12.1771C7.57531 11.8856 7.12303 11.7284 6.62894 11.6389C6.13504 11.5493 5.54539 11.5182 4.85818 11.5182V12.2682ZM8.08177 14.7518H7.33177C7.33177 15.7189 7.32961 16.2856 7.40773 16.7911C7.48825 17.3123 7.65235 17.7589 7.91349 18.4832L8.61904 18.2288L9.32458 17.9745C9.04845 17.2086 8.94392 16.9102 8.89013 16.5621C8.83393 16.1984 8.83177 15.7716 8.83177 14.7518H8.08177ZM1.6665 11L1.18399 11.5742C2.05223 12.3038 3.3211 13.0182 4.85818 13.0182V12.2682V11.5182C3.79483 11.5182 2.85659 11.0204 2.14902 10.4258L1.6665 11ZM8.61904 18.2288L7.91349 18.4832C8.23753 19.382 8.24931 20.0042 7.81885 20.5187L8.39407 21L8.9693 21.4813C9.93201 20.3306 9.69947 19.0143 9.32458 17.9745L8.61904 18.2288ZM19.1022 13.5405L18.674 12.9248C17.7354 13.5776 16.9672 13.6344 16.2656 13.6653C15.9348 13.68 15.4921 13.6875 15.1028 13.8063C14.6461 13.9457 14.2576 14.2309 13.9869 14.733L14.6471 15.0889L15.3072 15.4449C15.3824 15.3055 15.4453 15.2701 15.5407 15.241C15.7035 15.1913 15.9137 15.1824 16.3318 15.1639C17.128 15.1287 18.2415 15.0527 19.5305 14.1562L19.1022 13.5405ZM22.333 13.4523L22.6983 12.7973C21.6159 12.1936 20.1436 11.9026 18.674 12.9248L19.1022 13.5405L19.5305 14.1562C20.3892 13.5589 21.2168 13.6886 21.9677 14.1074L22.333 13.4523ZM14.6471 15.0889L13.9869 14.733C13.6066 15.4384 13.6691 16.0636 13.8751 16.6082C13.9678 16.853 14.0918 17.0886 14.1947 17.2854C14.3042 17.4947 14.3999 17.6785 14.4798 17.8747C14.63 18.2436 14.72 18.6475 14.6249 19.1871C14.5261 19.747 14.2176 20.5097 13.4584 21.5609L14.0664 22L14.6744 22.4391C15.5146 21.2759 15.9511 20.3035 16.1021 19.4475C16.2566 18.5711 16.1009 17.8782 15.8691 17.309C15.758 17.0362 15.6287 16.7906 15.5239 16.5902C15.4126 16.3773 15.3331 16.2228 15.278 16.0773C15.1886 15.8409 15.1784 15.6837 15.3072 15.4449L14.6471 15.0889Z" fill="#374151"/>
</svg>
