<svg width="32" height="32" viewBox="0 0 32 32" fill="none" xmlns="http://www.w3.org/2000/svg">
<path d="M24 7.99996L22.5999 9.4M6.66666 6.66663L9.33332 9.33329M22.7331 24.0664L22 23.3333M7.99999 25.3997L9.40003 23.9997M25.333 16.0753C25.3746 21.2298 21.2298 25.3746 16.0753 25.333C10.9208 25.2914 6.70856 21.0791 6.66697 15.9246C6.62537 10.7702 10.7702 6.62534 15.9247 6.66694C21.0792 6.70853 25.2914 10.9208 25.333 16.0753ZM22 17.3333C22 18.8061 20.8061 20 19.3333 20C17.8606 20 16.6667 18.8061 16.6667 17.3333C16.6667 15.8605 17.8606 14.6666 19.3333 14.6666C20.8061 14.6666 22 15.8605 22 17.3333ZM14.6667 12C14.6667 12.7363 14.0697 13.3333 13.3333 13.3333C12.5969 13.3333 12 12.7363 12 12C12 11.2636 12.5969 10.6666 13.3333 10.6666C14.0697 10.6666 14.6667 11.2636 14.6667 12ZM13.3333 17.3333C13.3333 18.0697 12.7364 18.6666 12 18.6666C11.2636 18.6666 10.6667 18.0697 10.6667 17.3333C10.6667 16.5969 11.2636 16 12 16C12.7364 16 13.3333 16.5969 13.3333 17.3333ZM28 5.99996C28 7.10453 27.1046 7.99996 26 7.99996C24.8954 7.99996 24 7.10453 24 5.99996C24 4.89539 24.8954 3.99996 26 3.99996C27.1046 3.99996 28 4.89539 28 5.99996ZM2.66666 4.66663C2.66666 5.7712 3.56209 6.66663 4.66666 6.66663C5.77123 6.66663 6.66666 5.7712 6.66666 4.66663C6.66666 3.56206 5.77123 2.66663 4.66666 2.66663C3.56209 2.66663 2.66666 3.56206 2.66666 4.66663ZM2.66666 16C2.66666 17.1045 3.56209 18 4.66666 18C5.77123 18 6.66666 17.1045 6.66666 16C6.66666 14.8954 5.77123 14 4.66666 14C3.56209 14 2.66666 14.8954 2.66666 16ZM26.7331 26.0664C26.7331 24.9618 25.8376 24.0664 24.7331 24.0664C23.6285 24.0664 22.7331 24.9618 22.7331 26.0664C22.7331 27.1709 23.6285 28.0664 24.7331 28.0664C25.8376 28.0664 26.7331 27.1709 26.7331 26.0664ZM3.99999 27.3333C3.99999 26.2287 4.89542 25.3333 5.99999 25.3333C7.10456 25.3333 7.99999 26.2287 7.99999 27.3333C7.99999 28.4379 7.10456 29.3333 5.99999 29.3333C4.89542 29.3333 3.99999 28.4379 3.99999 27.3333ZM18 4.66663C18 5.7712 17.1046 6.66663 16 6.66663C14.8954 6.66663 14 5.7712 14 4.66663C14 3.56206 14.8954 2.66663 16 2.66663C17.1046 2.66663 18 3.56206 18 4.66663ZM28 15.9998C28 17.1044 27.1046 17.9998 26 17.9998C25.7662 17.9998 25.5418 17.9597 25.3333 17.886V14.1136C25.5418 14.0399 25.7662 13.9998 26 13.9998C27.1046 13.9998 28 14.8953 28 15.9998ZM16 26.6666C15.1292 26.6666 14.3883 26.1101 14.1138 25.3332H17.8862C17.6117 26.1101 16.8708 26.6666 16 26.6666Z" stroke="#374151" stroke-width="2"/>
</svg>
