<svg width="20" height="20" viewBox="0 0 20 20" fill="none" xmlns="http://www.w3.org/2000/svg">
<path d="M9.99918 0.160034C15.425 0.160034 19.8392 4.57417 19.8392 10C19.8392 15.4259 15.425 19.84 9.99918 19.84C4.57331 19.84 0.15918 15.4259 0.15918 10C0.15918 4.57417 4.57331 0.160034 9.99918 0.160034ZM7.53918 14.2116C9.88199 14.2116 11.7883 12.3223 11.7883 10C11.7883 9.50624 11.3875 9.10549 10.8937 9.10549H7.83259C7.3388 9.10549 6.93804 9.50624 6.93804 10C6.93804 10.4938 7.3388 10.8946 7.83259 10.8946H9.82519C9.4629 11.7887 8.57462 12.4225 7.53918 12.4225C6.18305 12.4225 5.07918 11.336 5.07918 10C5.07918 8.66403 6.18305 7.5776 7.53918 7.5776C8.06428 7.5776 8.56478 7.73817 8.98745 8.04232C9.3891 8.33171 9.94774 8.23912 10.2358 7.83836C10.5247 7.43761 10.433 6.87852 10.0323 6.58958C9.30322 6.06538 8.44133 5.78807 7.53918 5.78807C5.19636 5.78807 3.29009 7.67735 3.29009 9.99959C3.29009 12.3218 5.19636 14.2116 7.53918 14.2116ZM16.0374 10.8946C16.5311 10.8946 16.9319 10.4938 16.9319 10C16.9319 9.50624 16.5311 9.10549 16.0374 9.10549H15.6129V8.45694C15.6129 7.96315 15.2121 7.5624 14.7184 7.5624C14.2246 7.5624 13.8238 7.96315 13.8238 8.45694V9.10549H13.3537C12.8599 9.10549 12.4592 9.50624 12.4592 10C12.4592 10.4938 12.8599 10.8946 13.3537 10.8946H13.8238V11.5431C13.8238 12.0369 14.2246 12.4377 14.7184 12.4377C15.2121 12.4377 15.6129 12.0369 15.6129 11.5431V10.8946H16.0374Z" fill="#E7E7E7"/>
</svg>
