<svg width="20" height="20" viewBox="0 0 20 20" fill="none" xmlns="http://www.w3.org/2000/svg">
<path d="M9.91077 0.160034C0.866829 0.160034 0.15918 0.868176 0.15918 9.91163V10.0884C0.15918 19.1319 0.86683 19.84 9.91077 19.84H10.0876C19.1315 19.84 19.8392 19.1319 19.8392 10.0884V10C19.8392 0.874418 19.1248 0.160034 9.99918 0.160034H9.91077ZM15.9003 3.11203C16.444 3.11056 16.8857 3.54949 16.8872 4.09315C16.8887 4.63681 16.4497 5.07856 15.9061 5.08003C15.3624 5.08151 14.9207 4.64258 14.9192 4.09892C14.9177 3.55526 15.3566 3.11351 15.9003 3.11203ZM9.98765 5.08003C12.7045 5.07364 14.9128 7.27168 14.9192 9.9885C14.9256 12.7053 12.7275 14.9136 10.0107 14.92C7.29389 14.9264 5.08558 12.7284 5.07918 10.0116C5.07278 7.29474 7.27082 5.08643 9.98765 5.08003ZM9.99245 7.04803C8.36196 7.05197 7.04324 8.37723 7.04718 10.0077C7.05112 11.6377 8.37591 12.956 10.0059 12.952C11.6364 12.9481 12.9551 11.6233 12.9512 9.99331C12.9472 8.36282 11.6224 7.0441 9.99245 7.04803Z" fill="#E7E7E7"/>
</svg>
