<svg width="20" height="21" viewBox="0 0 20 21" fill="none" xmlns="http://www.w3.org/2000/svg">
<path d="M12.9167 9.66666C12.9167 11.2775 11.6108 12.5833 10 12.5833C8.38917 12.5833 7.08333 11.2775 7.08333 9.66666C7.08333 8.05583 8.38917 6.74999 10 6.74999C11.6108 6.74999 12.9167 8.05583 12.9167 9.66666Z" stroke="#374151" stroke-width="1.25"/>
<path d="M10 2.16666C14.0588 2.16666 17.5 5.52747 17.5 9.60479C17.5 13.7471 14.0028 16.6539 10.7725 18.6306C10.5371 18.7634 10.2709 18.8333 10 18.8333C9.72913 18.8333 9.46291 18.7634 9.2275 18.6306C6.00325 16.6346 2.5 13.7614 2.5 9.60479C2.5 5.52747 5.9412 2.16666 10 2.16666Z" stroke="#374151" stroke-width="1.25"/>
</svg>
