<svg width="20" height="20" viewBox="0 0 20 20" fill="none" xmlns="http://www.w3.org/2000/svg">
<path d="M17.4963 0.160034H2.50204C1.20878 0.160034 0.15918 1.20963 0.15918 2.50289V17.4972C0.15918 18.7904 1.20878 19.84 2.50204 19.84H17.4963C18.7896 19.84 19.8392 18.7904 19.8392 17.4972V2.50289C19.8392 1.20963 18.7896 0.160034 17.4963 0.160034ZM6.25061 7.65718V16.56H3.43918V7.65718H6.25061ZM3.43918 5.06598C3.43918 4.40998 4.00147 3.90861 4.84489 3.90861C5.68832 3.90861 6.21781 4.40998 6.25061 5.06598C6.25061 5.72198 5.72581 6.25146 4.84489 6.25146C4.00147 6.25146 3.43918 5.72198 3.43918 5.06598ZM16.5592 16.56H13.7478C13.7478 16.56 13.7478 12.2211 13.7478 11.8743C13.7478 10.9372 13.2792 10 12.1077 9.98129H12.0703C10.9363 9.98129 10.4678 10.9465 10.4678 11.8743C10.4678 12.3007 10.4678 16.56 10.4678 16.56H7.65632V7.65718H10.4678V8.85672C10.4678 8.85672 11.3721 7.65718 13.1902 7.65718C15.0504 7.65718 16.5592 8.93638 16.5592 11.5276V16.56Z" fill="#E7E7E7"/>
</svg>
