<svg width="20" height="21" viewBox="0 0 20 21" fill="none" xmlns="http://www.w3.org/2000/svg">
<path d="M1.66797 11.6905V7.16669H18.3346V11.6905C18.3346 15.0577 18.3346 16.7413 17.2498 17.7873C16.1651 18.8334 14.4191 18.8334 10.9272 18.8334H9.07538C5.58349 18.8334 3.83755 18.8334 2.75276 17.7873C1.66797 16.7413 1.66797 15.0577 1.66797 11.6905Z" stroke="#886BF9" stroke-width="1.25" stroke-linecap="round" stroke-linejoin="round"/>
<path d="M1.66797 7.16669L2.46925 5.24361C3.09069 3.75216 3.40141 3.00644 4.03122 2.58656C4.66103 2.16669 5.4689 2.16669 7.08464 2.16669H12.918C14.5337 2.16669 15.3416 2.16669 15.9714 2.58656C16.6012 3.00644 16.9119 3.75216 17.5334 5.24361L18.3346 7.16669" stroke="#886BF9" stroke-width="1.25" stroke-linecap="round"/>
<path d="M10 7.16669V2.16669" stroke="#886BF9" stroke-width="1.25" stroke-linecap="round"/>
<path d="M8.33398 10.5H11.6673" stroke="#886BF9" stroke-width="1.25" stroke-linecap="round"/>
</svg>
