<svg width="20" height="21" viewBox="0 0 20 21" fill="none" xmlns="http://www.w3.org/2000/svg">
<path d="M17.3114 15.5C17.9358 15.5 18.4325 15.107 18.8784 14.5576C19.7913 13.4329 18.2924 12.534 17.7208 12.0938C17.1397 11.6463 16.4909 11.3928 15.833 11.3333M14.9997 9.66665C16.1503 9.66665 17.083 8.73391 17.083 7.58331C17.083 6.43272 16.1503 5.49998 14.9997 5.49998M2.68797 15.5C2.06355 15.5 1.5669 15.107 1.12096 14.5576C0.208082 13.4329 1.7069 12.534 2.27855 12.0938C2.85965 11.6463 3.50849 11.3928 4.16634 11.3333M4.58301 9.66665C3.43241 9.66665 2.49967 8.73391 2.49967 7.58331C2.49967 6.43272 3.43241 5.49998 4.58301 5.49998M6.73618 13.0926C8.73289 11.858 11.2665 11.858 13.2632 13.0926C14.1147 13.6191 16.3472 14.6942 14.9874 16.0395C14.3232 16.6967 13.5834 17.1666 12.6533 17.1666H7.34603C6.41594 17.1666 5.67616 16.6967 5.01192 16.0395C3.65216 14.6942 5.8847 13.6191 6.73618 13.0926ZM12.9163 6.74998C12.9163 8.36081 11.6105 9.66665 9.99967 9.66665C8.38884 9.66665 7.08301 8.36081 7.08301 6.74998C7.08301 5.13915 8.38884 3.83331 9.99967 3.83331C11.6105 3.83331 12.9163 5.13915 12.9163 6.74998Z" stroke="#374151" stroke-width="1.25"/>
</svg>
