<svg width="20" height="21" viewBox="0 0 20 21" fill="none" xmlns="http://www.w3.org/2000/svg">
<path d="M5.83268 7.58332L8.28436 9.03285C9.7137 9.87792 10.285 9.87792 11.7143 9.03285L14.166 7.58332M7.5817 3.44711C9.19877 3.40648 10.7999 3.40649 12.417 3.44712C15.0407 3.51304 16.3526 3.546 17.2952 4.49219C18.2378 5.43839 18.2651 6.71569 18.3195 9.2703C18.3371 10.0917 18.3371 10.9083 18.3195 11.7297C18.2651 14.2843 18.2378 15.5616 17.2952 16.5078C16.3526 17.454 15.0407 17.4869 12.417 17.5528C10.7999 17.5935 9.19878 17.5935 7.58171 17.5528C4.95796 17.4869 3.64609 17.454 2.70348 16.5078C1.76087 15.5616 1.73363 14.2843 1.67915 11.7297C1.66164 10.9083 1.66164 10.0917 1.67915 9.27029C1.73363 6.71568 1.76087 5.43837 2.70348 4.49218C3.64608 3.54599 4.95796 3.51303 7.5817 3.44711Z" stroke="#374151" stroke-width="1.25" stroke-linecap="round" stroke-linejoin="round"/>
</svg>
