<svg width="60" height="60" viewBox="0 0 60 60" fill="none" xmlns="http://www.w3.org/2000/svg">
<rect width="60" height="60" rx="10" fill="#EBE6FF"/>
<path d="M28.6666 38.3333C28.1143 38.3333 27.6666 38.781 27.6666 39.3333C27.6666 39.8856 28.1143 40.3333 28.6666 40.3333V39.3333V38.3333ZM31.3333 40.3333C31.8856 40.3333 32.3333 39.8856 32.3333 39.3333C32.3333 38.781 31.8856 38.3333 31.3333 38.3333V39.3333V40.3333ZM26.1186 17.3787L25.1322 17.5431V17.5431L26.1186 17.3787ZM33.8813 17.3787L32.8949 17.2143V17.2143L33.8813 17.3787ZM32.9664 20.1627L33.63 20.9107V20.9107L32.9664 20.1627ZM27.0335 20.1627L26.3699 20.9107L26.3699 20.9107L27.0335 20.1627ZM39.3333 26H38.3333V34H39.3333H40.3333V26H39.3333ZM20.6666 34H21.6666V26H20.6666H19.6666V34H20.6666ZM30 43.3333V42.3333C27.7718 42.3333 26.2013 42.3312 25.0126 42.1714C23.8527 42.0154 23.2072 41.726 22.7406 41.2593L22.0335 41.9665L21.3264 42.6736C22.2265 43.5738 23.3644 43.9678 24.7461 44.1535C26.099 44.3354 27.8283 44.3333 30 44.3333V43.3333ZM20.6666 34H19.6666C19.6666 36.1716 19.6645 37.9009 19.8464 39.2538C20.0322 40.6355 20.4262 41.7734 21.3264 42.6736L22.0335 41.9665L22.7406 41.2593C22.2739 40.7927 21.9845 40.1472 21.8286 38.9873C21.6687 37.7986 21.6666 36.2281 21.6666 34H20.6666ZM39.3333 34H38.3333C38.3333 36.2281 38.3312 37.7986 38.1714 38.9873C38.0154 40.1472 37.726 40.7927 37.2593 41.2593L37.9665 41.9665L38.6736 42.6736C39.5737 41.7734 39.9678 40.6355 40.1535 39.2538C40.3354 37.9009 40.3333 36.1716 40.3333 34H39.3333ZM30 43.3333V44.3333C32.1716 44.3333 33.9009 44.3354 35.2538 44.1535C36.6355 43.9678 37.7734 43.5738 38.6736 42.6736L37.9665 41.9665L37.2593 41.2593C36.7927 41.726 36.1472 42.0154 34.9873 42.1714C33.7986 42.3312 32.2281 42.3333 30 42.3333V43.3333ZM30 16.6666V17.6666C32.2281 17.6666 33.7986 17.6687 34.9873 17.8286C36.1472 17.9845 36.7927 18.2739 37.2593 18.7406L37.9665 18.0335L38.6736 17.3264C37.7734 16.4262 36.6355 16.0322 35.2538 15.8464C33.9009 15.6645 32.1716 15.6666 30 15.6666V16.6666ZM39.3333 26H40.3333C40.3333 23.8283 40.3354 22.099 40.1535 20.7461C39.9678 19.3644 39.5737 18.2265 38.6736 17.3264L37.9665 18.0335L37.2593 18.7406C37.726 19.2072 38.0154 19.8527 38.1714 21.0126C38.3312 22.2013 38.3333 23.7718 38.3333 26H39.3333ZM30 16.6666V15.6666C27.8283 15.6666 26.099 15.6645 24.7461 15.8464C23.3644 16.0322 22.2265 16.4262 21.3264 17.3264L22.0335 18.0335L22.7406 18.7406C23.2072 18.2739 23.8527 17.9845 25.0126 17.8286C26.2013 17.6687 27.7718 17.6666 30 17.6666V16.6666ZM20.6666 26H21.6666C21.6666 23.7718 21.6687 22.2013 21.8286 21.0126C21.9845 19.8527 22.2739 19.2072 22.7406 18.7406L22.0335 18.0335L21.3264 17.3264C20.4262 18.2265 20.0322 19.3644 19.8464 20.7461C19.6645 22.099 19.6666 23.8283 19.6666 26H20.6666ZM28.6666 39.3333V40.3333H31.3333V39.3333V38.3333H28.6666V39.3333ZM25.9999 16.6667L25.0135 16.8311L25.1322 17.5431L26.1186 17.3787L27.105 17.2143L26.9863 16.5023L25.9999 16.6667ZM33.8813 17.3787L34.8677 17.5431L34.9863 16.8311L33.9999 16.6667L33.0135 16.5023L32.8949 17.2143L33.8813 17.3787ZM33.8813 17.3787L32.8949 17.2143C32.7622 18.0103 32.6758 18.5186 32.5663 18.8917C32.4642 19.2395 32.3735 19.3519 32.3027 19.4147L32.9664 20.1627L33.63 20.9107C34.0884 20.5041 34.3265 19.996 34.4853 19.4549C34.6367 18.939 34.7432 18.2902 34.8677 17.5431L33.8813 17.3787ZM26.1186 17.3787L25.1322 17.5431C25.2567 18.2902 25.3631 18.939 25.5145 19.4549C25.6733 19.996 25.9115 20.5041 26.3699 20.9107L27.0335 20.1627L27.6972 19.4147C27.6264 19.3519 27.5357 19.2395 27.4336 18.8917C27.3241 18.5187 27.2377 18.0103 27.105 17.2143L26.1186 17.3787ZM29.9999 20.6667V19.6667C29.1612 19.6667 28.6345 19.6611 28.2487 19.6078C27.8963 19.5591 27.7751 19.4838 27.6972 19.4147L27.0335 20.1627L26.3699 20.9107C26.844 21.3314 27.39 21.5081 27.9749 21.5889C28.5263 21.6651 29.2069 21.6667 29.9999 21.6667V20.6667ZM29.9999 20.6667V21.6667C30.793 21.6667 31.4735 21.6651 32.025 21.5889C32.6099 21.5081 33.1559 21.3314 33.63 20.9107L32.9664 20.1627L32.3027 19.4147C32.2248 19.4838 32.1035 19.5591 31.7512 19.6078C31.3654 19.6611 30.8387 19.6667 29.9999 19.6667V20.6667Z" fill="#886BF9"/>
</svg>
