<svg width="20" height="21" viewBox="0 0 20 21" fill="none" xmlns="http://www.w3.org/2000/svg">
<path d="M18.3327 10.1389C18.3327 14.5415 14.6012 18.1112 9.99935 18.1112C9.45825 18.1119 8.91872 18.0619 8.38719 17.962C8.00462 17.8902 7.81333 17.8543 7.67979 17.8747C7.54624 17.8951 7.357 17.9957 6.9785 18.197C5.9078 18.7664 4.65931 18.9675 3.45861 18.7441C3.91497 18.1828 4.22664 17.5093 4.36416 16.7873C4.4475 16.3457 4.24102 15.9166 3.93176 15.6026C2.52713 14.1763 1.66602 12.2542 1.66602 10.1389C1.66602 5.7363 5.3975 2.16666 9.99935 2.16666C14.6012 2.16666 18.3327 5.7363 18.3327 10.1389Z" stroke="#374151" stroke-width="1.25" stroke-linejoin="round"/>
<path d="M8.33398 8.70512C8.33398 7.85545 9.08018 7.16666 10.0007 7.16666C10.9211 7.16666 11.6673 7.85545 11.6673 8.70512C11.6673 9.01139 11.5704 9.29676 11.4032 9.5365C10.9052 10.251 10.0007 10.9324 10.0007 11.782V12.1667" stroke="#374151" stroke-width="1.25" stroke-linecap="round"/>
<path d="M10 14.25H10.0075" stroke="#374151" stroke-width="1.25" stroke-linecap="round" stroke-linejoin="round"/>
</svg>
