<svg width="20" height="21" viewBox="0 0 20 21" fill="none" xmlns="http://www.w3.org/2000/svg">
<path d="M11.2503 6.33334H12.0361C13.1281 6.33334 13.6741 6.33334 14.1371 6.59544C14.6 6.85754 14.9086 7.34144 15.526 8.30923C15.9588 8.98786 16.4132 9.48044 17.0521 9.91867C17.6954 10.3599 18.0013 10.5755 18.1711 10.9217C18.3337 11.2532 18.3337 11.6458 18.3337 12.4311C18.3337 13.4664 18.3337 13.984 18.0428 14.3129C18.0304 14.3271 18.0175 14.3408 18.0044 14.3542C17.6982 14.6667 17.2165 14.6667 16.2529 14.6667H15.8337M12.5003 14.6667H9.16699M10.8337 6.33334L11.6622 8.40464C12.0681 9.41948 12.2711 9.9269 12.6943 10.2135C13.1176 10.5 13.6641 10.5 14.7571 10.5H17.5003M10.8337 6.33334V14.6667H7.2467M10.8337 6.33334C10.8337 5.15483 10.8337 4.56558 10.4835 4.19946C10.1333 3.83334 9.56963 3.83334 8.44235 3.83334H4.0583C2.93102 3.83334 2.36739 3.83334 2.01719 4.19946C1.66699 4.56558 1.66699 5.15483 1.66699 6.33334V12.1667C1.66699 13.3452 1.66699 13.9344 2.01719 14.3006C2.36739 14.6667 2.93102 14.6667 4.0583 14.6667M15.8337 15.5C15.8337 16.4205 15.0875 17.1667 14.167 17.1667C13.2465 17.1667 12.5003 16.4205 12.5003 15.5C12.5003 14.5795 13.2465 13.8333 14.167 13.8333C15.0875 13.8333 15.8337 14.5795 15.8337 15.5ZM7.50033 15.5C7.50033 16.4205 6.75413 17.1667 5.83366 17.1667C4.91318 17.1667 4.16699 16.4205 4.16699 15.5C4.16699 14.5795 4.91318 13.8333 5.83366 13.8333C6.75413 13.8333 7.50033 14.5795 7.50033 15.5Z" stroke="#374151" stroke-width="1.25" stroke-linecap="round" stroke-linejoin="round"/>
</svg>
