<svg width="21" height="21" viewBox="0 0 21 21" fill="none" xmlns="http://www.w3.org/2000/svg">
<path d="M4.19992 0.919922C2.38842 0.919922 0.919922 2.38842 0.919922 4.19992V17.3199C0.919922 19.1314 2.38842 20.5999 4.19992 20.5999H17.3199C19.1314 20.5999 20.5999 19.1314 20.5999 17.3199V4.19992C20.5999 2.38842 19.1314 0.919922 17.3199 0.919922H4.19992ZM5.17733 5.13706H8.89662L11.5378 8.89021L14.7428 5.13706H15.9142L12.0668 9.64157L16.8111 16.3828H13.0927L10.0278 12.0284L6.30849 16.3828H5.13706L9.49881 11.277L5.17733 5.13706ZM6.97108 6.07421L13.5814 15.4456H15.0173L8.407 6.07421H6.97108Z" fill="#E7E7E7"/>
</svg>
